SplineFontDB: 3.0
FontName: Overlock-Italic
FullName: Overlock-Italic
FamilyName: Overlock
Weight: Book
Copyright: Copyright (c) 2011, Dario Manuel Muhafara (http://www.tipo.net.ar), with Reserved Font Name "Overlock".
Version: 1.001
ItalicAngle: 0
UnderlinePosition: -113
UnderlineWidth: 20
Ascent: 800
Descent: 200
sfntRevision: 0x00010042
LayerCount: 2
Layer: 0 1 "Back"  1
Layer: 1 1 "Fore"  0
XUID: [1021 288 713564382 3545179]
FSType: 0
OS2Version: 2
OS2_WeightWidthSlopeOnly: 0
OS2_UseTypoMetrics: 1
CreationTime: 1324052804
ModificationTime: 1324081808
PfmFamily: 17
TTFWeight: 400
TTFWidth: 5
LineGap: 0
VLineGap: 0
Panose: 2 0 5 6 4 0 0 9 0 2
OS2TypoAscent: 166
OS2TypoAOffset: 1
OS2TypoDescent: -54
OS2TypoDOffset: 1
OS2TypoLinegap: 0
OS2WinAscent: 74
OS2WinAOffset: 1
OS2WinDescent: 0
OS2WinDOffset: 1
HheadAscent: 74
HheadAOffset: 1
HheadDescent: 0
HheadDOffset: 1
OS2SubXSize: 700
OS2SubYSize: 650
OS2SubXOff: 0
OS2SubYOff: 140
OS2SupXSize: 700
OS2SupYSize: 650
OS2SupXOff: 0
OS2SupYOff: 477
OS2StrikeYSize: 50
OS2StrikeYPos: 250
OS2Vendor: 'pyrs'
OS2CodePages: 20000001.00000000
OS2UnicodeRanges: 800000af.5000204a.00000000.00000000
Lookup: 258 0 0 "'kern' Horizontal Kerning in Latin lookup 0"  {"'kern' Horizontal Kerning in Latin lookup 0 subtable"  } ['kern' ('DFLT' <'dflt' > 'latn' <'dflt' > ) ]
MarkAttachClasses: 1
DEI: 91125
TtTable: prep
PUSHW_1
 511
SCANCTRL
PUSHB_1
 4
SCANTYPE
EndTTInstrs
ShortTable: maxp 16
  1
  0
  283
  100
  7
  0
  0
  2
  0
  1
  1
  0
  64
  0
  0
  0
EndShort
LangName: 1033 "" "" "" "DarioManuelMuhafara: Overlock Italic: 2011" "" "Version 1.001" "" "Overlock is a trademark of Dario Manuel Muhafara." "Dario Manuel Muhafara" "Dario Muhafara" "" "www.tipo.net.ar" "www.tipo.net.ar" "This Font Software is licensed under the SIL Open Font License,+AA0A-Version 1.1. This license is available with a FAQ at:+AA0A-http://scripts.sil.org/OFL" "http://scripts.sil.org/OFL" 
GaspTable: 1 65535 15
Encoding: UnicodeBmp
UnicodeInterp: none

StartChar: exclam
Encoding: 33 33 4
Width: 251
GlyphClass: 2
Flags: W
LayerCount: 2
Fore
SplineSet
100 -10 m 0,0,1
 79 -10 79 -10 64.5 4.5 c 128,-1,2
 50 19 50 19 50 43 c 0,3,4
 50 72 50 72 70 94.5 c 128,-1,5
 90 117 90 117 116 117 c 0,6,7
 137 117 137 117 151 101.5 c 128,-1,8
 165 86 165 86 165 63 c 0,9,10
 165 33 165 33 146 11.5 c 128,-1,11
 127 -10 127 -10 100 -10 c 0,0,1
226 646 m 0,12,13
 226 630 226 630 217.5 590 c 128,-1,14
 209 550 209 550 196.5 486.5 c 128,-1,15
 184 423 184 423 176 367 c 1,16,17
 163 262 163 262 163 243 c 0,18,19
 163 218 163 218 167 199 c 1,20,21
 145 189 145 189 128 189 c 0,22,23
 93 189 93 189 93 226 c 0,24,25
 93 233 93 233 113 408.5 c 128,-1,26
 133 584 133 584 133 650 c 0,27,28
 133 669 133 669 132 676 c 1,29,30
 164 684 164 684 185 684 c 0,31,32
 226 684 226 684 226 646 c 0,12,13
EndSplineSet
EndChar

StartChar: quotedbl
Encoding: 34 34 5
Width: 344
GlyphClass: 2
Flags: W
LayerCount: 2
Fore
SplineSet
118 711 m 0,0,1
 122 735 122 735 155 735 c 0,2,3
 173 735 173 735 185.5 725 c 128,-1,4
 198 715 198 715 198 695 c 0,5,6
 198 681 198 681 179.5 618.5 c 128,-1,7
 161 556 161 556 147 520 c 0,8,9
 134 485 134 485 114 485 c 0,10,11
 103 485 103 485 85 494 c 1,12,13
 96 520 96 520 103 567 c 128,-1,14
 110 614 110 614 113 657.5 c 128,-1,15
 116 701 116 701 118 711 c 0,0,1
284 711 m 0,16,17
 288 735 288 735 321 735 c 0,18,19
 339 735 339 735 351.5 725 c 128,-1,20
 364 715 364 715 364 695 c 0,21,22
 364 681 364 681 345.5 618.5 c 128,-1,23
 327 556 327 556 313 520 c 0,24,25
 300 485 300 485 280 485 c 0,26,27
 269 485 269 485 251 494 c 1,28,29
 262 520 262 520 269 567 c 128,-1,30
 276 614 276 614 279 657.5 c 128,-1,31
 282 701 282 701 284 711 c 0,16,17
EndSplineSet
EndChar

StartChar: numbersign
Encoding: 35 35 6
Width: 574
GlyphClass: 2
Flags: W
LayerCount: 2
Fore
SplineSet
311 220 m 1,0,1
 287 221 287 221 232 221 c 2,2,-1
 201 221 l 1,3,4
 199 213 199 213 192.5 187 c 128,-1,5
 186 161 186 161 181 139.5 c 128,-1,6
 176 118 176 118 175 106 c 0,7,8
 172 86 172 86 172 49 c 1,9,10
 159 41 159 41 140 41 c 0,11,12
 116 41 116 41 116 64 c 0,13,14
 116 86 116 86 155 220 c 1,15,16
 79 216 79 216 29 202 c 1,17,18
 28 209 28 209 28 221 c 0,19,20
 28 274 28 274 86 274 c 0,21,22
 142 274 142 274 171 273 c 1,23,-1
 201 389 l 1,24,25
 125 385 125 385 75 371 c 1,26,27
 74 378 74 378 74 390 c 0,28,29
 74 443 74 443 132 443 c 0,30,31
 186 443 186 443 215 442 c 1,32,33
 218 456 218 456 234 521.5 c 128,-1,34
 250 587 250 587 253 610 c 1,35,36
 267 613 267 613 279 613 c 0,37,38
 305 613 305 613 305 590 c 0,39,40
 305 582 305 582 298 556.5 c 128,-1,41
 291 531 291 531 279 493 c 128,-1,42
 267 455 267 455 263 442 c 1,43,-1
 371 442 l 1,44,45
 374 456 374 456 390 521.5 c 128,-1,46
 406 587 406 587 409 610 c 1,47,48
 423 613 423 613 435 613 c 0,49,50
 461 613 461 613 461 590 c 0,51,52
 461 582 461 582 454 556.5 c 128,-1,53
 447 531 447 531 435 493 c 128,-1,54
 423 455 423 455 419 442 c 1,55,56
 492 445 492 445 546 449 c 1,57,58
 544 418 544 418 533.5 400 c 128,-1,59
 523 382 523 382 494 382 c 0,60,61
 489 382 489 382 475.5 383 c 128,-1,62
 462 384 462 384 440 385 c 128,-1,63
 418 386 418 386 401 387 c 1,64,65
 379 311 379 311 370 273 c 1,66,67
 450 276 450 276 500 280 c 1,68,69
 498 249 498 249 487.5 231 c 128,-1,70
 477 213 477 213 448 213 c 0,71,72
 443 213 443 213 429.5 214 c 128,-1,73
 416 215 416 215 394.5 216 c 128,-1,74
 373 217 373 217 356 218 c 1,75,76
 354 210 354 210 348 185 c 128,-1,77
 342 160 342 160 337 139 c 128,-1,78
 332 118 332 118 331 106 c 0,79,80
 328 86 328 86 328 49 c 1,81,82
 315 41 315 41 296 41 c 0,83,84
 272 41 272 41 272 64 c 0,85,86
 272 86 272 86 311 220 c 1,0,1
215 272 m 1,87,88
 302 272 302 272 326 273 c 1,89,90
 337 309 337 309 356 389 c 1,91,92
 331 390 331 390 276 390 c 2,93,-1
 247 390 l 1,94,95
 227 322 227 322 215 272 c 1,87,88
EndSplineSet
EndChar

StartChar: dollar
Encoding: 36 36 7
Width: 574
GlyphClass: 2
Flags: W
LayerCount: 2
Fore
SplineSet
202 481 m 0,0,1
 202 418 202 418 274 386 c 1,2,-1
 306 610 l 1,3,4
 262 605 262 605 232 571 c 128,-1,5
 202 537 202 537 202 481 c 0,0,1
389 194 m 0,6,7
 389 233 389 233 365.5 254 c 128,-1,8
 342 275 342 275 299 290 c 1,9,10
 292 243 292 243 281 160 c 128,-1,11
 270 77 270 77 266 49 c 1,12,13
 317 52 317 52 353 90.5 c 128,-1,14
 389 129 389 129 389 194 c 0,6,7
238 -78 m 1,15,16
 213 -78 213 -78 213 -57 c 0,17,18
 213 -49 213 -49 219 -9 c 1,19,20
 157 -6 157 -6 113 17.5 c 128,-1,21
 69 41 69 41 69 75 c 0,22,23
 69 97 69 97 82 110 c 128,-1,24
 95 123 95 123 120 135 c 1,25,26
 130 104 130 104 160 81.5 c 128,-1,27
 190 59 190 59 228 52 c 1,28,29
 229 63 229 63 263 302 c 1,30,31
 239 310 239 310 223.5 316.5 c 128,-1,32
 208 323 208 323 188.5 335.5 c 128,-1,33
 169 348 169 348 158 363 c 128,-1,34
 147 378 147 378 139 401.5 c 128,-1,35
 131 425 131 425 131 455 c 0,36,37
 131 543 131 543 181.5 599.5 c 128,-1,38
 232 656 232 656 312 668 c 1,39,40
 316 704 316 704 318 736 c 1,41,42
 330 739 330 739 336 739 c 0,43,44
 360 739 360 739 360 719 c 0,45,46
 360 713 360 713 354 671 c 1,47,48
 407 670 407 670 451.5 648 c 128,-1,49
 496 626 496 626 496 589 c 0,50,51
 496 543 496 543 440 532 c 1,52,53
 430 561 430 561 404 581.5 c 128,-1,54
 378 602 378 602 345 608 c 1,55,56
 314 391 314 391 311 371 c 1,57,58
 347 358 347 358 363 351.5 c 128,-1,59
 379 345 379 345 402.5 332 c 128,-1,60
 426 319 426 319 436 306.5 c 128,-1,61
 446 294 446 294 454 273.5 c 128,-1,62
 462 253 462 253 462 227 c 0,63,64
 462 126 462 126 406 62.5 c 128,-1,65
 350 -1 350 -1 259 -9 c 1,66,67
 254 -45 254 -45 253 -76 c 1,68,-1
 238 -78 l 1,15,16
EndSplineSet
EndChar

StartChar: percent
Encoding: 37 37 8
Width: 712
GlyphClass: 2
Flags: W
LayerCount: 2
Fore
SplineSet
485 -10 m 0,0,1
 431 -10 431 -10 400.5 25.5 c 128,-1,2
 370 61 370 61 370 122 c 0,3,4
 370 207 370 207 414 264.5 c 128,-1,5
 458 322 458 322 528 322 c 0,6,7
 582 322 582 322 612 287.5 c 128,-1,8
 642 253 642 253 642 191 c 0,9,10
 642 106 642 106 598.5 48 c 128,-1,11
 555 -10 555 -10 485 -10 c 0,0,1
522 273 m 0,12,13
 482 273 482 273 457 231.5 c 128,-1,14
 432 190 432 190 432 138 c 0,15,16
 432 97 432 97 446.5 68.5 c 128,-1,17
 461 40 461 40 491 40 c 0,18,19
 530 40 530 40 554.5 83 c 128,-1,20
 579 126 579 126 579 179 c 0,21,22
 579 219 579 219 564.5 246 c 128,-1,23
 550 273 550 273 522 273 c 0,12,13
104 25 m 2,24,-1
 583 692 l 1,25,26
 598 691 598 691 610 682.5 c 128,-1,27
 622 674 622 674 622 662 c 0,28,29
 622 654 622 654 609 635 c 128,-1,30
 596 616 596 616 526 520 c 0,31,32
 394 340 394 340 272 171 c 0,33,34
 212 89 212 89 133 -29 c 1,35,36
 94 -21 94 -21 94 1 c 1,37,38
 96 15 96 15 104 25 c 2,24,-1
185 333 m 0,39,40
 131 333 131 333 100.5 368.5 c 128,-1,41
 70 404 70 404 70 465 c 0,42,43
 70 550 70 550 114 607.5 c 128,-1,44
 158 665 158 665 228 665 c 0,45,46
 282 665 282 665 312 630.5 c 128,-1,47
 342 596 342 596 342 534 c 0,48,49
 342 449 342 449 298.5 391 c 128,-1,50
 255 333 255 333 185 333 c 0,39,40
222 616 m 0,51,52
 182 616 182 616 157 574.5 c 128,-1,53
 132 533 132 533 132 481 c 0,54,55
 132 440 132 440 146.5 411.5 c 128,-1,56
 161 383 161 383 191 383 c 0,57,58
 230 383 230 383 254.5 426 c 128,-1,59
 279 469 279 469 279 522 c 0,60,61
 279 562 279 562 264.5 589 c 128,-1,62
 250 616 250 616 222 616 c 0,51,52
EndSplineSet
EndChar

StartChar: ampersand
Encoding: 38 38 9
Width: 700
GlyphClass: 2
Flags: W
LayerCount: 2
Fore
SplineSet
415 235 m 1,0,1
 400 204 400 204 373 204 c 128,-1,2
 346 204 346 204 346 244 c 0,3,4
 346 291 346 291 384 335.5 c 128,-1,5
 422 380 422 380 476 380 c 0,6,7
 504 380 504 380 558 365 c 128,-1,8
 612 350 612 350 631 350 c 0,9,10
 673 350 673 350 673 394 c 0,11,12
 673 418 673 418 660 437 c 1,13,14
 674 467 674 467 703 467 c 0,15,16
 730 467 730 467 730 427 c 0,17,18
 730 382 730 382 692 336.5 c 128,-1,19
 654 291 654 291 601 291 c 0,20,21
 584 291 584 291 565 295 c 1,22,23
 529 130 529 130 452 59.5 c 128,-1,24
 375 -11 375 -11 257 -11 c 0,25,26
 157 -11 157 -11 98 45 c 128,-1,27
 39 101 39 101 39 179 c 0,28,29
 39 238 39 238 77 291 c 128,-1,30
 115 344 115 344 188 375 c 1,31,32
 108 415 108 415 108 492 c 0,33,34
 108 566 108 566 167.5 620.5 c 128,-1,35
 227 675 227 675 314 675 c 0,36,37
 371 675 371 675 411.5 648.5 c 128,-1,38
 452 622 452 622 452 590 c 0,39,40
 452 553 452 553 406 547 c 1,41,42
 392 581 392 581 365 598.5 c 128,-1,43
 338 616 338 616 305 616 c 0,44,45
 254 616 254 616 219.5 586 c 128,-1,46
 185 556 185 556 185 507 c 0,47,48
 185 473 185 473 211 445.5 c 128,-1,49
 237 418 237 418 289 418 c 0,50,51
 301 418 301 418 308 419 c 1,52,53
 310 405 310 405 310 401 c 0,54,55
 310 393 310 393 308 387.5 c 128,-1,56
 306 382 306 382 304.5 378.5 c 128,-1,57
 303 375 303 375 296.5 372 c 128,-1,58
 290 369 290 369 288.5 368.5 c 128,-1,59
 287 368 287 368 277.5 366 c 128,-1,60
 268 364 268 364 267 364 c 0,61,62
 197 348 197 348 159 300 c 128,-1,63
 121 252 121 252 121 194 c 0,64,65
 121 134 121 134 162 91 c 128,-1,66
 203 48 203 48 275 48 c 0,67,68
 371 48 371 48 426 107.5 c 128,-1,69
 481 167 481 167 501 311 c 1,70,71
 464 322 464 322 440 322 c 0,72,73
 421 322 421 322 411 310 c 128,-1,74
 401 298 401 298 401 278 c 0,75,76
 401 251 401 251 415 235 c 1,0,1
EndSplineSet
EndChar

StartChar: quotesingle
Encoding: 39 39 10
Width: 178
GlyphClass: 2
Flags: W
LayerCount: 2
Fore
SplineSet
118 711 m 0,0,1
 122 735 122 735 155 735 c 0,2,3
 173 735 173 735 185.5 725 c 128,-1,4
 198 715 198 715 198 695 c 0,5,6
 198 681 198 681 179.5 618.5 c 128,-1,7
 161 556 161 556 147 520 c 0,8,9
 134 485 134 485 114 485 c 0,10,11
 103 485 103 485 85 494 c 1,12,13
 96 520 96 520 103 567 c 128,-1,14
 110 614 110 614 113 657.5 c 128,-1,15
 116 701 116 701 118 711 c 0,0,1
EndSplineSet
EndChar

StartChar: parenleft
Encoding: 40 40 11
Width: 332
GlyphClass: 2
Flags: W
LayerCount: 2
Fore
SplineSet
237 -180 m 1,0,1
 218 -203 218 -203 201 -203 c 0,2,3
 165 -203 165 -203 123.5 -92 c 128,-1,4
 82 19 82 19 82 158 c 0,5,6
 82 258 82 258 112.5 366 c 128,-1,7
 143 474 143 474 184 551.5 c 128,-1,8
 225 629 225 629 266.5 680 c 128,-1,9
 308 731 308 731 332 731 c 0,10,11
 349 731 349 731 362 708 c 1,12,13
 269 613 269 613 211.5 457 c 128,-1,14
 154 301 154 301 154 146 c 0,15,16
 154 44 154 44 176.5 -41.5 c 128,-1,17
 199 -127 199 -127 237 -180 c 1,0,1
EndSplineSet
EndChar

StartChar: parenright
Encoding: 41 41 12
Width: 332
GlyphClass: 2
Flags: W
LayerCount: 2
Fore
SplineSet
94 708 m 1,0,1
 113 731 113 731 130 731 c 0,2,3
 166 731 166 731 207.5 618 c 128,-1,4
 249 505 249 505 249 367 c 0,5,6
 249 263 249 263 217.5 153.5 c 128,-1,7
 186 44 186 44 144 -31 c 128,-1,8
 102 -106 102 -106 61.5 -154.5 c 128,-1,9
 21 -203 21 -203 0 -203 c 0,10,11
 -17 -203 -17 -203 -30 -180 c 1,12,13
 64 -83 64 -83 121 72 c 128,-1,14
 178 227 178 227 178 379 c 0,15,16
 178 478 178 478 156 566.5 c 128,-1,17
 134 655 134 655 94 708 c 1,0,1
EndSplineSet
EndChar

StartChar: asterisk
Encoding: 42 42 13
Width: 450
GlyphClass: 2
Flags: W
LayerCount: 2
Fore
SplineSet
247 738 m 1,0,1
 264 743 264 743 280 743 c 0,2,3
 321 743 321 743 321 711 c 0,4,5
 321 696 321 696 299 610 c 1,6,7
 339 633 339 633 408 679 c 1,8,9
 430 657 430 657 430 631 c 0,10,11
 430 619 430 619 424 609.5 c 128,-1,12
 418 600 418 600 403 591.5 c 128,-1,13
 388 583 388 583 377.5 578.5 c 128,-1,14
 367 574 367 574 342 565 c 128,-1,15
 317 556 317 556 306 552 c 1,16,17
 339 511 339 511 392 458 c 1,18,19
 363 417 363 417 332 417 c 0,20,21
 326 417 326 417 320.5 419.5 c 128,-1,22
 315 422 315 422 309.5 427.5 c 128,-1,23
 304 433 304 433 299.5 439 c 128,-1,24
 295 445 295 445 289 455.5 c 128,-1,25
 283 466 283 466 279 474 c 128,-1,26
 275 482 275 482 267.5 496 c 128,-1,27
 260 510 260 510 255 520 c 1,28,29
 216 475 216 475 163 405 c 1,30,31
 119 422 119 422 119 453 c 0,32,33
 119 476 119 476 214 555 c 1,34,35
 158 582 158 582 100 602 c 1,36,37
 107 625 107 625 122 643.5 c 128,-1,38
 137 662 137 662 156 662 c 0,39,40
 172 662 172 662 241 613 c 1,41,42
 246 681 246 681 247 738 c 1,0,1
EndSplineSet
EndChar

StartChar: plus
Encoding: 43 43 14
Width: 574
GlyphClass: 2
Flags: W
LayerCount: 2
Fore
SplineSet
316 280 m 1,0,1
 434 280 434 280 503 288 c 1,2,3
 506 279 506 279 506 258 c 0,4,5
 506 240 506 240 496 228 c 128,-1,6
 486 216 486 216 470 216 c 0,7,8
 453 216 453 216 396.5 219.5 c 128,-1,9
 340 223 340 223 315 223 c 1,10,11
 315 114 315 114 323 26 c 1,12,13
 308 23 308 23 293 23 c 0,14,15
 276 23 276 23 263.5 32.5 c 128,-1,16
 251 42 251 42 251 59 c 0,17,18
 251 67 251 67 254 123.5 c 128,-1,19
 257 180 257 180 258 224 c 1,20,21
 159 223 159 223 72 216 c 1,22,23
 69 231 69 231 69 246 c 0,24,25
 69 262 69 262 78 275 c 128,-1,26
 87 288 87 288 105 288 c 0,27,28
 113 288 113 288 165.5 285 c 128,-1,29
 218 282 218 282 259 281 c 1,30,31
 259 409 259 409 251 478 c 1,32,33
 260 481 260 481 281 481 c 0,34,35
 299 481 299 481 311 471 c 128,-1,36
 323 461 323 461 323 445 c 0,37,38
 323 428 323 428 319.5 366.5 c 128,-1,39
 316 305 316 305 316 280 c 1,0,1
EndSplineSet
EndChar

StartChar: comma
Encoding: 44 44 15
Width: 201
GlyphClass: 2
Flags: W
LayerCount: 2
Fore
SplineSet
74 -12 m 0,0,1
 74 28 74 28 35 37 c 1,2,3
 30 50 30 50 30 61 c 0,4,5
 30 85 30 85 48.5 102.5 c 128,-1,6
 67 120 67 120 92 120 c 0,7,8
 113 120 113 120 127 103.5 c 128,-1,9
 141 87 141 87 141 53 c 0,10,11
 141 -13 141 -13 98 -78 c 128,-1,12
 55 -143 55 -143 6 -143 c 0,13,14
 -16 -143 -16 -143 -16 -119 c 0,15,16
 -16 -113 -16 -113 -12 -101 c 1,17,-1
 -8 -101 l 2,18,19
 26 -101 26 -101 50 -73 c 128,-1,20
 74 -45 74 -45 74 -12 c 0,0,1
EndSplineSet
EndChar

StartChar: hyphen
Encoding: 45 45 16
Width: 224
GlyphClass: 2
Flags: W
LayerCount: 2
Fore
SplineSet
218 297 m 1,0,1
 219 293 219 293 219 286 c 0,2,3
 219 264 219 264 208.5 246 c 128,-1,4
 198 228 198 228 177 228 c 0,5,6
 171 228 171 228 148 230.5 c 128,-1,7
 125 233 125 233 106 233 c 0,8,9
 61 233 61 233 26 225 c 1,10,11
 25 230 25 230 25 240 c 0,12,13
 25 294 25 294 66 294 c 0,14,15
 67 294 67 294 94.5 292 c 128,-1,16
 122 290 122 290 144 290 c 0,17,18
 187 290 187 290 218 297 c 1,0,1
EndSplineSet
EndChar

StartChar: period
Encoding: 46 46 17
Width: 204
GlyphClass: 2
Flags: W
LayerCount: 2
Fore
SplineSet
80 -10 m 0,0,1
 59 -10 59 -10 44.5 4.5 c 128,-1,2
 30 19 30 19 30 43 c 0,3,4
 30 72 30 72 50 94.5 c 128,-1,5
 70 117 70 117 96 117 c 0,6,7
 117 117 117 117 131 101.5 c 128,-1,8
 145 86 145 86 145 63 c 0,9,10
 145 33 145 33 126 11.5 c 128,-1,11
 107 -10 107 -10 80 -10 c 0,0,1
EndSplineSet
EndChar

StartChar: slash
Encoding: 47 47 18
Width: 243
GlyphClass: 2
Flags: W
LayerCount: 2
Fore
SplineSet
246 742 m 1,0,1
 278 742 278 742 278 721 c 0,2,3
 278 710 278 710 243.5 592.5 c 128,-1,4
 209 475 209 475 177 368.5 c 128,-1,5
 145 262 145 262 142 254 c 0,6,7
 119 181 119 181 82.5 53 c 128,-1,8
 46 -75 46 -75 37 -119 c 1,9,10
 24 -122 24 -122 13 -122 c 0,11,12
 -15 -122 -15 -122 -15 -99 c 0,13,14
 -15 -87 -15 -87 162 507 c 1,15,16
 208 665 208 665 225 739 c 1,17,-1
 246 742 l 1,0,1
EndSplineSet
EndChar

StartChar: zero
Encoding: 48 48 19
Width: 574
GlyphClass: 2
Flags: W
LayerCount: 2
Fore
SplineSet
242 -10 m 0,0,1
 155 -10 155 -10 106.5 58.5 c 128,-1,2
 58 127 58 127 58 246 c 0,3,4
 58 358 58 358 90.5 454.5 c 128,-1,5
 123 551 123 551 186.5 612 c 128,-1,6
 250 673 250 673 332 673 c 0,7,8
 419 673 419 673 468 605 c 128,-1,9
 517 537 517 537 517 417 c 0,10,11
 517 306 517 306 484.5 210 c 128,-1,12
 452 114 452 114 388 52 c 128,-1,13
 324 -10 324 -10 242 -10 c 0,0,1
133 275 m 0,14,15
 133 178 133 178 162 113.5 c 128,-1,16
 191 49 191 49 249 49 c 0,17,18
 334 49 334 49 388 152.5 c 128,-1,19
 442 256 442 256 442 390 c 0,20,21
 442 485 442 485 412.5 549.5 c 128,-1,22
 383 614 383 614 325 614 c 0,23,24
 243 614 243 614 188 514.5 c 128,-1,25
 133 415 133 415 133 275 c 0,14,15
EndSplineSet
EndChar

StartChar: one
Encoding: 49 49 20
Width: 574
GlyphClass: 2
Flags: W
LayerCount: 2
Fore
SplineSet
305 54 m 1,0,1
 370 54 370 54 403 58 c 1,2,3
 405 48 405 48 405 42 c 0,4,5
 405 -2 405 -2 362 -2 c 0,6,7
 356 -2 356 -2 304.5 -1 c 128,-1,8
 253 0 253 0 212 0 c 0,9,10
 140 0 140 0 111 -1 c 1,11,12
 109 11 109 11 109 15 c 0,13,14
 109 57 109 57 169 57 c 2,15,-1
 233 57 l 1,16,17
 237 86 237 86 251 187.5 c 128,-1,18
 265 289 265 289 274 354 c 0,19,20
 296 523 296 523 304 606 c 1,21,22
 199 595 199 595 185 592 c 1,23,24
 185 607 185 607 186 614 c 0,25,26
 190 652 190 652 228 657 c 0,27,28
 331 673 331 673 349 673 c 0,29,30
 383 673 383 673 383 642 c 0,31,32
 383 633 383 633 375 587 c 128,-1,33
 367 541 367 541 354 461.5 c 128,-1,34
 341 382 341 382 332 311 c 2,35,-1
 324 249 l 1,36,37
 308 135 308 135 305 54 c 1,0,1
EndSplineSet
EndChar

StartChar: two
Encoding: 50 50 21
Width: 574
GlyphClass: 2
Flags: W
LayerCount: 2
Fore
SplineSet
143 528 m 1,0,1
 112 533 112 533 112 557 c 0,2,3
 112 597 112 597 178 635 c 128,-1,4
 244 673 244 673 313 673 c 0,5,6
 379 673 379 673 424.5 633 c 128,-1,7
 470 593 470 593 470 520 c 0,8,9
 470 491 470 491 464.5 463 c 128,-1,10
 459 435 459 435 445 407 c 128,-1,11
 431 379 431 379 418 356.5 c 128,-1,12
 405 334 405 334 379 305.5 c 128,-1,13
 353 277 353 277 335.5 258.5 c 128,-1,14
 318 240 318 240 283 209.5 c 128,-1,15
 248 179 248 179 229 162.5 c 128,-1,16
 210 146 210 146 168.5 112.5 c 128,-1,17
 127 79 127 79 108 63 c 1,18,19
 140 61 140 61 191 61 c 0,20,21
 290 61 290 61 337 66 c 128,-1,22
 384 71 384 71 433 89 c 1,23,24
 440 71 440 71 440 52 c 0,25,26
 440 22 440 22 412 12 c 0,27,28
 374 -2 374 -2 258 -2 c 0,29,30
 221 -2 221 -2 156.5 -1 c 128,-1,31
 92 0 92 0 66 0 c 0,32,33
 29 0 29 0 29 37 c 0,34,35
 29 46 29 46 32 60 c 1,36,37
 74 99 74 99 140.5 155.5 c 128,-1,38
 207 212 207 212 244 245.5 c 128,-1,39
 281 279 281 279 321 323.5 c 128,-1,40
 361 368 361 368 379 410 c 128,-1,41
 397 452 397 452 397 498 c 0,42,43
 397 551 397 551 368.5 582 c 128,-1,44
 340 613 340 613 297 613 c 0,45,46
 258 613 258 613 216 589.5 c 128,-1,47
 174 566 174 566 143 528 c 1,0,1
EndSplineSet
EndChar

StartChar: three
Encoding: 51 51 22
Width: 574
GlyphClass: 2
Flags: W
LayerCount: 2
Fore
SplineSet
324 364 m 1,0,1
 423 313 423 313 423 223 c 0,2,3
 423 130 423 130 354.5 60 c 128,-1,4
 286 -10 286 -10 172 -10 c 0,5,6
 105 -10 105 -10 71.5 7.5 c 128,-1,7
 38 25 38 25 38 48 c 0,8,9
 38 65 38 65 49.5 76 c 128,-1,10
 61 87 61 87 78 89 c 1,11,12
 106 49 106 49 184 49 c 0,13,14
 258 49 258 49 303 96.5 c 128,-1,15
 348 144 348 144 348 204 c 0,16,17
 348 257 348 257 309 291.5 c 128,-1,18
 270 326 270 326 193 326 c 0,19,20
 166 326 166 326 166 352 c 0,21,22
 166 363 166 363 170 375 c 1,23,24
 266 375 266 375 318.5 419.5 c 128,-1,25
 371 464 371 464 371 525 c 0,26,27
 371 563 371 563 348.5 588.5 c 128,-1,28
 326 614 326 614 286 614 c 0,29,30
 251 614 251 614 215.5 594 c 128,-1,31
 180 574 180 574 155 536 c 1,32,33
 138 536 138 536 128.5 544 c 128,-1,34
 119 552 119 552 119 564 c 0,35,36
 119 601 119 601 176.5 637 c 128,-1,37
 234 673 234 673 300 673 c 0,38,39
 371 673 371 673 408.5 635 c 128,-1,40
 446 597 446 597 446 541 c 0,41,42
 446 487 446 487 415 441 c 128,-1,43
 384 395 384 395 324 364 c 1,0,1
EndSplineSet
EndChar

StartChar: four
Encoding: 52 52 23
Width: 574
GlyphClass: 2
Flags: W
LayerCount: 2
Fore
SplineSet
129 273 m 1,0,1
 177 270 177 270 229 270 c 0,2,3
 286 270 286 270 336 273 c 1,4,5
 356 417 356 417 380 579 c 1,6,7
 273 472 273 472 129 273 c 1,0,1
383 661 m 0,8,9
 399 674 399 674 432 674 c 0,10,11
 449 674 449 674 461 671 c 1,12,13
 416 409 416 409 401 276 c 1,14,15
 471 282 471 282 495 293 c 1,16,17
 499 279 499 279 499 267 c 0,18,19
 499 226 499 226 474 218 c 0,20,21
 452 210 452 210 393 209 c 1,22,23
 379 111 379 111 379 57 c 0,24,25
 379 23 379 23 383 -2 c 1,26,27
 365 -10 365 -10 343 -10 c 0,28,29
 320 -10 320 -10 311.5 -1 c 128,-1,30
 303 8 303 8 303 28 c 0,31,32
 303 40 303 40 328 208 c 1,33,34
 129 208 129 208 76 215 c 0,35,36
 59 218 59 218 59 244 c 0,37,38
 59 265 59 265 66 284 c 1,39,40
 116 359 116 359 226 490.5 c 128,-1,41
 336 622 336 622 383 661 c 0,8,9
EndSplineSet
EndChar

StartChar: five
Encoding: 53 53 24
Width: 574
GlyphClass: 2
Flags: W
LayerCount: 2
Fore
SplineSet
398 592 m 0,0,1
 326 592 326 592 224 598 c 1,2,-1
 189 423 l 1,3,4
 224 429 224 429 255 429 c 0,5,6
 347 429 347 429 394 382.5 c 128,-1,7
 441 336 441 336 441 259 c 0,8,9
 441 149 441 149 369.5 69.5 c 128,-1,10
 298 -10 298 -10 185 -10 c 0,11,12
 117 -10 117 -10 83.5 8 c 128,-1,13
 50 26 50 26 50 49 c 0,14,15
 50 65 50 65 62 76 c 128,-1,16
 74 87 74 87 91 89 c 1,17,18
 117 49 117 49 196 49 c 0,19,20
 271 49 271 49 318.5 105.5 c 128,-1,21
 366 162 366 162 366 232 c 0,22,23
 366 292 366 292 327 332 c 128,-1,24
 288 372 288 372 217 372 c 0,25,26
 176 372 176 372 139 367 c 1,27,28
 133 375 133 375 133 394 c 0,29,30
 133 395 133 395 180 664 c 1,31,32
 207 662 207 662 366 662 c 0,33,34
 432 662 432 662 472 670 c 1,35,36
 477 659 477 659 477 636 c 1,37,38
 472 592 472 592 398 592 c 0,0,1
EndSplineSet
EndChar

StartChar: six
Encoding: 54 54 25
Width: 574
GlyphClass: 2
Flags: W
LayerCount: 2
Fore
SplineSet
295 334 m 0,0,1
 228 334 228 334 158 274 c 1,2,3
 153 232 153 232 153 199 c 0,4,5
 153 49 153 49 261 49 c 0,6,7
 324 49 324 49 361.5 100.5 c 128,-1,8
 399 152 399 152 399 218 c 0,9,10
 399 272 399 272 370.5 303 c 128,-1,11
 342 334 342 334 295 334 c 0,0,1
245 -10 m 0,12,13
 82 -10 82 -10 82 198 c 0,14,15
 82 280 82 280 107.5 363.5 c 128,-1,16
 133 447 133 447 177.5 516 c 128,-1,17
 222 585 222 585 291 629 c 128,-1,18
 360 673 360 673 440 673 c 0,19,20
 475 673 475 673 475 644 c 0,21,22
 475 627 475 627 466 609 c 1,23,24
 442 613 442 613 429 613 c 0,25,26
 328 613 328 613 259.5 531 c 128,-1,27
 191 449 191 449 166 330 c 1,28,29
 242 391 242 391 321 391 c 0,30,31
 387 391 387 391 430.5 349 c 128,-1,32
 474 307 474 307 474 235 c 0,33,34
 474 143 474 143 408 66.5 c 128,-1,35
 342 -10 342 -10 245 -10 c 0,12,13
EndSplineSet
EndChar

StartChar: seven
Encoding: 55 55 26
Width: 574
GlyphClass: 2
Flags: W
LayerCount: 2
Fore
SplineSet
448 597 m 1,0,1
 305 592 305 592 182 592 c 0,2,3
 117 592 117 592 117 630 c 0,4,5
 117 650 117 650 130 670 c 1,6,7
 176 662 176 662 235 662 c 0,8,9
 472 662 472 662 520 664 c 1,10,11
 523 650 523 650 523 637 c 0,12,13
 523 610 523 610 512 589 c 1,14,15
 470 492 470 492 191 59 c 0,16,17
 147 -10 147 -10 121 -10 c 0,18,19
 106 -10 106 -10 88.5 2.5 c 128,-1,20
 71 15 71 15 63 29 c 1,21,22
 155 118 155 118 274 299.5 c 128,-1,23
 393 481 393 481 448 597 c 1,0,1
EndSplineSet
EndChar

StartChar: eight
Encoding: 56 56 27
Width: 574
GlyphClass: 2
Flags: W
LayerCount: 2
Fore
SplineSet
331 614 m 0,0,1
 281 614 281 614 247 587 c 128,-1,2
 213 560 213 560 213 518 c 0,3,4
 213 478 213 478 239.5 450 c 128,-1,5
 266 422 266 422 318 398 c 1,6,7
 429 450 429 450 429 542 c 0,8,9
 429 574 429 574 400.5 594 c 128,-1,10
 372 614 372 614 331 614 c 0,0,1
257 49 m 0,11,12
 323 49 323 49 363 93 c 128,-1,13
 403 137 403 137 403 196 c 0,14,15
 403 245 403 245 373 276 c 128,-1,16
 343 307 343 307 280 337 c 1,17,18
 143 276 143 276 143 158 c 0,19,20
 143 113 143 113 173 81 c 128,-1,21
 203 49 203 49 257 49 c 0,11,12
249 -10 m 0,22,23
 162 -10 162 -10 116.5 34.5 c 128,-1,24
 71 79 71 79 71 145 c 0,25,26
 71 225 71 225 115 280.5 c 128,-1,27
 159 336 159 336 226 367 c 1,28,29
 143 417 143 417 143 502 c 0,30,31
 143 577 143 577 199.5 625 c 128,-1,32
 256 673 256 673 339 673 c 0,33,34
 406 673 406 673 451.5 639 c 128,-1,35
 497 605 497 605 497 549 c 0,36,37
 497 430 497 430 371 367 c 1,38,39
 421 339 421 339 448.5 301 c 128,-1,40
 476 263 476 263 476 204 c 0,41,42
 476 117 476 117 416.5 53.5 c 128,-1,43
 357 -10 357 -10 249 -10 c 0,22,23
EndSplineSet
EndChar

StartChar: nine
Encoding: 57 57 28
Width: 574
GlyphClass: 2
Flags: W
LayerCount: 2
Fore
SplineSet
285 330 m 0,0,1
 352 330 352 330 422 390 c 1,2,3
 427 432 427 432 427 465 c 0,4,5
 427 615 427 615 319 615 c 0,6,7
 256 615 256 615 218.5 563.5 c 128,-1,8
 181 512 181 512 181 446 c 0,9,10
 181 392 181 392 209.5 361 c 128,-1,11
 238 330 238 330 285 330 c 0,0,1
334 674 m 0,12,13
 498 674 498 674 498 468 c 0,14,15
 498 386 498 386 473 302.5 c 128,-1,16
 448 219 448 219 403 149 c 128,-1,17
 358 79 358 79 289 35 c 128,-1,18
 220 -9 220 -9 139 -9 c 0,19,20
 106 -9 106 -9 106 18 c 0,21,22
 106 34 106 34 113 55 c 1,23,24
 139 51 139 51 151 51 c 0,25,26
 252 51 252 51 320.5 133 c 128,-1,27
 389 215 389 215 414 334 c 1,28,29
 338 273 338 273 259 273 c 0,30,31
 193 273 193 273 149.5 315 c 128,-1,32
 106 357 106 357 106 429 c 0,33,34
 106 521 106 521 171.5 597.5 c 128,-1,35
 237 674 237 674 334 674 c 0,12,13
EndSplineSet
EndChar

StartChar: colon
Encoding: 58 58 29
Width: 224
GlyphClass: 2
Flags: W
LayerCount: 2
Fore
SplineSet
80 -10 m 0,0,1
 59 -10 59 -10 44.5 4.5 c 128,-1,2
 30 19 30 19 30 43 c 0,3,4
 30 72 30 72 50 94.5 c 128,-1,5
 70 117 70 117 96 117 c 0,6,7
 117 117 117 117 131 101.5 c 128,-1,8
 145 86 145 86 145 63 c 0,9,10
 145 33 145 33 126 11.5 c 128,-1,11
 107 -10 107 -10 80 -10 c 0,0,1
128 351 m 0,12,13
 107 351 107 351 92.5 365.5 c 128,-1,14
 78 380 78 380 78 404 c 0,15,16
 78 433 78 433 98 455.5 c 128,-1,17
 118 478 118 478 144 478 c 0,18,19
 165 478 165 478 179 462.5 c 128,-1,20
 193 447 193 447 193 424 c 0,21,22
 193 394 193 394 174 372.5 c 128,-1,23
 155 351 155 351 128 351 c 0,12,13
EndSplineSet
EndChar

StartChar: semicolon
Encoding: 59 59 30
Width: 221
GlyphClass: 2
Flags: W
LayerCount: 2
Fore
SplineSet
109 351 m 0,0,1
 88 351 88 351 73.5 365.5 c 128,-1,2
 59 380 59 380 59 404 c 0,3,4
 59 433 59 433 79 455.5 c 128,-1,5
 99 478 99 478 125 478 c 0,6,7
 146 478 146 478 160 462.5 c 128,-1,8
 174 447 174 447 174 424 c 0,9,10
 174 394 174 394 155 372.5 c 128,-1,11
 136 351 136 351 109 351 c 0,0,1
74 -12 m 0,12,13
 74 28 74 28 35 37 c 1,14,15
 30 50 30 50 30 61 c 0,16,17
 30 85 30 85 48.5 102.5 c 128,-1,18
 67 120 67 120 92 120 c 0,19,20
 113 120 113 120 127 103.5 c 128,-1,21
 141 87 141 87 141 53 c 0,22,23
 141 -13 141 -13 98 -78 c 128,-1,24
 55 -143 55 -143 6 -143 c 0,25,26
 -16 -143 -16 -143 -16 -119 c 0,27,28
 -16 -113 -16 -113 -12 -101 c 1,29,-1
 -8 -101 l 2,30,31
 26 -101 26 -101 50 -73 c 128,-1,32
 74 -45 74 -45 74 -12 c 0,12,13
EndSplineSet
EndChar

StartChar: less
Encoding: 60 60 31
Width: 574
GlyphClass: 2
Flags: W
LayerCount: 2
Fore
SplineSet
206 251 m 1,0,1
 243 209 243 209 395 52 c 1,2,3
 374 18 374 18 342 18 c 0,4,5
 328 18 328 18 318 29 c 2,6,-1
 130 251 l 1,7,-1
 379 461 l 2,8,9
 393 472 393 472 405 472 c 0,10,11
 420 472 420 472 432.5 461.5 c 128,-1,12
 445 451 445 451 450 438 c 1,13,14
 431 423 431 423 371.5 377.5 c 128,-1,15
 312 332 312 332 261 293 c 128,-1,16
 210 254 210 254 206 251 c 1,0,1
EndSplineSet
EndChar

StartChar: equal
Encoding: 61 61 32
Width: 574
GlyphClass: 2
Flags: W
LayerCount: 2
Fore
SplineSet
486 158 m 0,0,1
 486 140 486 140 476 128 c 128,-1,2
 466 116 466 116 450 116 c 128,-1,3
 434 116 434 116 378.5 120 c 128,-1,4
 323 124 323 124 294 124 c 0,5,6
 180 124 180 124 92 116 c 1,7,8
 89 131 89 131 89 146 c 0,9,10
 89 162 89 162 98 175 c 128,-1,11
 107 188 107 188 125 188 c 0,12,13
 128 188 128 188 188 184.5 c 128,-1,14
 248 181 248 181 292 181 c 0,15,16
 422 181 422 181 483 188 c 1,17,18
 486 179 486 179 486 158 c 0,0,1
486 358 m 0,19,20
 486 340 486 340 476 328 c 128,-1,21
 466 316 466 316 450 316 c 128,-1,22
 434 316 434 316 378.5 320 c 128,-1,23
 323 324 323 324 294 324 c 0,24,25
 180 324 180 324 92 316 c 1,26,27
 89 331 89 331 89 346 c 0,28,29
 89 362 89 362 98 375 c 128,-1,30
 107 388 107 388 125 388 c 0,31,32
 128 388 128 388 188 384.5 c 128,-1,33
 248 381 248 381 292 381 c 0,34,35
 422 381 422 381 483 388 c 1,36,37
 486 379 486 379 486 358 c 0,19,20
EndSplineSet
EndChar

StartChar: greater
Encoding: 62 62 33
Width: 574
GlyphClass: 2
Flags: W
LayerCount: 2
Fore
SplineSet
360 251 m 1,0,1
 357 254 357 254 317.5 293 c 128,-1,2
 278 332 278 332 231.5 377.5 c 128,-1,3
 185 423 185 423 170 438 c 1,4,5
 178 451 178 451 193 461.5 c 128,-1,6
 208 472 208 472 223 472 c 0,7,8
 236 472 236 472 247 461 c 2,9,-1
 436 251 l 1,10,-1
 186 29 l 2,11,12
 174 18 174 18 160 18 c 128,-1,13
 146 18 146 18 133.5 27.5 c 128,-1,14
 121 37 121 37 115 52 c 1,15,16
 324 219 324 219 360 251 c 1,0,1
EndSplineSet
EndChar

StartChar: question
Encoding: 63 63 34
Width: 359
GlyphClass: 2
Flags: W
LayerCount: 2
Fore
SplineSet
141 117 m 0,0,1
 162 117 162 117 176.5 102.5 c 128,-1,2
 191 88 191 88 191 64 c 0,3,4
 191 35 191 35 171 12.5 c 128,-1,5
 151 -10 151 -10 125 -10 c 0,6,7
 104 -10 104 -10 90 5.5 c 128,-1,8
 76 21 76 21 76 44 c 0,9,10
 76 74 76 74 95 95.5 c 128,-1,11
 114 117 114 117 141 117 c 0,0,1
178 199 m 1,12,13
 155 189 155 189 138 189 c 0,14,15
 101 189 101 189 101 238 c 0,16,17
 101 272 101 272 117 304.5 c 128,-1,18
 133 337 133 337 152.5 358.5 c 128,-1,19
 172 380 172 380 202 410.5 c 128,-1,20
 232 441 232 441 247 461 c 0,21,22
 289 516 289 516 289 566 c 0,23,24
 289 597 289 597 270 612.5 c 128,-1,25
 251 628 251 628 220 628 c 0,26,27
 182 628 182 628 146.5 607 c 128,-1,28
 111 586 111 586 100 553 c 1,29,30
 60 560 60 560 60 590 c 0,31,32
 60 631 60 631 106.5 657.5 c 128,-1,33
 153 684 153 684 213 684 c 0,34,35
 275 684 275 684 318.5 653 c 128,-1,36
 362 622 362 622 362 560 c 0,37,38
 362 489 362 489 303 425 c 0,39,40
 290 411 290 411 261 385 c 128,-1,41
 232 359 232 359 216.5 342.5 c 128,-1,42
 201 326 201 326 187.5 297.5 c 128,-1,43
 174 269 174 269 174 237 c 0,44,45
 174 218 174 218 178 199 c 1,12,13
EndSplineSet
EndChar

StartChar: at
Encoding: 64 64 35
Width: 836
GlyphClass: 2
Flags: W
LayerCount: 2
Fore
SplineSet
336 54 m 0,0,1
 295 54 295 54 270.5 82 c 128,-1,2
 246 110 246 110 246 164 c 0,3,4
 246 268 246 268 310.5 355.5 c 128,-1,5
 375 443 375 443 457 443 c 0,6,7
 543 443 543 443 597 397 c 1,8,9
 532 219 532 219 532 156 c 0,10,11
 532 117 532 117 561 117 c 0,12,13
 607 117 607 117 649.5 189.5 c 128,-1,14
 692 262 692 262 692 359 c 0,15,16
 692 534 692 534 507 534 c 0,17,18
 413 534 413 534 330.5 471.5 c 128,-1,19
 248 409 248 409 203 318.5 c 128,-1,20
 158 228 158 228 158 140 c 0,21,22
 158 57 158 57 205.5 4.5 c 128,-1,23
 253 -48 253 -48 348 -48 c 0,24,25
 400 -48 400 -48 445 -26 c 128,-1,26
 490 -4 490 -4 511 32 c 1,27,28
 549 17 549 17 549 -11 c 0,29,30
 549 -52 549 -52 485.5 -80.5 c 128,-1,31
 422 -109 422 -109 342 -109 c 0,32,33
 217 -109 217 -109 153.5 -41.5 c 128,-1,34
 90 26 90 26 90 132 c 0,35,36
 90 210 90 210 123.5 291.5 c 128,-1,37
 157 373 157 373 214 439 c 128,-1,38
 271 505 271 505 354.5 547.5 c 128,-1,39
 438 590 438 590 530 590 c 0,40,41
 641 590 641 590 703.5 530.5 c 128,-1,42
 766 471 766 471 766 376 c 0,43,44
 766 300 766 300 727 227 c 128,-1,45
 688 154 688 154 634 111.5 c 128,-1,46
 580 69 580 69 535 69 c 0,47,48
 507 69 507 69 489 88.5 c 128,-1,49
 471 108 471 108 467 146 c 1,50,51
 405 54 405 54 336 54 c 0,0,1
468 204 m 1,52,53
 476 233 476 233 491.5 296.5 c 128,-1,54
 507 360 507 360 508 363 c 1,55,56
 479 391 479 391 446 391 c 0,57,58
 395 391 395 391 357 328.5 c 128,-1,59
 319 266 319 266 319 186 c 0,60,61
 319 115 319 115 361 115 c 0,62,63
 385 115 385 115 414.5 138 c 128,-1,64
 444 161 444 161 468 204 c 1,52,53
EndSplineSet
EndChar

StartChar: A
Encoding: 65 65 36
Width: 528
GlyphClass: 2
Flags: W
LayerCount: 2
Fore
SplineSet
313 569 m 1,0,1
 302 545 302 545 277.5 488 c 128,-1,2
 253 431 253 431 228 375.5 c 128,-1,3
 203 320 203 320 178 268 c 1,4,5
 250 266 250 266 288 266 c 0,6,7
 344 266 344 266 371 268 c 1,8,9
 353 349 353 349 313 569 c 1,0,1
264 207 m 0,10,11
 242 207 242 207 150 209 c 1,12,13
 139 185 139 185 116 134 c 128,-1,14
 93 83 93 83 77 47.5 c 128,-1,15
 61 12 61 12 53 -13 c 1,16,17
 31 -12 31 -12 10.5 -1.5 c 128,-1,18
 -10 9 -10 9 -10 28 c 0,19,20
 -10 37 -10 37 10.5 79 c 128,-1,21
 31 121 31 121 72 202 c 128,-1,22
 113 283 113 283 139 336 c 0,23,24
 255 577 255 577 278 659 c 1,25,26
 314 663 314 663 323 663 c 0,27,28
 347 663 347 663 358 652 c 128,-1,29
 369 641 369 641 375 610 c 0,30,31
 378 597 378 597 390.5 525 c 128,-1,32
 403 453 403 453 415 393.5 c 128,-1,33
 427 334 427 334 440 280 c 0,34,35
 484 87 484 87 511 10 c 1,36,37
 483 -10 483 -10 462 -10 c 0,38,39
 431 -10 431 -10 425 17 c 0,40,41
 411 80 411 80 384 209 c 1,42,43
 284 207 284 207 264 207 c 0,10,11
EndSplineSet
EndChar

StartChar: B
Encoding: 66 66 37
Width: 509
GlyphClass: 2
Flags: W
LayerCount: 2
Fore
SplineSet
265 612 m 0,0,1
 244 612 244 612 206 608 c 1,2,3
 193 476 193 476 182 383 c 1,4,5
 210 381 210 381 227 381 c 0,6,7
 401 381 401 381 401 515 c 0,8,9
 401 612 401 612 265 612 c 0,0,1
236 51 m 0,10,11
 297 51 297 51 340.5 95 c 128,-1,12
 384 139 384 139 384 211 c 0,13,14
 384 270 384 270 347 300.5 c 128,-1,15
 310 331 310 331 254 331 c 0,16,17
 199 331 199 331 174 326 c 1,18,19
 159 220 159 220 131 87 c 1,20,21
 145 73 145 73 176 62 c 128,-1,22
 207 51 207 51 236 51 c 0,10,11
51 56 m 1,23,24
 79 167 79 167 107 387 c 0,25,26
 131 572 131 572 131 660 c 1,27,28
 200 673 200 673 279 673 c 0,29,30
 369 673 369 673 426 640 c 128,-1,31
 483 607 483 607 483 530 c 0,32,33
 483 473 483 473 457.5 427 c 128,-1,34
 432 381 432 381 386 362 c 1,35,36
 466 320 466 320 466 227 c 0,37,38
 466 120 466 120 401 55 c 128,-1,39
 336 -10 336 -10 245 -10 c 0,40,41
 112 -10 112 -10 51 56 c 1,23,24
EndSplineSet
EndChar

StartChar: C
Encoding: 67 67 38
Width: 517
GlyphClass: 2
Flags: W
LayerCount: 2
Fore
SplineSet
427 134 m 1,0,1
 470 116 470 116 470 87 c 0,2,3
 470 49 470 49 414 19.5 c 128,-1,4
 358 -10 358 -10 282 -10 c 0,5,6
 173 -10 173 -10 110.5 64.5 c 128,-1,7
 48 139 48 139 48 264 c 0,8,9
 48 445 48 445 140 559 c 128,-1,10
 232 673 232 673 378 673 c 0,11,12
 444 673 444 673 488 644.5 c 128,-1,13
 532 616 532 616 532 574 c 0,14,15
 532 549 532 549 515.5 533.5 c 128,-1,16
 499 518 499 518 473 514 c 1,17,18
 462 563 462 563 429 587.5 c 128,-1,19
 396 612 396 612 355 612 c 0,20,21
 257 612 257 612 194 514 c 128,-1,22
 131 416 131 416 131 287 c 0,23,24
 131 183 131 183 172.5 117 c 128,-1,25
 214 51 214 51 294 51 c 0,26,27
 376 51 376 51 427 134 c 1,0,1
EndSplineSet
EndChar

StartChar: D
Encoding: 68 68 39
Width: 582
GlyphClass: 2
Flags: W
LayerCount: 2
Fore
SplineSet
51 53 m 1,0,1
 80 186 80 186 104 359 c 128,-1,2
 128 532 128 532 131 661 c 1,3,4
 185 673 185 673 273 673 c 0,5,6
 563 673 563 673 563 404 c 0,7,8
 563 296 563 296 526 203.5 c 128,-1,9
 489 111 489 111 412.5 50.5 c 128,-1,10
 336 -10 336 -10 235 -10 c 0,11,12
 111 -10 111 -10 51 53 c 1,0,1
208 608 m 1,13,14
 185 332 185 332 134 87 c 1,15,16
 178 51 178 51 246 51 c 0,17,18
 309 51 309 51 357 83.5 c 128,-1,19
 405 116 405 116 430 167.5 c 128,-1,20
 455 219 455 219 467 273.5 c 128,-1,21
 479 328 479 328 479 382 c 0,22,23
 479 497 479 497 423.5 554.5 c 128,-1,24
 368 612 368 612 264 612 c 0,25,26
 246 612 246 612 208 608 c 1,13,14
EndSplineSet
EndChar

StartChar: E
Encoding: 69 69 40
Width: 453
GlyphClass: 2
Flags: W
LayerCount: 2
Fore
SplineSet
454 580 m 1,0,1
 406 601 406 601 290 601 c 0,2,3
 256 601 256 601 205 598 c 1,4,5
 203 551 203 551 181 386 c 1,6,7
 318 386 318 386 351 390 c 1,8,9
 353 374 353 374 353 368 c 0,10,11
 353 327 353 327 308 324 c 0,12,13
 284 323 284 323 172 323 c 1,14,15
 145 112 145 112 145 61 c 1,16,17
 173 59 173 59 209 59 c 0,18,19
 263 59 263 59 318.5 66 c 128,-1,20
 374 73 374 73 392 82 c 1,21,22
 400 55 400 55 400 40 c 0,23,24
 400 11 400 11 368.5 4 c 128,-1,25
 337 -3 337 -3 248 -3 c 0,26,27
 122 -3 122 -3 96 -1 c 0,28,29
 76 0 76 0 68 8 c 128,-1,30
 60 16 60 16 60 34 c 0,31,32
 60 62 60 62 93.5 306 c 128,-1,33
 127 550 127 550 127 631 c 0,34,35
 127 649 127 649 126 656 c 1,36,37
 224 665 224 665 319 665 c 0,38,39
 448 665 448 665 463 650 c 0,40,41
 468 644 468 644 468 631 c 0,42,43
 468 605 468 605 454 580 c 1,0,1
EndSplineSet
EndChar

StartChar: F
Encoding: 70 70 41
Width: 434
GlyphClass: 2
Flags: W
LayerCount: 2
Fore
SplineSet
150 5 m 1,0,1
 132 -3 132 -3 102 -3 c 0,2,3
 60 -3 60 -3 60 39 c 0,4,5
 60 46 60 46 65 81 c 128,-1,6
 70 116 70 116 81.5 201 c 128,-1,7
 93 286 93 286 104 376 c 0,8,9
 128 559 128 559 128 631 c 0,10,11
 128 649 128 649 127 656 c 1,12,13
 225 665 225 665 325 665 c 0,14,15
 454 665 454 665 469 650 c 0,16,17
 474 644 474 644 474 631 c 0,18,19
 474 605 474 605 460 580 c 1,20,21
 412 601 412 601 296 601 c 0,22,23
 257 601 257 601 206 598 c 1,24,25
 204 551 204 551 182 386 c 1,26,27
 319 386 319 386 352 390 c 1,28,29
 354 374 354 374 354 368 c 0,30,31
 354 327 354 327 309 324 c 0,32,33
 285 323 285 323 174 323 c 1,34,35
 146 114 146 114 146 66 c 0,36,37
 146 32 146 32 150 5 c 1,0,1
EndSplineSet
EndChar

StartChar: G
Encoding: 71 71 42
Width: 549
GlyphClass: 2
Flags: W
LayerCount: 2
Fore
SplineSet
428 301 m 1,0,1
 446 304 446 304 465 304 c 0,2,3
 509 304 509 304 509 273 c 0,4,5
 509 267 509 267 504 241 c 128,-1,6
 499 215 499 215 491.5 170.5 c 128,-1,7
 484 126 484 126 479 85 c 1,8,9
 471 44 471 44 415 17 c 128,-1,10
 359 -10 359 -10 282 -10 c 0,11,12
 173 -10 173 -10 110.5 64.5 c 128,-1,13
 48 139 48 139 48 264 c 0,14,15
 48 445 48 445 140 559 c 128,-1,16
 232 673 232 673 378 673 c 0,17,18
 444 673 444 673 488 644.5 c 128,-1,19
 532 616 532 616 532 574 c 0,20,21
 532 549 532 549 515.5 533.5 c 128,-1,22
 499 518 499 518 473 514 c 1,23,24
 462 563 462 563 429 587.5 c 128,-1,25
 396 612 396 612 355 612 c 0,26,27
 257 612 257 612 194 514 c 128,-1,28
 131 416 131 416 131 287 c 0,29,30
 131 183 131 183 172.5 117 c 128,-1,31
 214 51 214 51 294 51 c 0,32,33
 360 51 360 51 408 91 c 1,34,35
 422 214 422 214 428 301 c 1,0,1
EndSplineSet
EndChar

StartChar: H
Encoding: 72 72 43
Width: 599
GlyphClass: 2
Flags: W
LayerCount: 2
Fore
SplineSet
538 666 m 0,0,1
 582 666 582 666 582 633 c 0,2,3
 582 628 582 628 577 600.5 c 128,-1,4
 572 573 572 573 563 517.5 c 128,-1,5
 554 462 554 462 547 404 c 2,6,-1
 521 203 l 2,7,8
 509 115 509 115 509 66 c 0,9,10
 509 32 509 32 513 5 c 1,11,12
 495 -3 495 -3 465 -3 c 0,13,14
 423 -3 423 -3 423 39 c 0,15,16
 423 46 423 46 427.5 77.5 c 128,-1,17
 432 109 432 109 438.5 156 c 128,-1,18
 445 203 445 203 449 231 c 2,19,-1
 461 332 l 1,20,21
 415 330 415 330 319 330 c 0,22,23
 216 330 216 330 174 332 c 1,24,-1
 158 203 l 1,25,26
 146 115 146 115 146 66 c 0,27,28
 146 32 146 32 150 5 c 1,29,30
 132 -3 132 -3 102 -3 c 0,31,32
 60 -3 60 -3 60 39 c 0,33,34
 60 46 60 46 64.5 77.5 c 128,-1,35
 69 109 69 109 75.5 156 c 128,-1,36
 82 203 82 203 86 231 c 2,37,-1
 111 431 l 2,38,39
 130 581 130 581 134 663 c 1,40,41
 150 666 150 666 175 666 c 0,42,43
 219 666 219 666 219 633 c 0,44,45
 219 628 219 628 214 600 c 128,-1,46
 209 572 209 572 199.5 513 c 128,-1,47
 190 454 190 454 182 391 c 1,48,49
 225 389 225 389 328 389 c 0,50,51
 426 389 426 389 469 391 c 1,52,53
 493 582 493 582 497 663 c 1,54,55
 513 666 513 666 538 666 c 0,0,1
EndSplineSet
EndChar

StartChar: I
Encoding: 73 73 44
Width: 236
GlyphClass: 2
Flags: W
LayerCount: 2
Fore
SplineSet
175 666 m 0,0,1
 219 666 219 666 219 633 c 0,2,3
 219 628 219 628 214 600.5 c 128,-1,4
 209 573 209 573 200 517.5 c 128,-1,5
 191 462 191 462 184 404 c 2,6,-1
 158 203 l 2,7,8
 146 115 146 115 146 66 c 0,9,10
 146 32 146 32 150 5 c 1,11,12
 132 -3 132 -3 102 -3 c 0,13,14
 60 -3 60 -3 60 39 c 0,15,16
 60 46 60 46 65 82.5 c 128,-1,17
 70 119 70 119 83.5 218.5 c 128,-1,18
 97 318 97 318 111 431 c 0,19,20
 130 581 130 581 134 663 c 1,21,22
 150 666 150 666 175 666 c 0,0,1
EndSplineSet
EndChar

StartChar: J
Encoding: 74 74 45
Width: 310
GlyphClass: 2
Flags: W
LayerCount: 2
Fore
SplineSet
36 -119 m 0,0,1
 0 -119 0 -119 0 -72 c 0,2,3
 0 -62 0 -62 1 -56 c 1,4,5
 78 -49 78 -49 103 -9 c 128,-1,6
 128 31 128 31 142 136 c 2,7,-1
 183 431 l 2,8,9
 202 568 202 568 208 663 c 1,10,11
 226 666 226 666 250 666 c 0,12,13
 293 666 293 666 293 635 c 0,14,15
 293 625 293 625 287 594.5 c 128,-1,16
 281 564 281 564 271.5 514.5 c 128,-1,17
 262 465 262 465 256 421 c 2,18,-1
 213 111 l 2,19,20
 205 56 205 56 187 13 c 128,-1,21
 169 -30 169 -30 148.5 -54 c 128,-1,22
 128 -78 128 -78 104.5 -93.5 c 128,-1,23
 81 -109 81 -109 64.5 -114 c 128,-1,24
 48 -119 48 -119 36 -119 c 0,0,1
EndSplineSet
EndChar

StartChar: K
Encoding: 75 75 46
Width: 497
GlyphClass: 2
Flags: W
LayerCount: 2
Fore
SplineSet
175 666 m 0,0,1
 219 666 219 666 219 633 c 0,2,3
 219 628 219 628 214 600.5 c 128,-1,4
 209 573 209 573 200 517.5 c 128,-1,5
 191 462 191 462 184 404 c 2,6,-1
 180 375 l 1,7,8
 312 478 312 478 366 543.5 c 128,-1,9
 420 609 420 609 439 668 c 1,10,11
 497 660 497 660 497 628 c 0,12,13
 497 590 497 590 423.5 511.5 c 128,-1,14
 350 433 350 433 252 350 c 1,15,16
 276 294 276 294 324 205 c 128,-1,17
 372 116 372 116 399 83 c 0,18,19
 423 55 423 55 451 55 c 0,20,21
 470 55 470 55 481 58 c 1,22,23
 485 43 485 43 485 32 c 0,24,25
 485 -10 485 -10 423 -10 c 0,26,27
 376 -10 376 -10 336 47 c 0,28,29
 304 93 304 93 260 172.5 c 128,-1,30
 216 252 216 252 194 304 c 1,31,32
 189 299 189 299 179 292.5 c 128,-1,33
 169 286 169 286 168 285 c 2,34,-1
 158 203 l 1,35,36
 146 115 146 115 146 66 c 0,37,38
 146 32 146 32 150 5 c 1,39,40
 132 -3 132 -3 102 -3 c 0,41,42
 60 -3 60 -3 60 39 c 0,43,44
 60 46 60 46 65 82.5 c 128,-1,45
 70 119 70 119 83.5 218.5 c 128,-1,46
 97 318 97 318 111 431 c 0,47,48
 130 581 130 581 134 663 c 1,49,50
 150 666 150 666 175 666 c 0,0,1
EndSplineSet
EndChar

StartChar: L
Encoding: 76 76 47
Width: 386
GlyphClass: 2
Flags: W
LayerCount: 2
Fore
SplineSet
113 450 m 0,0,1
 125 540 125 540 133 663 c 1,2,3
 148 666 148 666 173 666 c 0,4,5
 218 666 218 666 218 634 c 0,6,7
 218 628 218 628 212.5 594.5 c 128,-1,8
 207 561 207 561 198 506 c 128,-1,9
 189 451 189 451 183 404 c 0,10,11
 146 125 146 125 145 81 c 0,12,13
 145 72 145 72 145 62 c 1,14,15
 173 60 173 60 195 60 c 0,16,17
 249 60 249 60 304.5 67 c 128,-1,18
 360 74 360 74 378 83 c 1,19,20
 386 56 386 56 386 41 c 0,21,22
 386 12 386 12 354.5 5 c 128,-1,23
 323 -2 323 -2 234 -2 c 0,24,25
 122 -2 122 -2 96 0 c 0,26,27
 76 1 76 1 68 9.5 c 128,-1,28
 60 18 60 18 60 35 c 0,29,30
 60 54 60 54 113 450 c 0,0,1
EndSplineSet
EndChar

StartChar: M
Encoding: 77 77 48
Width: 760
GlyphClass: 2
Flags: W
LayerCount: 2
Fore
SplineSet
696 436 m 2,0,-1
 663 203 l 2,1,2
 649 111 649 111 649 59 c 0,3,4
 649 39 649 39 653 5 c 1,5,6
 635 -3 635 -3 603 -3 c 0,7,8
 562 -3 562 -3 562 35 c 0,9,10
 562 40 562 40 572.5 108 c 128,-1,11
 583 176 583 176 601.5 302 c 128,-1,12
 620 428 620 428 635 538 c 1,13,14
 515 334 515 334 382 2 c 1,15,16
 372 -2 372 -2 352 -2 c 0,17,18
 316 -2 316 -2 310 24 c 0,19,20
 296 76 296 76 262.5 256 c 128,-1,21
 229 436 229 436 197 541 c 1,22,23
 189 487 189 487 180.5 426 c 128,-1,24
 172 365 172 365 167 332 c 128,-1,25
 162 299 162 299 156.5 260 c 128,-1,26
 151 221 151 221 148.5 202.5 c 128,-1,27
 146 184 146 184 143 160.5 c 128,-1,28
 140 137 140 137 139 126.5 c 128,-1,29
 138 116 138 116 136.5 102 c 128,-1,30
 135 88 135 88 135 79 c 128,-1,31
 135 70 135 70 135 59 c 0,32,33
 135 39 135 39 139 5 c 1,34,35
 121 -3 121 -3 97 -3 c 0,36,37
 60 -3 60 -3 60 32 c 0,38,39
 60 40 60 40 88 231 c 2,40,-1
 124 483 l 2,41,42
 134 555 134 555 134 610 c 0,43,44
 134 636 134 636 131 659 c 1,45,46
 161 667 161 667 190 667 c 0,47,48
 231 667 231 667 250 619 c 0,49,50
 271 564 271 564 289 498 c 128,-1,51
 307 432 307 432 316.5 385.5 c 128,-1,52
 326 339 326 339 341 260.5 c 128,-1,53
 356 182 356 182 364 142 c 1,54,55
 483 426 483 426 609 619 c 0,56,57
 640 667 640 667 690 667 c 0,58,59
 724 667 724 667 743 659 c 1,60,61
 719 599 719 599 696 436 c 2,0,-1
EndSplineSet
EndChar

StartChar: N
Encoding: 78 78 49
Width: 580
GlyphClass: 2
Flags: W
LayerCount: 2
Fore
SplineSet
483 1 m 1,0,1
 468 -3 468 -3 450 -3 c 0,2,3
 418 -3 418 -3 406 24 c 0,4,5
 380 83 380 83 311 253.5 c 128,-1,6
 242 424 242 424 192 534 c 1,7,8
 185 482 185 482 173 392 c 128,-1,9
 161 302 161 302 154 250.5 c 128,-1,10
 147 199 147 199 141.5 143 c 128,-1,11
 136 87 136 87 136 59 c 0,12,13
 136 39 136 39 140 5 c 1,14,15
 122 -3 122 -3 102 -3 c 0,16,17
 78 -3 78 -3 69 6 c 128,-1,18
 60 15 60 15 60 35 c 0,19,20
 60 44 60 44 64.5 76 c 128,-1,21
 69 108 69 108 75.5 155 c 128,-1,22
 82 202 82 202 86 231 c 0,23,24
 93 286 93 286 102 355 c 128,-1,25
 111 424 111 424 115.5 459 c 128,-1,26
 120 494 120 494 123.5 533.5 c 128,-1,27
 127 573 127 573 127 604 c 0,28,29
 127 636 127 636 123 659 c 1,30,31
 142 667 142 667 170 667 c 128,-1,32
 198 667 198 667 218 638 c 0,33,34
 294 523 294 523 432 157 c 1,35,-1
 466 431 l 2,36,37
 483 562 483 562 489 663 c 1,38,39
 504 666 504 666 521 666 c 0,40,41
 563 666 563 666 563 632 c 0,42,43
 563 625 563 625 557 592.5 c 128,-1,44
 551 560 551 560 542.5 505.5 c 128,-1,45
 534 451 534 451 528 404 c 0,46,47
 522 355 522 355 510 262.5 c 128,-1,48
 498 170 498 170 492 111.5 c 128,-1,49
 486 53 486 53 483 1 c 1,0,1
EndSplineSet
EndChar

StartChar: O
Encoding: 79 79 50
Width: 628
GlyphClass: 2
Flags: W
LayerCount: 2
Fore
SplineSet
284 -10 m 0,0,1
 173 -10 173 -10 110.5 63.5 c 128,-1,2
 48 137 48 137 48 263 c 0,3,4
 48 438 48 438 137.5 556 c 128,-1,5
 227 674 227 674 370 674 c 0,6,7
 482 674 482 674 545.5 601.5 c 128,-1,8
 609 529 609 529 609 402 c 0,9,10
 609 230 609 230 519 110 c 128,-1,11
 429 -10 429 -10 284 -10 c 0,0,1
362 612 m 0,12,13
 256 612 256 612 193.5 518 c 128,-1,14
 131 424 131 424 131 288 c 0,15,16
 131 185 131 185 170.5 117.5 c 128,-1,17
 210 50 210 50 293 50 c 0,18,19
 367 50 367 50 421 98.5 c 128,-1,20
 475 147 475 147 500 220.5 c 128,-1,21
 525 294 525 294 525 381 c 0,22,23
 525 480 525 480 485.5 546 c 128,-1,24
 446 612 446 612 362 612 c 0,12,13
EndSplineSet
EndChar

StartChar: P
Encoding: 80 80 51
Width: 497
GlyphClass: 2
Flags: W
LayerCount: 2
Fore
SplineSet
255 304 m 0,0,1
 328 304 328 304 366.5 357.5 c 128,-1,2
 405 411 405 411 405 494 c 0,3,4
 405 561 405 561 370 586.5 c 128,-1,5
 335 612 335 612 270 612 c 0,6,7
 235 612 235 612 206 608 c 1,8,9
 200 521 200 521 184 404 c 2,10,-1
 174 329 l 1,11,12
 210 304 210 304 255 304 c 0,0,1
86 231 m 2,13,-1
 111 431 l 1,14,15
 129 586 129 586 129 661 c 1,16,17
 196 673 196 673 268 673 c 0,18,19
 487 673 487 673 487 496 c 0,20,21
 487 379 487 379 420 311 c 128,-1,22
 353 243 353 243 267 243 c 0,23,24
 207 243 207 243 167 275 c 1,25,-1
 158 203 l 2,26,27
 146 113 146 113 146 63 c 0,28,29
 146 30 146 30 150 5 c 1,30,31
 132 -3 132 -3 102 -3 c 0,32,33
 60 -3 60 -3 60 39 c 0,34,35
 60 48 60 48 64.5 79.5 c 128,-1,36
 69 111 69 111 76 157.5 c 128,-1,37
 83 204 83 204 86 231 c 2,13,-1
EndSplineSet
EndChar

StartChar: Q
Encoding: 81 81 52
Width: 629
GlyphClass: 2
Flags: W
LayerCount: 2
Fore
SplineSet
362 612 m 0,0,1
 256 612 256 612 193.5 518 c 128,-1,2
 131 424 131 424 131 288 c 0,3,4
 131 185 131 185 170.5 117.5 c 128,-1,5
 210 50 210 50 293 50 c 0,6,7
 367 50 367 50 421 98.5 c 128,-1,8
 475 147 475 147 500 220.5 c 128,-1,9
 525 294 525 294 525 381 c 0,10,11
 525 480 525 480 485.5 546 c 128,-1,12
 446 612 446 612 362 612 c 0,0,1
315 -8 m 1,13,14
 337 -62 337 -62 393.5 -96.5 c 128,-1,15
 450 -131 450 -131 517 -131 c 0,16,17
 623 -131 623 -131 664 -49 c 1,18,19
 707 -71 707 -71 707 -103 c 0,20,21
 707 -148 707 -148 660.5 -173 c 128,-1,22
 614 -198 614 -198 544 -198 c 0,23,24
 441 -198 441 -198 361 -152 c 128,-1,25
 281 -106 281 -106 253 -8 c 1,26,27
 156 2 156 2 102 74 c 128,-1,28
 48 146 48 146 48 263 c 0,29,30
 48 438 48 438 137.5 556 c 128,-1,31
 227 674 227 674 370 674 c 0,32,33
 482 674 482 674 545.5 601.5 c 128,-1,34
 609 529 609 529 609 402 c 0,35,36
 609 240 609 240 528.5 122.5 c 128,-1,37
 448 5 448 5 315 -8 c 1,13,14
EndSplineSet
EndChar

StartChar: R
Encoding: 82 82 53
Width: 516
GlyphClass: 2
Flags: W
LayerCount: 2
Fore
SplineSet
401 84 m 1,0,1
 422 55 422 55 458 55 c 0,2,3
 477 55 477 55 492 58 c 1,4,5
 496 47 496 47 496 36 c 0,6,7
 496 -10 496 -10 430 -10 c 0,8,9
 368 -10 368 -10 339 38 c 0,10,11
 315 78 315 78 283 152 c 128,-1,12
 251 226 251 226 234 278 c 1,13,14
 207 284 207 284 207 299 c 0,15,16
 207 311 207 311 218 328 c 1,17,18
 235 322 235 322 254 322 c 0,19,20
 325 322 325 322 365 368.5 c 128,-1,21
 405 415 405 415 405 495 c 0,22,23
 405 565 405 565 374 588.5 c 128,-1,24
 343 612 343 612 273 612 c 0,25,26
 233 612 233 612 206 608 c 1,27,28
 200 530 200 530 187 429 c 2,29,-1
 158 203 l 2,30,31
 146 113 146 113 146 62 c 0,32,33
 146 29 146 29 150 5 c 1,34,35
 132 -3 132 -3 102 -3 c 0,36,37
 60 -3 60 -3 60 39 c 0,38,39
 60 49 60 49 64.5 80.5 c 128,-1,40
 69 112 69 112 76 158 c 128,-1,41
 83 204 83 204 86 231 c 2,42,-1
 111 431 l 2,43,44
 129 577 129 577 129 661 c 1,45,46
 196 673 196 673 269 673 c 0,47,48
 313 673 313 673 349.5 665 c 128,-1,49
 386 657 386 657 418.5 638.5 c 128,-1,50
 451 620 451 620 469 585.5 c 128,-1,51
 487 551 487 551 487 503 c 0,52,53
 487 414 487 414 437.5 351 c 128,-1,54
 388 288 388 288 313 277 c 1,55,56
 329 226 329 226 355 167.5 c 128,-1,57
 381 109 381 109 401 84 c 1,0,1
EndSplineSet
EndChar

StartChar: S
Encoding: 83 83 54
Width: 460
GlyphClass: 2
Flags: W
LayerCount: 2
Fore
SplineSet
402 531 m 1,0,1
 391 564 391 564 355 585.5 c 128,-1,2
 319 607 319 607 278 607 c 0,3,4
 228 607 228 607 193 574 c 128,-1,5
 158 541 158 541 158 479 c 0,6,7
 158 439 158 439 185.5 415 c 128,-1,8
 213 391 213 391 252.5 379 c 128,-1,9
 292 367 292 367 331.5 352.5 c 128,-1,10
 371 338 371 338 398.5 306 c 128,-1,11
 426 274 426 274 426 222 c 0,12,13
 426 112 426 112 363 51 c 128,-1,14
 300 -10 300 -10 194 -10 c 0,15,16
 127 -10 127 -10 76 15.5 c 128,-1,17
 25 41 25 41 25 76 c 0,18,19
 25 114 25 114 77 137 c 1,20,21
 90 100 90 100 131 76.5 c 128,-1,22
 172 53 172 53 218 53 c 0,23,24
 273 53 273 53 313.5 90.5 c 128,-1,25
 354 128 354 128 354 194 c 0,26,27
 354 233 354 233 326.5 255.5 c 128,-1,28
 299 278 299 278 259.5 289.5 c 128,-1,29
 220 301 220 301 180 315.5 c 128,-1,30
 140 330 140 330 112.5 365 c 128,-1,31
 85 400 85 400 85 457 c 0,32,33
 85 558 85 558 149 614.5 c 128,-1,34
 213 671 213 671 310 671 c 0,35,36
 365 671 365 671 412.5 649 c 128,-1,37
 460 627 460 627 460 588 c 0,38,39
 460 542 460 542 402 531 c 1,0,1
EndSplineSet
EndChar

StartChar: T
Encoding: 84 84 55
Width: 408
GlyphClass: 2
Flags: W
LayerCount: 2
Fore
SplineSet
46 598 m 1,0,1
 45 604 45 604 45 613 c 0,2,3
 45 638 45 638 55.5 648.5 c 128,-1,4
 66 659 66 659 90 660 c 0,5,6
 113 661 113 661 187 661 c 2,7,-1
 293 661 l 2,8,9
 434 661 434 661 466 664 c 1,10,11
 468 654 468 654 468 644 c 0,12,13
 468 623 468 623 457.5 614 c 128,-1,14
 447 605 447 605 423 603 c 1,15,16
 395 602 395 602 296 602 c 1,17,18
 274 468 274 468 266 404 c 2,19,-1
 240 203 l 2,20,21
 228 115 228 115 228 66 c 0,22,23
 228 32 228 32 232 5 c 1,24,25
 214 -3 214 -3 184 -3 c 0,26,27
 142 -3 142 -3 142 39 c 0,28,29
 142 51 142 51 154 136 c 128,-1,30
 166 221 166 221 183.5 357 c 128,-1,31
 201 493 201 493 212 602 c 1,32,33
 89 602 89 602 46 598 c 1,0,1
EndSplineSet
EndChar

StartChar: U
Encoding: 85 85 56
Width: 596
GlyphClass: 2
Flags: W
LayerCount: 2
Fore
SplineSet
450 274 m 1,0,1
 490 579 490 579 494 663 c 1,2,3
 510 666 510 666 535 666 c 0,4,5
 579 666 579 666 579 633 c 0,6,7
 579 628 579 628 574 600.5 c 128,-1,8
 569 573 569 573 560 517.5 c 128,-1,9
 551 462 551 462 544 404 c 2,10,-1
 518 203 l 2,11,12
 506 115 506 115 506 66 c 0,13,14
 506 32 506 32 510 5 c 1,15,16
 492 -3 492 -3 462 -3 c 0,17,18
 420 -3 420 -3 420 39 c 0,19,20
 420 48 420 48 432 132 c 1,21,22
 389 64 389 64 331.5 27 c 128,-1,23
 274 -10 274 -10 219 -10 c 0,24,25
 152 -10 152 -10 115.5 38 c 128,-1,26
 79 86 79 86 79 157 c 0,27,28
 79 182 79 182 104 371.5 c 128,-1,29
 129 561 129 561 134 663 c 1,30,31
 150 666 150 666 175 666 c 0,32,33
 219 666 219 666 219 633 c 0,34,35
 219 630 219 630 214.5 603 c 128,-1,36
 210 576 210 576 201.5 523.5 c 128,-1,37
 193 471 193 471 186 421 c 0,38,39
 156 200 156 200 156 164 c 0,40,41
 156 122 156 122 174.5 92 c 128,-1,42
 193 62 193 62 232 62 c 0,43,44
 287 62 287 62 352 122.5 c 128,-1,45
 417 183 417 183 450 274 c 1,0,1
EndSplineSet
EndChar

StartChar: V
Encoding: 86 86 57
Width: 550
GlyphClass: 2
Flags: W
LayerCount: 2
Fore
SplineSet
113 521 m 0,0,1
 113 594 113 594 86 650 c 1,2,3
 122 674 122 674 149 674 c 0,4,5
 200 674 200 674 200 579 c 0,6,7
 200 528 200 528 177 391.5 c 128,-1,8
 154 255 154 255 154 191 c 0,9,10
 154 85 154 85 191 48 c 1,11,12
 259 57 259 57 324.5 142 c 128,-1,13
 390 227 390 227 427.5 339.5 c 128,-1,14
 465 452 465 452 465 547 c 0,15,16
 465 609 465 609 448 653 c 1,17,18
 481 674 481 674 508 674 c 0,19,20
 560 674 560 674 560 594 c 0,21,22
 560 539 560 539 543.5 462.5 c 128,-1,23
 527 386 527 386 493.5 303.5 c 128,-1,24
 460 221 460 221 416.5 151 c 128,-1,25
 373 81 373 81 312.5 35.5 c 128,-1,26
 252 -10 252 -10 188 -10 c 0,27,28
 164 -10 164 -10 142 1 c 1,29,30
 80 67 80 67 80 191 c 0,31,32
 80 255 80 255 96.5 347 c 128,-1,33
 113 439 113 439 113 521 c 0,0,1
EndSplineSet
EndChar

StartChar: W
Encoding: 87 87 58
Width: 877
GlyphClass: 2
Flags: W
LayerCount: 2
Fore
SplineSet
113 521 m 0,0,1
 113 594 113 594 86 650 c 1,2,3
 122 674 122 674 149 674 c 0,4,5
 200 674 200 674 200 579 c 0,6,7
 200 528 200 528 177 391.5 c 128,-1,8
 154 255 154 255 154 191 c 0,9,10
 154 85 154 85 191 48 c 1,11,12
 257 57 257 57 319.5 137.5 c 128,-1,13
 382 218 382 218 418 324.5 c 128,-1,14
 454 431 454 431 454 521 c 0,15,16
 454 580 454 580 437 621 c 1,17,18
 471 641 471 641 497 641 c 0,19,20
 549 641 549 641 549 565 c 0,21,22
 549 460 549 460 495 318 c 1,23,24
 491 252 491 252 491 217 c 0,25,26
 491 85 491 85 529 48 c 1,27,28
 595 57 595 57 657.5 142 c 128,-1,29
 720 227 720 227 756 339.5 c 128,-1,30
 792 452 792 452 792 547 c 0,31,32
 792 609 792 609 775 653 c 1,33,34
 808 674 808 674 835 674 c 0,35,36
 887 674 887 674 887 594 c 0,37,38
 887 539 887 539 870.5 462.5 c 128,-1,39
 854 386 854 386 821.5 303.5 c 128,-1,40
 789 221 789 221 747 151 c 128,-1,41
 705 81 705 81 646 35.5 c 128,-1,42
 587 -10 587 -10 525 -10 c 0,43,44
 502 -10 502 -10 480 1 c 1,45,46
 425 58 425 58 419 159 c 1,47,48
 313 -10 313 -10 187 -10 c 0,49,50
 164 -10 164 -10 142 1 c 1,51,52
 80 67 80 67 80 191 c 0,53,54
 80 255 80 255 96.5 347 c 128,-1,55
 113 439 113 439 113 521 c 0,0,1
EndSplineSet
EndChar

StartChar: X
Encoding: 88 88 59
Width: 515
GlyphClass: 2
Flags: W
LayerCount: 2
Fore
SplineSet
505 46 m 1,0,1
 474 -10 474 -10 441 -10 c 0,2,3
 428 -10 428 -10 414 -1 c 128,-1,4
 400 8 400 8 387 27 c 128,-1,5
 374 46 374 46 362.5 66 c 128,-1,6
 351 86 351 86 338 116.5 c 128,-1,7
 325 147 325 147 315.5 170 c 128,-1,8
 306 193 306 193 292.5 227.5 c 128,-1,9
 279 262 279 262 271 281 c 1,10,11
 214 224 214 224 151 134 c 128,-1,12
 88 44 88 44 69 -10 c 1,13,14
 6 5 6 5 6 37 c 0,15,16
 6 55 6 55 22.5 84 c 128,-1,17
 39 113 39 113 72.5 154 c 128,-1,18
 106 195 106 195 129 221.5 c 128,-1,19
 152 248 152 248 195.5 294.5 c 128,-1,20
 239 341 239 341 245 348 c 1,21,22
 187 486 187 486 160 532 c 128,-1,23
 133 578 133 578 81 618 c 1,24,25
 103 657 103 657 125 669 c 0,26,27
 134 674 134 674 145 674 c 0,28,29
 159 674 159 674 173 664 c 128,-1,30
 187 654 187 654 202.5 630 c 128,-1,31
 218 606 218 606 228.5 587.5 c 128,-1,32
 239 569 239 569 255.5 530.5 c 128,-1,33
 272 492 272 492 279 474.5 c 128,-1,34
 286 457 286 457 302 415 c 1,35,36
 359 482 359 482 406 557.5 c 128,-1,37
 453 633 453 633 464 674 c 1,38,39
 530 658 530 658 530 623 c 0,40,41
 530 573 530 573 330 348 c 1,42,43
 358 272 358 272 373.5 232.5 c 128,-1,44
 389 193 389 193 426 134.5 c 128,-1,45
 463 76 463 76 505 46 c 1,0,1
EndSplineSet
EndChar

StartChar: Y
Encoding: 89 89 60
Width: 461
GlyphClass: 2
Flags: W
LayerCount: 2
Fore
SplineSet
50 619 m 1,0,1
 54 623 54 623 63.5 634 c 128,-1,2
 73 645 73 645 76.5 648 c 128,-1,3
 80 651 80 651 87 657 c 128,-1,4
 94 663 94 663 100 665 c 128,-1,5
 106 667 106 667 113 667 c 0,6,7
 140 667 140 667 154 633 c 1,8,9
 196 551 196 551 261 369 c 1,10,11
 312 433 312 433 371 534 c 128,-1,12
 430 635 430 635 437 672 c 1,13,14
 511 672 511 672 511 631 c 0,15,16
 511 606 511 606 430 493.5 c 128,-1,17
 349 381 349 381 282 302 c 1,18,-1
 269 203 l 2,19,20
 257 115 257 115 257 66 c 0,21,22
 257 32 257 32 261 5 c 1,23,24
 243 -3 243 -3 213 -3 c 0,25,26
 171 -3 171 -3 171 39 c 0,27,28
 171 45 171 45 174.5 70 c 128,-1,29
 178 95 178 95 187.5 163 c 128,-1,30
 197 231 197 231 206 302 c 1,31,32
 112 567 112 567 50 619 c 1,0,1
EndSplineSet
EndChar

StartChar: Z
Encoding: 90 90 61
Width: 511
GlyphClass: 2
Flags: W
LayerCount: 2
Fore
SplineSet
141 667 m 0,0,1
 170 667 170 667 270 653.5 c 128,-1,2
 370 640 370 640 418 640 c 0,3,4
 463 640 463 640 486 653 c 1,5,6
 509 630 509 630 509 595 c 0,7,8
 509 554 509 554 489 531 c 2,9,-1
 210 206 l 1,10,11
 153 138 153 138 116 82 c 1,12,13
 124 83 124 83 141 83 c 0,14,15
 178 83 178 83 261.5 70.5 c 128,-1,16
 345 58 345 58 380 58 c 0,17,18
 438 58 438 58 469 74 c 1,19,20
 480 55 480 55 480 41 c 0,21,22
 480 -10 480 -10 382 -10 c 0,23,24
 356 -10 356 -10 273.5 2.5 c 128,-1,25
 191 15 191 15 146 15 c 0,26,27
 99 15 99 15 67 3 c 1,28,29
 40 38 40 38 40 61 c 128,-1,30
 40 84 40 84 58 119 c 1,31,32
 117 224 117 224 428 575 c 1,33,34
 388 575 388 575 301.5 587.5 c 128,-1,35
 215 600 215 600 170 600 c 0,36,37
 124 600 124 600 86 581 c 1,38,39
 74 610 74 610 74 619 c 0,40,41
 74 667 74 667 141 667 c 0,0,1
EndSplineSet
EndChar

StartChar: bracketleft
Encoding: 91 91 62
Width: 381
GlyphClass: 2
Flags: W
LayerCount: 2
Fore
SplineSet
272 664 m 1,0,-1
 159 -134 l 1,1,2
 198 -132 198 -132 240 -132 c 0,3,4
 280 -132 280 -132 280 -159 c 0,5,6
 280 -172 280 -172 272 -190 c 1,7,-1
 86 -190 l 1,8,-1
 213 720 l 1,9,-1
 399 720 l 1,10,11
 401 710 401 710 401 704 c 0,12,13
 401 662 401 662 353 662 c 0,14,15
 308 662 308 662 272 664 c 1,0,-1
EndSplineSet
EndChar

StartChar: backslash
Encoding: 92 92 63
Width: 258
GlyphClass: 2
Flags: W
LayerCount: 2
Fore
SplineSet
129 113 m 1,0,1
 35 700 35 700 35 715 c 0,2,3
 35 742 35 742 71 742 c 0,4,5
 83 742 83 742 92 739 c 1,6,7
 100 653 100 653 122 507 c 2,8,-1
 171 194 l 2,9,10
 216 -87 216 -87 216 -94 c 0,11,12
 216 -122 216 -122 183 -122 c 0,13,14
 172 -122 172 -122 159 -119 c 1,15,16
 151 -33 151 -33 129 113 c 1,0,1
EndSplineSet
EndChar

StartChar: bracketright
Encoding: 93 93 64
Width: 360
GlyphClass: 2
Flags: W
LayerCount: 2
Fore
SplineSet
107 -134 m 1,0,-1
 220 664 l 1,1,2
 182 662 182 662 139 662 c 0,3,4
 99 662 99 662 99 689 c 0,5,6
 99 702 99 702 107 720 c 1,7,-1
 293 720 l 1,8,-1
 166 -190 l 1,9,-1
 -19 -190 l 1,10,11
 -20 -184 -20 -184 -20 -174 c 0,12,13
 -20 -132 -20 -132 28 -132 c 0,14,15
 70 -132 70 -132 107 -134 c 1,0,-1
EndSplineSet
EndChar

StartChar: asciicircum
Encoding: 94 94 65
Width: 470
GlyphClass: 2
Flags: W
LayerCount: 2
Fore
SplineSet
236 582 m 1,0,1
 82 417 82 417 52 417 c 0,2,3
 41 417 41 417 25 433 c 1,4,5
 48 472 48 472 119.5 552 c 128,-1,6
 191 632 191 632 235 675 c 1,7,8
 279 632 279 632 350.5 552 c 128,-1,9
 422 472 422 472 445 433 c 1,10,11
 429 417 429 417 419 417 c 0,12,13
 413 417 413 417 402 423.5 c 128,-1,14
 391 430 391 430 376.5 442.5 c 128,-1,15
 362 455 362 455 348 467.5 c 128,-1,16
 334 480 334 480 316 498.5 c 128,-1,17
 298 517 298 517 286.5 529 c 128,-1,18
 275 541 275 541 258 559 c 128,-1,19
 241 577 241 577 236 582 c 1,0,1
EndSplineSet
EndChar

StartChar: underscore
Encoding: 95 95 66
Width: 535
GlyphClass: 2
Flags: W
LayerCount: 2
Fore
SplineSet
535 -110 m 0,0,1
 535 -128 535 -128 525 -140 c 128,-1,2
 515 -152 515 -152 499 -152 c 0,3,4
 484 -152 484 -152 430 -148 c 128,-1,5
 376 -144 376 -144 348 -144 c 2,6,-1
 205 -144 l 2,7,8
 91 -144 91 -144 3 -152 c 1,9,10
 0 -137 0 -137 0 -122 c 0,11,12
 0 -106 0 -106 9 -93 c 128,-1,13
 18 -80 18 -80 36 -80 c 0,14,15
 39 -80 39 -80 99 -83.5 c 128,-1,16
 159 -87 159 -87 203 -87 c 2,17,-1
 345 -87 l 2,18,19
 472 -87 472 -87 532 -80 c 1,20,21
 535 -89 535 -89 535 -110 c 0,0,1
EndSplineSet
EndChar

StartChar: grave
Encoding: 96 96 67
Width: 201
GlyphClass: 2
Flags: W
LayerCount: 2
Fore
SplineSet
-26 619 m 0,0,1
 -51 635 -51 635 -51 655 c 0,2,3
 -51 682 -51 682 -16 701 c 1,4,5
 -4 686 -4 686 17 667 c 128,-1,6
 38 648 38 648 56 634 c 128,-1,7
 74 620 74 620 95 604 c 128,-1,8
 116 588 116 588 120 585 c 0,9,10
 139 571 139 571 139 557 c 0,11,12
 139 541 139 541 123 525 c 1,13,14
 110 536 110 536 54 569.5 c 128,-1,15
 -2 603 -2 603 -26 619 c 0,0,1
EndSplineSet
EndChar

StartChar: a
Encoding: 97 97 68
Width: 476
GlyphClass: 2
Flags: W
LayerCount: 2
Fore
SplineSet
319 104 m 1,0,1
 290 49 290 49 248 19.5 c 128,-1,2
 206 -10 206 -10 161 -10 c 0,3,4
 102 -10 102 -10 65 35.5 c 128,-1,5
 28 81 28 81 28 166 c 0,6,7
 28 292 28 292 92.5 383 c 128,-1,8
 157 474 157 474 251 474 c 0,9,10
 353 474 353 474 430 417 c 1,11,12
 384 193 384 193 384 99 c 0,13,14
 384 58 384 58 416 36 c 1,15,16
 402 -10 402 -10 365 -10 c 0,17,18
 318 -10 318 -10 318 71 c 0,19,20
 318 93 318 93 319 104 c 1,0,1
326 189 m 1,21,22
 339 279 339 279 355 379 c 1,23,24
 304 424 304 424 252 424 c 0,25,26
 189 424 189 424 147.5 357 c 128,-1,27
 106 290 106 290 106 183 c 0,28,29
 106 123 106 123 125.5 81.5 c 128,-1,30
 145 40 145 40 181 40 c 0,31,32
 214 40 214 40 256 81.5 c 128,-1,33
 298 123 298 123 326 189 c 1,21,22
EndSplineSet
EndChar

StartChar: b
Encoding: 98 98 69
Width: 474
GlyphClass: 2
Flags: W
LayerCount: 2
Fore
SplineSet
43 46 m 1,0,1
 64 164 64 164 94 377.5 c 128,-1,2
 124 591 124 591 124 637 c 0,3,4
 124 686 124 686 103 691 c 1,5,6
 105 706 105 706 120.5 724 c 128,-1,7
 136 742 136 742 155 742 c 0,8,9
 199 742 199 742 199 676 c 0,10,11
 199 608 199 608 164 389 c 1,12,13
 190 429 190 429 228.5 451.5 c 128,-1,14
 267 474 267 474 304 474 c 0,15,16
 366 474 366 474 405.5 425.5 c 128,-1,17
 445 377 445 377 445 290 c 0,18,19
 445 170 445 170 381 80 c 128,-1,20
 317 -10 317 -10 211 -10 c 0,21,22
 124 -10 124 -10 43 46 c 1,0,1
150 294 m 1,23,24
 150 290 150 290 118 84 c 1,25,26
 166 39 166 39 217 39 c 0,27,28
 279 39 279 39 323 101 c 128,-1,29
 367 163 367 163 367 271 c 0,30,31
 367 332 367 332 344.5 378 c 128,-1,32
 322 424 322 424 284 424 c 0,33,34
 254 424 254 424 216 388 c 128,-1,35
 178 352 178 352 150 294 c 1,23,24
EndSplineSet
EndChar

StartChar: c
Encoding: 99 99 70
Width: 413
GlyphClass: 2
Flags: W
LayerCount: 2
Fore
SplineSet
355 354 m 1,0,1
 346 387 346 387 318 403 c 128,-1,2
 290 419 290 419 263 419 c 0,3,4
 197 419 197 419 157.5 353 c 128,-1,5
 118 287 118 287 118 195 c 0,6,7
 118 117 118 117 148.5 78.5 c 128,-1,8
 179 40 179 40 225 40 c 0,9,10
 290 40 290 40 330 102 c 1,11,12
 361 83 361 83 361 60 c 0,13,14
 361 30 361 30 319 10 c 128,-1,15
 277 -10 277 -10 222 -10 c 0,16,17
 134 -10 134 -10 86.5 39 c 128,-1,18
 39 88 39 88 39 180 c 0,19,20
 39 319 39 319 113 396.5 c 128,-1,21
 187 474 187 474 280 474 c 0,22,23
 324 474 324 474 363.5 456 c 128,-1,24
 403 438 403 438 403 403 c 0,25,26
 403 362 403 362 355 354 c 1,0,1
EndSplineSet
EndChar

StartChar: d
Encoding: 100 100 71
Width: 477
GlyphClass: 2
Flags: W
LayerCount: 2
Fore
SplineSet
365 426 m 1,0,1
 391 605 391 605 391 639 c 0,2,3
 391 686 391 686 371 691 c 1,4,5
 373 705 373 705 389 723.5 c 128,-1,6
 405 742 405 742 424 742 c 0,7,8
 467 742 467 742 467 679 c 0,9,10
 467 642 467 642 427.5 382 c 128,-1,11
 388 122 388 122 388 99 c 0,12,13
 388 58 388 58 420 36 c 1,14,15
 406 -10 406 -10 369 -10 c 0,16,17
 319 -10 319 -10 319 71 c 0,18,19
 319 94 319 94 320 104 c 1,20,21
 291 49 291 49 249 19.5 c 128,-1,22
 207 -10 207 -10 162 -10 c 0,23,24
 103 -10 103 -10 66 35.5 c 128,-1,25
 29 81 29 81 29 166 c 0,26,27
 29 292 29 292 93.5 383 c 128,-1,28
 158 474 158 474 252 474 c 0,29,30
 308 474 308 474 365 426 c 1,0,1
329 189 m 1,31,-1
 357 378 l 1,32,33
 302 425 302 425 256 425 c 0,34,35
 190 425 190 425 148.5 358 c 128,-1,36
 107 291 107 291 107 183 c 0,37,38
 107 123 107 123 126.5 81.5 c 128,-1,39
 146 40 146 40 182 40 c 0,40,41
 215 40 215 40 258 81.5 c 128,-1,42
 301 123 301 123 329 189 c 1,31,-1
EndSplineSet
EndChar

StartChar: e
Encoding: 101 101 72
Width: 421
GlyphClass: 2
Flags: W
LayerCount: 2
Fore
SplineSet
320 102 m 1,0,1
 351 83 351 83 351 60 c 0,2,3
 351 30 351 30 309 10 c 128,-1,4
 267 -10 267 -10 212 -10 c 0,5,6
 124 -10 124 -10 76.5 39 c 128,-1,7
 29 88 29 88 29 180 c 0,8,9
 29 318 29 318 103.5 396 c 128,-1,10
 178 474 178 474 267 474 c 0,11,12
 327 474 327 474 359 444.5 c 128,-1,13
 391 415 391 415 391 370 c 0,14,15
 391 321 391 321 371 285 c 128,-1,16
 351 249 351 249 323.5 230.5 c 128,-1,17
 296 212 296 212 258 201 c 128,-1,18
 220 190 220 190 194 187.5 c 128,-1,19
 168 185 168 185 141 185 c 0,20,21
 128 185 128 185 108 187 c 1,22,23
 112 112 112 112 141 76 c 128,-1,24
 170 40 170 40 215 40 c 0,25,26
 280 40 280 40 320 102 c 1,0,1
313 359 m 0,27,28
 313 387 313 387 296.5 406 c 128,-1,29
 280 425 280 425 250 425 c 0,30,31
 197 425 197 425 156.5 369.5 c 128,-1,32
 116 314 116 314 109 228 c 1,33,34
 137 228 137 228 156.5 229.5 c 128,-1,35
 176 231 176 231 208.5 238.5 c 128,-1,36
 241 246 241 246 261 258.5 c 128,-1,37
 281 271 281 271 297 297 c 128,-1,38
 313 323 313 323 313 359 c 0,27,28
EndSplineSet
EndChar

StartChar: f
Encoding: 102 102 73
Width: 316
GlyphClass: 2
Flags: W
LayerCount: 2
Fore
SplineSet
368 598 m 1,0,1
 351 657 351 657 283 657 c 0,2,3
 235 657 235 657 209 600.5 c 128,-1,4
 183 544 183 544 178 464 c 1,5,6
 251 464 251 464 314 469 c 1,7,8
 317 458 317 458 317 449 c 0,9,10
 317 412 317 412 269 411 c 0,11,12
 246 410 246 410 172 410 c 1,13,14
 143 65 143 65 118 -34 c 0,15,16
 93 -131 93 -131 47 -131 c 0,17,18
 32 -131 32 -131 19 -118.5 c 128,-1,19
 6 -106 6 -106 0 -84 c 1,20,21
 24 -77 24 -77 43 -28.5 c 128,-1,22
 62 20 62 20 74 101.5 c 128,-1,23
 86 183 86 183 92 251 c 128,-1,24
 98 319 98 319 104 409 c 1,25,26
 72 408 72 408 41 404 c 1,27,28
 39 418 39 418 39 422 c 0,29,30
 39 465 39 465 97 465 c 2,31,-1
 110 465 l 1,32,33
 117 577 117 577 164 645.5 c 128,-1,34
 211 714 211 714 305 714 c 0,35,36
 348 714 348 714 382 697.5 c 128,-1,37
 416 681 416 681 416 647 c 0,38,39
 416 606 416 606 368 598 c 1,0,1
EndSplineSet
EndChar

StartChar: g
Encoding: 103 103 74
Width: 455
GlyphClass: 2
Flags: W
LayerCount: 2
Fore
SplineSet
181 40 m 0,0,1
 214 40 214 40 255 80.5 c 128,-1,2
 296 121 296 121 326 189 c 1,3,4
 339 279 339 279 355 379 c 1,5,6
 307 424 307 424 252 424 c 0,7,8
 185 424 185 424 145.5 353 c 128,-1,9
 106 282 106 282 106 183 c 0,10,11
 106 119 106 119 126.5 79.5 c 128,-1,12
 147 40 147 40 181 40 c 0,0,1
251 475 m 0,13,14
 354 475 354 475 430 418 c 1,15,16
 383 222 383 222 364 40 c 0,17,18
 348 -117 348 -117 298 -185 c 128,-1,19
 248 -253 248 -253 126 -253 c 0,20,21
 75 -253 75 -253 40 -237 c 128,-1,22
 5 -221 5 -221 5 -194 c 0,23,24
 5 -162 5 -162 49 -141 c 1,25,26
 58 -169 58 -169 83.5 -186 c 128,-1,27
 109 -203 109 -203 142 -203 c 0,28,29
 287 -203 287 -203 305 80 c 1,30,31
 275 33 275 33 235.5 11.5 c 128,-1,32
 196 -10 196 -10 161 -10 c 0,33,34
 95 -10 95 -10 61.5 41 c 128,-1,35
 28 92 28 92 28 166 c 0,36,37
 28 291 28 291 92.5 383 c 128,-1,38
 157 475 157 475 251 475 c 0,13,14
EndSplineSet
EndChar

StartChar: h
Encoding: 104 104 75
Width: 465
GlyphClass: 2
Flags: W
LayerCount: 2
Fore
SplineSet
164 382 m 1,0,1
 194 425 194 425 235 449.5 c 128,-1,2
 276 474 276 474 314 474 c 0,3,4
 364 474 364 474 391.5 440 c 128,-1,5
 419 406 419 406 419 351 c 0,6,7
 419 332 419 332 400 227.5 c 128,-1,8
 381 123 381 123 381 99 c 0,9,10
 381 58 381 58 413 36 c 1,11,12
 399 -10 399 -10 362 -10 c 0,13,14
 312 -10 312 -10 312 81 c 0,15,16
 312 124 312 124 330.5 225.5 c 128,-1,17
 349 327 349 327 349 347 c 0,18,19
 349 382 349 382 335.5 402.5 c 128,-1,20
 322 423 322 423 298 423 c 0,21,22
 259 423 259 423 212 377.5 c 128,-1,23
 165 332 165 332 145 273 c 1,24,25
 124 112 124 112 124 60 c 0,26,27
 124 30 124 30 127 5 c 1,28,29
 109 -3 109 -3 85 -3 c 0,30,31
 46 -3 46 -3 46 31 c 128,-1,32
 46 65 46 65 87 337 c 128,-1,33
 128 609 128 609 128 639 c 0,34,35
 128 686 128 686 108 691 c 1,36,37
 110 705 110 705 126 723.5 c 128,-1,38
 142 742 142 742 161 742 c 0,39,40
 204 742 204 742 204 679 c 0,41,42
 204 618 204 618 164 382 c 1,0,1
EndSplineSet
EndChar

StartChar: i
Encoding: 105 105 76
Width: 201
GlyphClass: 2
Flags: W
LayerCount: 2
Fore
SplineSet
132 521 m 0,0,1
 113 521 113 521 101 534 c 128,-1,2
 89 547 89 547 89 568 c 0,3,4
 89 593 89 593 106 610.5 c 128,-1,5
 123 628 123 628 145 628 c 0,6,7
 163 628 163 628 175.5 614 c 128,-1,8
 188 600 188 600 188 579 c 0,9,10
 188 555 188 555 170 538 c 128,-1,11
 152 521 152 521 132 521 c 0,0,1
120 474 m 0,12,13
 163 474 163 474 163 411 c 0,14,15
 163 374 163 374 137 248 c 128,-1,16
 111 122 111 122 111 99 c 0,17,18
 111 58 111 58 143 36 c 1,19,20
 129 -10 129 -10 92 -10 c 0,21,22
 42 -10 42 -10 42 81 c 0,23,24
 42 128 42 128 64.5 228.5 c 128,-1,25
 87 329 87 329 87 371 c 0,26,27
 87 418 87 418 67 423 c 1,28,29
 69 437 69 437 85 455.5 c 128,-1,30
 101 474 101 474 120 474 c 0,12,13
EndSplineSet
EndChar

StartChar: j
Encoding: 106 106 77
Width: 218
GlyphClass: 2
Flags: W
LayerCount: 2
Fore
SplineSet
145 521 m 0,0,1
 126 521 126 521 114 534 c 128,-1,2
 102 547 102 547 102 568 c 0,3,4
 102 593 102 593 119 610.5 c 128,-1,5
 136 628 136 628 158 628 c 0,6,7
 176 628 176 628 188.5 614 c 128,-1,8
 201 600 201 600 201 579 c 0,9,10
 201 555 201 555 183 538 c 128,-1,11
 165 521 165 521 145 521 c 0,0,1
133 474 m 0,12,13
 176 474 176 474 176 411 c 0,14,15
 176 339 176 339 120 -9 c 0,16,17
 102 -124 102 -124 55 -188.5 c 128,-1,18
 8 -253 8 -253 -90 -253 c 0,19,20
 -135 -253 -135 -253 -166.5 -237 c 128,-1,21
 -198 -221 -198 -221 -198 -194 c 0,22,23
 -198 -162 -198 -162 -154 -141 c 1,24,25
 -147 -169 -147 -169 -125.5 -186 c 128,-1,26
 -104 -203 -104 -203 -77 -203 c 0,27,28
 19 -203 19 -203 47 -30 c 0,29,30
 100 293 100 293 100 371 c 0,31,32
 100 418 100 418 80 423 c 1,33,34
 82 437 82 437 98 455.5 c 128,-1,35
 114 474 114 474 133 474 c 0,12,13
EndSplineSet
EndChar

StartChar: k
Encoding: 107 107 78
Width: 452
GlyphClass: 2
Flags: W
LayerCount: 2
Fore
SplineSet
158 371 m 1,0,1
 224 474 224 474 319 474 c 0,2,3
 374 474 374 474 403.5 445.5 c 128,-1,4
 433 417 433 417 433 373 c 0,5,6
 433 312 433 312 387 256 c 128,-1,7
 341 200 341 200 271 195 c 1,8,9
 308 108 308 108 326 84 c 0,10,11
 347 55 347 55 384 55 c 0,12,13
 397 55 397 55 412 58 c 1,14,15
 416 38 416 38 416 32 c 0,16,17
 416 -10 416 -10 352 -10 c 0,18,19
 336 -10 336 -10 321 -3.5 c 128,-1,20
 306 3 306 3 293.5 17 c 128,-1,21
 281 31 281 31 271 44.5 c 128,-1,22
 261 58 261 58 250.5 81 c 128,-1,23
 240 104 240 104 233.5 119 c 128,-1,24
 227 134 227 134 216.5 160 c 128,-1,25
 206 186 206 186 201 198 c 1,26,27
 178 206 178 206 178 219 c 0,28,29
 178 231 178 231 191 246 c 1,30,31
 220 233 220 233 246 233 c 0,32,33
 293 233 293 233 323.5 269 c 128,-1,34
 354 305 354 305 354 352 c 0,35,36
 354 383 354 383 339.5 403.5 c 128,-1,37
 325 424 325 424 296 424 c 0,38,39
 262 424 262 424 214 379.5 c 128,-1,40
 166 335 166 335 145 273 c 1,41,42
 124 112 124 112 124 60 c 0,43,44
 124 30 124 30 127 5 c 1,45,46
 109 -3 109 -3 85 -3 c 0,47,48
 46 -3 46 -3 46 31 c 0,49,50
 46 43 46 43 53 94 c 128,-1,51
 60 145 60 145 71.5 221 c 128,-1,52
 83 297 83 297 88 335 c 0,53,54
 123 586 123 586 123 639 c 0,55,56
 123 686 123 686 103 691 c 1,57,58
 105 705 105 705 121 723.5 c 128,-1,59
 137 742 137 742 156 742 c 0,60,61
 199 742 199 742 199 679 c 0,62,63
 199 655 199 655 190.5 591 c 128,-1,64
 182 527 182 527 171 456.5 c 128,-1,65
 160 386 160 386 158 371 c 1,0,1
EndSplineSet
EndChar

StartChar: l
Encoding: 108 108 79
Width: 204
GlyphClass: 2
Flags: W
LayerCount: 2
Fore
SplineSet
151 742 m 0,0,1
 194 742 194 742 194 679 c 0,2,3
 194 642 194 642 154.5 382 c 128,-1,4
 115 122 115 122 115 99 c 0,5,6
 115 58 115 58 147 36 c 1,7,8
 133 -10 133 -10 96 -10 c 0,9,10
 46 -10 46 -10 46 81 c 0,11,12
 46 128 46 128 82 363 c 128,-1,13
 118 598 118 598 118 639 c 0,14,15
 118 686 118 686 98 691 c 1,16,17
 100 705 100 705 116 723.5 c 128,-1,18
 132 742 132 742 151 742 c 0,0,1
EndSplineSet
EndChar

StartChar: m
Encoding: 109 109 80
Width: 705
GlyphClass: 2
Flags: W
LayerCount: 2
Fore
SplineSet
395 273 m 1,0,1
 374 112 374 112 374 60 c 0,2,3
 374 30 374 30 377 5 c 1,4,5
 359 -3 359 -3 335 -3 c 0,6,7
 296 -3 296 -3 296 31 c 0,8,9
 296 48 296 48 317 188.5 c 128,-1,10
 338 329 338 329 338 348 c 0,11,12
 338 385 338 385 324 404 c 128,-1,13
 310 423 310 423 289 423 c 0,14,15
 252 423 252 423 207.5 377.5 c 128,-1,16
 163 332 163 332 145 273 c 1,17,18
 124 112 124 112 124 60 c 0,19,20
 124 30 124 30 127 5 c 1,21,22
 109 -3 109 -3 85 -3 c 0,23,24
 46 -3 46 -3 46 31 c 0,25,26
 46 48 46 48 68 195.5 c 128,-1,27
 90 343 90 343 90 369 c 0,28,29
 90 417 90 417 69 423 c 1,30,31
 71 437 71 437 87 455.5 c 128,-1,32
 103 474 103 474 122 474 c 0,33,34
 163 474 163 474 163 412 c 0,35,36
 163 394 163 394 160 376 c 1,37,38
 189 423 189 423 229.5 448.5 c 128,-1,39
 270 474 270 474 307 474 c 0,40,41
 351 474 351 474 376.5 444 c 128,-1,42
 402 414 402 414 406 366 c 1,43,44
 433 416 433 416 476.5 445 c 128,-1,45
 520 474 520 474 559 474 c 0,46,47
 606 474 606 474 632.5 439.5 c 128,-1,48
 659 405 659 405 659 351 c 0,49,50
 659 332 659 332 641 227.5 c 128,-1,51
 623 123 623 123 623 99 c 0,52,53
 623 57 623 57 653 36 c 1,54,55
 639 -10 639 -10 602 -10 c 0,56,57
 552 -10 552 -10 552 81 c 0,58,59
 552 124 552 124 570.5 225.5 c 128,-1,60
 589 327 589 327 589 347 c 0,61,62
 589 382 589 382 576 402.5 c 128,-1,63
 563 423 563 423 541 423 c 0,64,65
 504 423 504 423 458.5 377.5 c 128,-1,66
 413 332 413 332 395 273 c 1,0,1
EndSplineSet
EndChar

StartChar: n
Encoding: 110 110 81
Width: 465
GlyphClass: 2
Flags: W
LayerCount: 2
Fore
SplineSet
145 273 m 1,0,1
 124 112 124 112 124 60 c 0,2,3
 124 30 124 30 127 5 c 1,4,5
 109 -3 109 -3 85 -3 c 0,6,7
 46 -3 46 -3 46 31 c 0,8,9
 46 45 46 45 68 194.5 c 128,-1,10
 90 344 90 344 90 368 c 0,11,12
 90 414 90 414 69 423 c 1,13,14
 71 437 71 437 87 455.5 c 128,-1,15
 103 474 103 474 122 474 c 0,16,17
 163 474 163 474 163 412 c 0,18,19
 163 394 163 394 160 376 c 1,20,21
 190 423 190 423 232.5 448.5 c 128,-1,22
 275 474 275 474 314 474 c 0,23,24
 364 474 364 474 391.5 440 c 128,-1,25
 419 406 419 406 419 351 c 0,26,27
 419 332 419 332 400 227.5 c 128,-1,28
 381 123 381 123 381 99 c 0,29,30
 381 58 381 58 413 36 c 1,31,32
 399 -10 399 -10 362 -10 c 0,33,34
 312 -10 312 -10 312 81 c 0,35,36
 312 124 312 124 330.5 225.5 c 128,-1,37
 349 327 349 327 349 347 c 0,38,39
 349 382 349 382 335.5 402.5 c 128,-1,40
 322 423 322 423 298 423 c 0,41,42
 259 423 259 423 212 377.5 c 128,-1,43
 165 332 165 332 145 273 c 1,0,1
EndSplineSet
EndChar

StartChar: o
Encoding: 111 111 82
Width: 475
GlyphClass: 2
Flags: W
LayerCount: 2
Fore
SplineSet
203 -10 m 0,0,1
 121 -10 121 -10 75 41 c 128,-1,2
 29 92 29 92 29 181 c 0,3,4
 29 304 29 304 96.5 389 c 128,-1,5
 164 474 164 474 268 474 c 0,6,7
 351 474 351 474 398.5 422.5 c 128,-1,8
 446 371 446 371 446 281 c 0,9,10
 446 159 446 159 376.5 74.5 c 128,-1,11
 307 -10 307 -10 203 -10 c 0,0,1
262 424 m 0,12,13
 190 424 190 424 148.5 354.5 c 128,-1,14
 107 285 107 285 107 194 c 0,15,16
 107 127 107 127 134.5 83.5 c 128,-1,17
 162 40 162 40 213 40 c 0,18,19
 285 40 285 40 326 108 c 128,-1,20
 367 176 367 176 367 266 c 0,21,22
 367 335 367 335 340 379.5 c 128,-1,23
 313 424 313 424 262 424 c 0,12,13
EndSplineSet
EndChar

StartChar: p
Encoding: 112 112 83
Width: 475
GlyphClass: 2
Flags: W
LayerCount: 2
Fore
SplineSet
151 294 m 1,0,1
 147 266 147 266 141 231.5 c 128,-1,2
 135 197 135 197 127.5 152.5 c 128,-1,3
 120 108 120 108 116 84 c 1,4,5
 162 39 162 39 214 39 c 0,6,7
 277 39 277 39 322.5 104 c 128,-1,8
 368 169 368 169 368 281 c 0,9,10
 368 346 368 346 346.5 385 c 128,-1,11
 325 424 325 424 288 424 c 0,12,13
 258 424 258 424 219 388 c 128,-1,14
 180 352 180 352 151 294 c 1,0,1
123 475 m 0,15,16
 166 475 166 475 166 412 c 0,17,18
 166 407 166 407 164 383 c 1,19,20
 223 474 223 474 308 474 c 0,21,22
 369 474 369 474 407.5 431 c 128,-1,23
 446 388 446 388 446 298 c 0,24,25
 446 165 446 165 376.5 77.5 c 128,-1,26
 307 -10 307 -10 219 -10 c 0,27,28
 158 -10 158 -10 108 34 c 1,29,30
 82 -115 82 -115 82 -147 c 128,-1,31
 82 -179 82 -179 109 -211 c 1,32,33
 83 -253 83 -253 55 -253 c 0,34,35
 29 -253 29 -253 21 -233 c 128,-1,36
 13 -213 13 -213 13 -175 c 0,37,38
 13 -116 13 -116 51.5 106 c 128,-1,39
 90 328 90 328 90 370 c 0,40,41
 90 419 90 419 70 424 c 1,42,43
 72 438 72 438 88 456.5 c 128,-1,44
 104 475 104 475 123 475 c 0,15,16
EndSplineSet
EndChar

StartChar: q
Encoding: 113 113 84
Width: 456
GlyphClass: 2
Flags: W
LayerCount: 2
Fore
SplineSet
327 189 m 1,0,1
 340 279 340 279 356 379 c 1,2,3
 305 424 305 424 253 424 c 0,4,5
 190 424 190 424 148.5 357 c 128,-1,6
 107 290 107 290 107 183 c 0,7,8
 107 123 107 123 126.5 81.5 c 128,-1,9
 146 40 146 40 182 40 c 0,10,11
 215 40 215 40 257 81.5 c 128,-1,12
 299 123 299 123 327 189 c 1,0,1
431 417 m 1,13,14
 411 340 411 340 374 115.5 c 128,-1,15
 337 -109 337 -109 337 -145 c 0,16,17
 337 -186 337 -186 369 -208 c 1,18,19
 355 -254 355 -254 318 -254 c 0,20,21
 268 -254 268 -254 268 -163 c 0,22,23
 268 -118 268 -118 306 80 c 1,24,25
 247 -10 247 -10 162 -10 c 0,26,27
 103 -10 103 -10 66 35.5 c 128,-1,28
 29 81 29 81 29 166 c 0,29,30
 29 292 29 292 93.5 383 c 128,-1,31
 158 474 158 474 252 474 c 0,32,33
 354 474 354 474 431 417 c 1,13,14
EndSplineSet
EndChar

StartChar: r
Encoding: 114 114 85
Width: 332
GlyphClass: 2
Flags: W
LayerCount: 2
Fore
SplineSet
142 256 m 1,0,1
 123 111 123 111 123 60 c 0,2,3
 123 30 123 30 126 5 c 1,4,5
 108 -3 108 -3 84 -3 c 0,6,7
 45 -3 45 -3 45 31 c 0,8,9
 45 47 45 47 81 289 c 0,10,11
 90 356 90 356 90 371 c 0,12,13
 90 418 90 418 70 423 c 1,14,15
 72 437 72 437 88 455.5 c 128,-1,16
 104 474 104 474 123 474 c 0,17,18
 164 474 164 474 164 412 c 0,19,20
 164 392 164 392 158 356 c 1,21,22
 174 394 174 394 218 434 c 128,-1,23
 262 474 262 474 302 474 c 0,24,25
 343 474 343 474 343 437 c 0,26,27
 343 406 343 406 317 383 c 1,28,29
 299 402 299 402 275 402 c 0,30,31
 245 402 245 402 215 373 c 128,-1,32
 185 344 185 344 168.5 313.5 c 128,-1,33
 152 283 152 283 142 256 c 1,0,1
EndSplineSet
EndChar

StartChar: s
Encoding: 115 115 86
Width: 368
GlyphClass: 2
Flags: W
LayerCount: 2
Fore
SplineSet
296 354 m 1,0,1
 290 383 290 383 260.5 401 c 128,-1,2
 231 419 231 419 196 419 c 0,3,4
 160 419 160 419 133 398 c 128,-1,5
 106 377 106 377 106 339 c 0,6,7
 106 310 106 310 128.5 293.5 c 128,-1,8
 151 277 151 277 183.5 269.5 c 128,-1,9
 216 262 216 262 248 251.5 c 128,-1,10
 280 241 280 241 302.5 213.5 c 128,-1,11
 325 186 325 186 325 140 c 0,12,13
 325 66 325 66 273 28 c 128,-1,14
 221 -10 221 -10 140 -10 c 0,15,16
 86 -10 86 -10 45.5 11 c 128,-1,17
 5 32 5 32 5 63 c 0,18,19
 5 100 5 100 52 112 c 1,20,21
 58 80 58 80 90.5 63 c 128,-1,22
 123 46 123 46 167 46 c 0,23,24
 214 46 214 46 241 67.5 c 128,-1,25
 268 89 268 89 268 120 c 0,26,27
 268 150 268 150 245.5 168 c 128,-1,28
 223 186 223 186 190.5 195.5 c 128,-1,29
 158 205 158 205 125.5 216 c 128,-1,30
 93 227 93 227 70.5 253.5 c 128,-1,31
 48 280 48 280 48 322 c 0,32,33
 48 398 48 398 100 436.5 c 128,-1,34
 152 475 152 475 226 475 c 0,35,36
 268 475 268 475 305.5 456.5 c 128,-1,37
 343 438 343 438 343 404 c 0,38,39
 343 366 343 366 296 354 c 1,0,1
EndSplineSet
EndChar

StartChar: t
Encoding: 116 116 87
Width: 314
GlyphClass: 2
Flags: W
LayerCount: 2
Fore
SplineSet
76 465 m 2,0,-1
 109 465 l 1,1,2
 110 479 110 479 116 521.5 c 128,-1,3
 122 564 122 564 123 576 c 1,4,5
 141 580 141 580 155 580 c 0,6,7
 194 580 194 580 194 549 c 0,8,9
 194 543 194 543 191 527 c 128,-1,10
 188 511 188 511 184.5 491 c 128,-1,11
 181 471 181 471 180 464 c 1,12,13
 270 464 270 464 338 469 c 1,14,15
 341 458 341 458 341 449 c 0,16,17
 341 412 341 412 293 411 c 0,18,19
 261 410 261 410 171 410 c 1,20,21
 134 157 134 157 134 120 c 0,22,23
 134 74 134 74 149.5 58.5 c 128,-1,24
 165 43 165 43 199 43 c 0,25,26
 234 43 234 43 271 73 c 1,27,28
 287 57 287 57 287 39 c 0,29,30
 287 15 287 15 259 2.5 c 128,-1,31
 231 -10 231 -10 193 -10 c 0,32,33
 68 -10 68 -10 68 125 c 0,34,35
 68 147 68 147 74 193 c 128,-1,36
 80 239 80 239 90 307.5 c 128,-1,37
 100 376 100 376 104 410 c 1,38,39
 86 410 86 410 20 404 c 1,40,41
 18 418 18 418 18 422 c 0,42,43
 18 465 18 465 76 465 c 2,0,-1
EndSplineSet
EndChar

StartChar: u
Encoding: 117 117 88
Width: 473
GlyphClass: 2
Flags: W
LayerCount: 2
Fore
SplineSet
318 104 m 1,0,1
 293 56 293 56 250.5 23 c 128,-1,2
 208 -10 208 -10 158 -10 c 128,-1,3
 108 -10 108 -10 80.5 24 c 128,-1,4
 53 58 53 58 53 113 c 0,5,6
 53 132 53 132 72 236.5 c 128,-1,7
 91 341 91 341 91 365 c 0,8,9
 91 415 91 415 70 423 c 1,10,11
 74 440 74 440 89 457 c 128,-1,12
 104 474 104 474 123 474 c 0,13,14
 148 474 148 474 155.5 454.5 c 128,-1,15
 163 435 163 435 163 394 c 0,16,17
 163 351 163 351 143 249.5 c 128,-1,18
 123 148 123 148 123 117 c 0,19,20
 123 82 123 82 136.5 61.5 c 128,-1,21
 150 41 150 41 174 41 c 0,22,23
 213 41 213 41 260 86.5 c 128,-1,24
 307 132 307 132 327 191 c 1,25,26
 357 390 357 390 361 464 c 1,27,28
 379 469 379 469 394 469 c 0,29,30
 433 469 433 469 433 437 c 0,31,32
 433 427 433 427 408 277 c 128,-1,33
 383 127 383 127 383 93 c 0,34,35
 383 56 383 56 415 36 c 1,36,37
 410 19 410 19 397.5 4.5 c 128,-1,38
 385 -10 385 -10 365 -10 c 0,39,40
 317 -10 317 -10 317 70 c 0,41,42
 317 93 317 93 318 104 c 1,0,1
EndSplineSet
EndChar

StartChar: v
Encoding: 118 118 89
Width: 402
GlyphClass: 2
Flags: W
LayerCount: 2
Fore
SplineSet
71 366 m 0,0,1
 71 417 71 417 52 457 c 1,2,3
 84 474 84 474 106 474 c 0,4,5
 150 474 150 474 150 407 c 0,6,7
 150 371 150 371 134 274 c 128,-1,8
 118 177 118 177 118 132 c 0,9,10
 118 68 118 68 137 40 c 1,11,12
 177 44 177 44 214.5 81 c 128,-1,13
 252 118 252 118 276 169 c 128,-1,14
 300 220 300 220 314.5 273.5 c 128,-1,15
 329 327 329 327 329 366 c 0,16,17
 329 428 329 428 314 459 c 1,18,19
 340 474 340 474 363 474 c 0,20,21
 402 474 402 474 402 409 c 0,22,23
 402 362 402 362 381.5 293 c 128,-1,24
 361 224 361 224 326.5 155.5 c 128,-1,25
 292 87 292 87 238 38.5 c 128,-1,26
 184 -10 184 -10 127 -10 c 0,27,28
 107 -10 107 -10 91 -2 c 1,29,30
 51 41 51 41 51 132 c 0,31,32
 51 177 51 177 61 242.5 c 128,-1,33
 71 308 71 308 71 366 c 0,0,1
EndSplineSet
EndChar

StartChar: w
Encoding: 119 119 90
Width: 627
GlyphClass: 2
Flags: W
LayerCount: 2
Fore
SplineSet
71 366 m 0,0,1
 71 417 71 417 52 457 c 1,2,3
 84 474 84 474 106 474 c 0,4,5
 150 474 150 474 150 407 c 0,6,7
 150 371 150 371 134 274 c 128,-1,8
 118 177 118 177 118 132 c 0,9,10
 118 69 118 69 136 40 c 1,11,12
 186 44 186 44 229.5 101.5 c 128,-1,13
 273 159 273 159 295 227 c 128,-1,14
 317 295 317 295 317 346 c 0,15,16
 317 403 317 403 302 433 c 1,17,18
 328 448 328 448 351 448 c 0,19,20
 390 448 390 448 390 386 c 0,21,22
 390 330 390 330 360 245 c 1,23,24
 360 235 360 235 357.5 197 c 128,-1,25
 355 159 355 159 355 138 c 0,26,27
 355 71 355 71 373 40 c 1,28,29
 423 45 423 45 466.5 106 c 128,-1,30
 510 167 510 167 532 239.5 c 128,-1,31
 554 312 554 312 554 366 c 0,32,33
 554 428 554 428 539 459 c 1,34,35
 564 474 564 474 588 474 c 0,36,37
 627 474 627 474 627 409 c 0,38,39
 627 362 627 362 607 293 c 128,-1,40
 587 224 587 224 554 155.5 c 128,-1,41
 521 87 521 87 469 38.5 c 128,-1,42
 417 -10 417 -10 361 -10 c 0,43,44
 342 -10 342 -10 327 -2 c 1,45,46
 294 34 294 34 289 101 c 1,47,48
 213 -10 213 -10 124 -10 c 0,49,50
 105 -10 105 -10 90 -2 c 1,51,52
 51 41 51 41 51 132 c 0,53,54
 51 177 51 177 61 242.5 c 128,-1,55
 71 308 71 308 71 366 c 0,0,1
EndSplineSet
EndChar

StartChar: x
Encoding: 120 120 91
Width: 398
GlyphClass: 2
Flags: W
LayerCount: 2
Fore
SplineSet
48 400 m 1,0,1
 44 414 44 414 44 424 c 0,2,3
 44 445 44 445 56.5 459.5 c 128,-1,4
 69 474 69 474 87 474 c 0,5,6
 152 474 152 474 220 287 c 1,7,8
 306 398 306 398 315 473 c 1,9,10
 319 474 319 474 328 474 c 0,11,12
 348 474 348 474 359.5 464 c 128,-1,13
 371 454 371 454 371 438 c 0,14,15
 371 391 371 391 240 241 c 1,16,17
 247 225 247 225 258 197 c 128,-1,18
 269 169 269 169 275 154 c 128,-1,19
 281 139 281 139 291.5 119 c 128,-1,20
 302 99 302 99 311 89 c 128,-1,21
 320 79 320 79 333.5 71.5 c 128,-1,22
 347 64 347 64 363 64 c 1,23,24
 367 50 367 50 367 40 c 0,25,26
 367 19 367 19 354.5 4.5 c 128,-1,27
 342 -10 342 -10 324 -10 c 0,28,29
 303 -10 303 -10 282 10 c 128,-1,30
 261 30 261 30 241 68 c 128,-1,31
 221 106 221 106 211.5 127.5 c 128,-1,32
 202 149 202 149 187 185 c 1,33,34
 72 59 72 59 63 -6 c 1,35,36
 59 -7 59 -7 52 -7 c 0,37,38
 33 -7 33 -7 22 3.5 c 128,-1,39
 11 14 11 14 11 31 c 0,40,41
 11 81 11 81 168 231 c 1,42,43
 164 241 164 241 156.5 261 c 128,-1,44
 149 281 149 281 145 290.5 c 128,-1,45
 141 300 141 300 134 316 c 128,-1,46
 127 332 127 332 122.5 340 c 128,-1,47
 118 348 118 348 111 359.5 c 128,-1,48
 104 371 104 371 98 377 c 128,-1,49
 92 383 92 383 84 389 c 128,-1,50
 76 395 76 395 67 397.5 c 128,-1,51
 58 400 58 400 48 400 c 1,0,1
EndSplineSet
EndChar

StartChar: y
Encoding: 121 121 92
Width: 411
GlyphClass: 2
Flags: W
LayerCount: 2
Fore
SplineSet
204 72 m 1,0,1
 321 265 321 265 321 395 c 0,2,3
 321 423 321 423 307 459 c 1,4,5
 333 474 333 474 354 474 c 0,6,7
 396 474 396 474 396 408 c 0,8,9
 396 333 396 333 345 216.5 c 128,-1,10
 294 100 294 100 222 -7 c 0,11,12
 142 -126 142 -126 81 -178 c 128,-1,13
 20 -230 20 -230 -71 -230 c 0,14,15
 -116 -230 -116 -230 -148 -214 c 128,-1,16
 -180 -198 -180 -198 -180 -171 c 0,17,18
 -180 -139 -180 -139 -136 -118 c 1,19,20
 -128 -146 -128 -146 -103.5 -163 c 128,-1,21
 -79 -180 -79 -180 -48 -180 c 0,22,23
 -18 -180 -18 -180 11 -165.5 c 128,-1,24
 40 -151 40 -151 66 -123 c 128,-1,25
 92 -95 92 -95 110.5 -70.5 c 128,-1,26
 129 -46 129 -46 152 -10 c 1,27,28
 146 73 146 73 104 233 c 128,-1,29
 62 393 62 393 13 435 c 1,30,31
 41 474 41 474 71 474 c 0,32,33
 104 474 104 474 121 426 c 0,34,35
 157 325 157 325 204 72 c 1,0,1
EndSplineSet
EndChar

StartChar: z
Encoding: 122 122 93
Width: 391
GlyphClass: 2
Flags: W
LayerCount: 2
Fore
SplineSet
103 474 m 0,0,1
 125 474 125 474 200.5 464.5 c 128,-1,2
 276 455 276 455 312 455 c 0,3,4
 351 455 351 455 369 464 c 1,5,6
 386 448 386 448 386 422 c 0,7,8
 386 395 386 395 369 377 c 0,9,10
 179 175 179 175 96 67 c 1,11,12
 102 68 102 68 113 68 c 0,13,14
 139 68 139 68 194.5 59 c 128,-1,15
 250 50 250 50 274 50 c 0,16,17
 314 50 314 50 338 62 c 1,18,19
 346 49 346 49 346 31 c 0,20,21
 346 -10 346 -10 273 -10 c 0,22,23
 253 -10 253 -10 192 -1 c 128,-1,24
 131 8 131 8 97 8 c 0,25,26
 57 8 57 8 30 -1 c 1,27,28
 11 25 11 25 11 41 c 0,29,30
 11 59 11 59 24 82 c 0,31,32
 69 158 69 158 295 401 c 1,33,34
 267 401 267 401 211 407.5 c 128,-1,35
 155 414 155 414 124 414 c 0,36,37
 92 414 92 414 64 400 c 1,38,39
 56 419 56 419 56 435 c 0,40,41
 56 474 56 474 103 474 c 0,0,1
EndSplineSet
EndChar

StartChar: braceleft
Encoding: 123 123 94
Width: 417
GlyphClass: 2
Flags: W
LayerCount: 2
Fore
SplineSet
181 286 m 1,0,1
 202 278 202 278 218.5 250.5 c 128,-1,2
 235 223 235 223 235 193 c 0,3,4
 235 179 235 179 219.5 71.5 c 128,-1,5
 204 -36 204 -36 204 -48 c 0,6,7
 204 -67 204 -67 218.5 -75 c 128,-1,8
 233 -83 233 -83 274 -83 c 0,9,10
 319 -83 319 -83 319 -110 c 0,11,12
 319 -125 319 -125 310 -141 c 1,13,14
 297 -142 297 -142 274 -142 c 0,15,16
 198 -142 198 -142 168 -122 c 128,-1,17
 138 -102 138 -102 138 -59 c 0,18,19
 138 -39 138 -39 153.5 71.5 c 128,-1,20
 169 182 169 182 169 186 c 0,21,22
 169 215 169 215 143.5 238 c 128,-1,23
 118 261 118 261 66 261 c 1,24,-1
 73 311 l 1,25,26
 129 311 129 311 161.5 338 c 128,-1,27
 194 365 194 365 199 395 c 1,28,29
 199 394 199 394 205.5 441 c 128,-1,30
 212 488 212 488 220 542 c 128,-1,31
 228 596 228 596 229 604 c 0,32,33
 237 662 237 662 272.5 688.5 c 128,-1,34
 308 715 308 715 395 715 c 0,35,36
 418 715 418 715 431 714 c 1,37,38
 432 711 432 711 432 705 c 0,39,40
 432 656 432 656 384 656 c 0,41,42
 330 656 330 656 313.5 643.5 c 128,-1,43
 297 631 297 631 293 592 c 1,44,-1
 264 393 l 2,45,46
 260 361 260 361 233.5 328 c 128,-1,47
 207 295 207 295 181 286 c 1,0,1
EndSplineSet
EndChar

StartChar: bar
Encoding: 124 124 95
Width: 574
GlyphClass: 2
Flags: W
LayerCount: 2
Fore
SplineSet
257 136 m 2,0,-1
 257 444 l 2,1,2
 257 680 257 680 249 733 c 1,3,4
 265 736 265 736 279 736 c 0,5,6
 325 736 325 736 325 698 c 0,7,8
 325 694 325 694 323.5 644.5 c 128,-1,9
 322 595 322 595 320 513.5 c 128,-1,10
 318 432 318 432 318 351 c 2,11,-1
 318 43 l 2,12,13
 318 -193 318 -193 326 -246 c 1,14,15
 310 -249 310 -249 296 -249 c 0,16,17
 250 -249 250 -249 250 -211 c 0,18,19
 250 -207 250 -207 252 -157.5 c 128,-1,20
 254 -108 254 -108 255.5 -26.5 c 128,-1,21
 257 55 257 55 257 136 c 2,0,-1
EndSplineSet
EndChar

StartChar: braceright
Encoding: 125 125 96
Width: 417
GlyphClass: 2
Flags: W
LayerCount: 2
Fore
SplineSet
234 286 m 1,0,1
 213 294 213 294 196.5 323 c 128,-1,2
 180 352 180 352 180 381 c 0,3,4
 180 385 180 385 195.5 496 c 128,-1,5
 211 607 211 607 211 621 c 0,6,7
 211 640 211 640 196.5 648 c 128,-1,8
 182 656 182 656 141 656 c 0,9,10
 97 656 97 656 97 683 c 0,11,12
 97 698 97 698 106 714 c 1,13,14
 119 715 119 715 142 715 c 0,15,16
 218 715 218 715 248 695 c 128,-1,17
 278 675 278 675 278 632 c 0,18,19
 278 616 278 616 262.5 505 c 128,-1,20
 247 394 247 394 247 387 c 0,21,22
 247 358 247 358 272.5 334.5 c 128,-1,23
 298 311 298 311 350 311 c 1,24,-1
 343 261 l 1,25,26
 287 261 287 261 254.5 234.5 c 128,-1,27
 222 208 222 208 217 178 c 1,28,29
 217 179 217 179 210 131.5 c 128,-1,30
 203 84 203 84 196 32 c 128,-1,31
 189 -20 189 -20 187 -31 c 0,32,33
 179 -89 179 -89 143.5 -115.5 c 128,-1,34
 108 -142 108 -142 21 -142 c 0,35,36
 -1 -142 -1 -142 -14 -141 c 1,37,38
 -15 -138 -15 -138 -15 -131 c 0,39,40
 -15 -104 -15 -104 -3 -93.5 c 128,-1,41
 9 -83 9 -83 37 -83 c 0,42,43
 89 -83 89 -83 103 -70.5 c 128,-1,44
 117 -58 117 -58 122 -19 c 2,45,-1
 151 180 l 2,46,47
 156 211 156 211 182.5 244 c 128,-1,48
 209 277 209 277 234 286 c 1,0,1
EndSplineSet
EndChar

StartChar: asciitilde
Encoding: 126 126 97
Width: 546
GlyphClass: 2
Flags: W
LayerCount: 2
Fore
SplineSet
40 267 m 0,0,1
 40 329 40 329 138 329 c 0,2,3
 189 329 189 329 268.5 309 c 128,-1,4
 348 289 348 289 385 289 c 0,5,6
 451 289 451 289 487 324 c 1,7,8
 506 299 506 299 506 275 c 0,9,10
 506 243 506 243 470 228 c 128,-1,11
 434 213 434 213 385 213 c 0,12,13
 354 213 354 213 278 233 c 128,-1,14
 202 253 202 253 161 253 c 0,15,16
 95 253 95 253 59 218 c 1,17,18
 40 243 40 243 40 267 c 0,0,1
EndSplineSet
EndChar

StartChar: exclamdown
Encoding: 161 161 98
Width: 296
GlyphClass: 2
Flags: W
LayerCount: 2
Fore
SplineSet
186 475 m 0,0,1
 207 475 207 475 221.5 460.5 c 128,-1,2
 236 446 236 446 236 422 c 0,3,4
 236 393 236 393 216 370.5 c 128,-1,5
 196 348 196 348 170 348 c 0,6,7
 149 348 149 348 135 363.5 c 128,-1,8
 121 379 121 379 121 402 c 0,9,10
 121 432 121 432 140 453.5 c 128,-1,11
 159 475 159 475 186 475 c 0,0,1
60 -181 m 0,12,13
 60 -165 60 -165 68.5 -125 c 128,-1,14
 77 -85 77 -85 89.5 -21.5 c 128,-1,15
 102 42 102 42 110 98 c 1,16,17
 123 203 123 203 123 222 c 0,18,19
 123 247 123 247 119 266 c 1,20,21
 141 276 141 276 158 276 c 0,22,23
 193 276 193 276 193 239 c 0,24,25
 193 232 193 232 173 56.5 c 128,-1,26
 153 -119 153 -119 153 -185 c 0,27,28
 153 -204 153 -204 154 -211 c 1,29,30
 122 -219 122 -219 101 -219 c 0,31,32
 60 -219 60 -219 60 -181 c 0,12,13
EndSplineSet
EndChar

StartChar: cent
Encoding: 162 162 99
Width: 574
GlyphClass: 2
Flags: W
LayerCount: 2
Fore
SplineSet
156 288 m 0,0,1
 156 224 156 224 186.5 185 c 128,-1,2
 217 146 217 146 265 132 c 1,3,-1
 320 518 l 1,4,5
 251 500 251 500 203.5 439.5 c 128,-1,6
 156 379 156 379 156 288 c 0,0,1
356 684 m 0,7,8
 380 684 380 684 380 664 c 0,9,10
 380 662 380 662 378.5 651.5 c 128,-1,11
 377 641 377 641 373.5 619 c 128,-1,12
 370 597 370 597 368 581 c 1,13,-1
 376 581 l 2,14,15
 404 581 404 581 436.5 574 c 128,-1,16
 469 567 469 567 496 549 c 128,-1,17
 523 531 523 531 523 506 c 0,18,19
 523 488 523 488 510 474.5 c 128,-1,20
 497 461 497 461 474 456 c 1,21,22
 434 525 434 525 370 525 c 2,23,-1
 360 525 l 1,24,-1
 304 126 l 1,25,-1
 314 126 l 2,26,27
 378 126 378 126 437 195 c 1,28,29
 474 187 474 187 474 156 c 0,30,31
 474 128 474 128 441 107 c 128,-1,32
 408 86 408 86 371 78 c 128,-1,33
 334 70 334 70 304 70 c 2,34,-1
 297 70 l 1,35,36
 292 29 292 29 290 -14 c 1,37,-1
 274 -16 l 1,38,39
 248 -16 248 -16 248 9 c 0,40,41
 248 18 248 18 257 73 c 1,42,43
 181 85 181 85 133 135 c 128,-1,44
 85 185 85 185 85 276 c 0,45,46
 85 403 85 403 155 481.5 c 128,-1,47
 225 560 225 560 328 577 c 1,48,49
 338 659 338 659 338 681 c 1,50,51
 350 684 350 684 356 684 c 0,7,8
EndSplineSet
EndChar

StartChar: sterling
Encoding: 163 163 100
Width: 574
GlyphClass: 2
Flags: W
LayerCount: 2
Fore
SplineSet
447 392 m 1,0,1
 449 378 449 378 449 372 c 0,2,3
 449 350 449 350 434.5 341 c 128,-1,4
 420 332 420 332 387 332 c 0,5,6
 369 332 369 332 317 334 c 1,7,-1
 317 328 l 2,8,9
 317 254 317 254 282.5 198.5 c 128,-1,10
 248 143 248 143 147 69 c 1,11,12
 164 68 164 68 219.5 57 c 128,-1,13
 275 46 275 46 319 46 c 0,14,15
 354 46 354 46 382.5 68.5 c 128,-1,16
 411 91 411 91 411 122 c 1,17,-1
 417 122 l 2,18,19
 470 122 470 122 470 77 c 0,20,21
 470 37 470 37 428.5 17 c 128,-1,22
 387 -3 387 -3 337 -3 c 0,23,24
 283 -3 283 -3 217.5 11 c 128,-1,25
 152 25 152 25 117 25 c 0,26,27
 110 25 110 25 104 23 c 1,28,29
 86 -3 86 -3 61 -3 c 0,30,31
 50 -3 50 -3 42.5 4 c 128,-1,32
 35 11 35 11 35 22 c 0,33,34
 35 38 35 38 52.5 52.5 c 128,-1,35
 70 67 70 67 106 73 c 1,36,37
 178 147 178 147 208 195.5 c 128,-1,38
 238 244 238 244 238 300 c 0,39,40
 238 320 238 320 234 336 c 1,41,-1
 214 336 l 2,42,43
 178 336 178 336 112 332 c 1,44,45
 111 338 111 338 111 347 c 1,46,47
 115 370 115 370 149 373 c 1,48,49
 161 373 161 373 188 374.5 c 128,-1,50
 215 376 215 376 221 376 c 1,51,52
 218 386 218 386 210.5 406.5 c 128,-1,53
 203 427 203 427 199 439 c 128,-1,54
 195 451 195 451 191.5 468 c 128,-1,55
 188 485 188 485 188 499 c 0,56,57
 188 562 188 562 241.5 618.5 c 128,-1,58
 295 675 295 675 369 675 c 0,59,60
 397 675 397 675 419.5 660.5 c 128,-1,61
 442 646 442 646 442 621 c 0,62,63
 442 586 442 586 399 568 c 1,64,65
 381 608 381 608 334 608 c 0,66,67
 303 608 303 608 280.5 586.5 c 128,-1,68
 258 565 258 565 258 529 c 0,69,70
 258 503 258 503 281 449.5 c 128,-1,71
 304 396 304 396 309 380 c 1,72,73
 389 384 389 384 447 392 c 1,0,1
EndSplineSet
EndChar

StartChar: yen
Encoding: 165 165 101
Width: 574
GlyphClass: 2
Flags: W
LayerCount: 2
Fore
SplineSet
222 196 m 1,0,-1
 213 196 l 2,1,2
 115 196 115 196 61 191 c 1,3,4
 60 195 60 195 60 201 c 0,5,6
 60 235 60 235 89 235 c 2,7,-1
 227 235 l 1,8,-1
 237 306 l 1,9,-1
 227 306 l 2,10,11
 128 306 128 306 76 301 c 1,12,13
 75 305 75 305 75 313 c 0,14,15
 75 345 75 345 104 345 c 2,16,-1
 224 345 l 1,17,18
 220 356 220 356 175 463 c 1,19,20
 129 577 129 577 75 628 c 1,21,22
 104 668 104 668 134 668 c 0,23,24
 153 668 153 668 171 632 c 0,25,26
 242 490 242 490 289 363 c 1,27,28
 342 426 342 426 406 530 c 128,-1,29
 470 634 470 634 477 671 c 1,30,31
 480 672 480 672 491 672 c 0,32,33
 529 672 529 672 529 642 c 0,34,35
 529 615 529 615 467.5 523 c 128,-1,36
 406 431 406 431 336 345 c 1,37,38
 422 345 422 345 473 350 c 1,39,-1
 473 343 l 2,40,41
 473 306 473 306 443 306 c 2,42,-1
 300 306 l 1,43,-1
 290 235 l 1,44,-1
 305 235 l 2,45,46
 404 235 404 235 458 240 c 1,47,-1
 458 232 l 2,48,49
 458 196 458 196 429 196 c 2,50,-1
 286 196 l 1,51,52
 273 94 273 94 273 58 c 0,53,54
 273 31 273 31 277 5 c 1,55,56
 259 -3 259 -3 241 -3 c 0,57,58
 200 -3 200 -3 200 33 c 0,59,60
 200 40 200 40 202.5 59.5 c 128,-1,61
 205 79 205 79 211 119 c 128,-1,62
 217 159 217 159 222 196 c 1,0,-1
EndSplineSet
EndChar

StartChar: brokenbar
Encoding: 166 166 102
Width: 574
GlyphClass: 2
Flags: W
LayerCount: 2
Fore
SplineSet
257 534 m 2,0,-1
 257 564 l 2,1,2
 257 681 257 681 249 734 c 1,3,4
 265 737 265 737 279 737 c 0,5,6
 325 737 325 737 325 699 c 0,7,8
 325 694 325 694 321.5 627 c 128,-1,9
 318 560 318 560 318 528 c 2,10,-1
 318 489 l 2,11,12
 318 369 318 369 326 297 c 1,13,14
 310 294 310 294 296 294 c 0,15,16
 250 294 250 294 250 332 c 0,17,18
 250 337 250 337 253.5 419 c 128,-1,19
 257 501 257 501 257 534 c 2,0,-1
257 -9 m 2,20,-1
 257 22 l 2,21,22
 257 139 257 139 249 192 c 1,23,24
 265 195 265 195 279 195 c 0,25,26
 325 195 325 195 325 157 c 0,27,28
 325 152 325 152 321.5 85.5 c 128,-1,29
 318 19 318 19 318 -14 c 2,30,-1
 318 -54 l 2,31,32
 318 -174 318 -174 326 -246 c 1,33,34
 310 -249 310 -249 296 -249 c 0,35,36
 250 -249 250 -249 250 -211 c 0,37,38
 250 -206 250 -206 253.5 -124 c 128,-1,39
 257 -42 257 -42 257 -9 c 2,20,-1
EndSplineSet
EndChar

StartChar: section
Encoding: 167 167 103
Width: 415
GlyphClass: 2
Flags: W
LayerCount: 2
Fore
SplineSet
132 339 m 0,0,1
 132 304 132 304 161 281 c 128,-1,2
 190 258 190 258 236 234.5 c 128,-1,3
 282 211 282 211 304 188 c 1,4,5
 326 217 326 217 326 257 c 0,6,7
 326 293 326 293 297 315 c 128,-1,8
 268 337 268 337 222 359 c 128,-1,9
 176 381 176 381 154 406 c 1,10,11
 132 378 132 378 132 339 c 0,0,1
72 311 m 0,12,13
 72 387 72 387 132 440 c 1,14,15
 119 469 119 469 119 507 c 0,16,17
 119 583 119 583 170.5 627.5 c 128,-1,18
 222 672 222 672 296 672 c 0,19,20
 338 672 338 672 376.5 653 c 128,-1,21
 415 634 415 634 415 600 c 0,22,23
 415 564 415 564 367 551 c 1,24,25
 361 580 361 580 331 598 c 128,-1,26
 301 616 301 616 266 616 c 0,27,28
 228 616 228 616 202.5 594 c 128,-1,29
 177 572 177 572 177 530 c 0,30,31
 177 496 177 496 198.5 471.5 c 128,-1,32
 220 447 220 447 251 431.5 c 128,-1,33
 282 416 282 416 312.5 399 c 128,-1,34
 343 382 343 382 364.5 353.5 c 128,-1,35
 386 325 386 325 386 284 c 0,36,37
 386 207 386 207 327 155 c 1,38,39
 340 129 340 129 340 96 c 0,40,41
 340 12 340 12 286 -33 c 128,-1,42
 232 -78 232 -78 157 -78 c 0,43,44
 102 -78 102 -78 61.5 -56.5 c 128,-1,45
 21 -35 21 -35 21 -3 c 0,46,47
 21 31 21 31 69 44 c 1,48,49
 81 -21 81 -21 185 -21 c 0,50,51
 226 -21 226 -21 253.5 2.5 c 128,-1,52
 281 26 281 26 281 72 c 0,53,54
 281 105 281 105 259.5 128.5 c 128,-1,55
 238 152 238 152 207 167.5 c 128,-1,56
 176 183 176 183 145.5 199 c 128,-1,57
 115 215 115 215 93.5 243 c 128,-1,58
 72 271 72 271 72 311 c 0,12,13
EndSplineSet
EndChar

StartChar: dieresis
Encoding: 168 168 104
Width: 257
GlyphClass: 2
Flags: W
LayerCount: 2
Fore
SplineSet
82 521 m 0,0,1
 63 521 63 521 51 534 c 128,-1,2
 39 547 39 547 39 568 c 0,3,4
 39 593 39 593 56 610.5 c 128,-1,5
 73 628 73 628 95 628 c 0,6,7
 113 628 113 628 125.5 614 c 128,-1,8
 138 600 138 600 138 579 c 0,9,10
 138 555 138 555 120 538 c 128,-1,11
 102 521 102 521 82 521 c 0,0,1
249 521 m 0,12,13
 230 521 230 521 218 534 c 128,-1,14
 206 547 206 547 206 568 c 0,15,16
 206 593 206 593 223 610.5 c 128,-1,17
 240 628 240 628 262 628 c 0,18,19
 280 628 280 628 292.5 614 c 128,-1,20
 305 600 305 600 305 579 c 0,21,22
 305 555 305 555 287 538 c 128,-1,23
 269 521 269 521 249 521 c 0,12,13
EndSplineSet
EndChar

StartChar: copyright
Encoding: 169 169 105
Width: 888
GlyphClass: 2
Flags: W
LayerCount: 2
Fore
SplineSet
617 157 m 0,0,1
 617 133 617 133 580 115.5 c 128,-1,2
 543 98 543 98 493 98 c 0,3,4
 455 98 455 98 419.5 109.5 c 128,-1,5
 384 121 384 121 352.5 145.5 c 128,-1,6
 321 170 321 170 302 214.5 c 128,-1,7
 283 259 283 259 283 318 c 0,8,9
 283 431 283 431 345.5 489.5 c 128,-1,10
 408 548 408 548 487 548 c 0,11,12
 514 548 514 548 542.5 540 c 128,-1,13
 571 532 571 532 594.5 512.5 c 128,-1,14
 618 493 618 493 618 467 c 0,15,16
 618 433 618 433 575 427 c 1,17,18
 566 458 566 458 538.5 473.5 c 128,-1,19
 511 489 511 489 480 489 c 0,20,21
 432 489 432 489 399.5 445 c 128,-1,22
 367 401 367 401 367 330 c 0,23,24
 367 240 367 240 407 198.5 c 128,-1,25
 447 157 447 157 502 157 c 0,26,27
 561 157 561 157 588 195 c 1,28,29
 617 179 617 179 617 157 c 0,0,1
750 320 m 0,30,31
 750 452 750 452 670.5 534.5 c 128,-1,32
 591 617 591 617 477 617 c 0,33,34
 361 617 361 617 281.5 535 c 128,-1,35
 202 453 202 453 202 320 c 128,-1,36
 202 187 202 187 281.5 105 c 128,-1,37
 361 23 361 23 477 23 c 0,38,39
 591 23 591 23 670.5 105 c 128,-1,40
 750 187 750 187 750 320 c 0,30,31
822 320 m 0,41,42
 822 170 822 170 721.5 68 c 128,-1,43
 621 -34 621 -34 477 -34 c 0,44,45
 330 -34 330 -34 230 67.5 c 128,-1,46
 130 169 130 169 130 320 c 0,47,48
 130 472 130 472 230 573 c 128,-1,49
 330 674 330 674 477 674 c 0,50,51
 622 674 622 674 722 573 c 128,-1,52
 822 472 822 472 822 320 c 0,41,42
EndSplineSet
EndChar

StartChar: ordfeminine
Encoding: 170 170 106
Width: 309
GlyphClass: 2
Flags: W
LayerCount: 2
Fore
SplineSet
140 301 m 0,0,1
 209 301 209 301 242 308 c 1,2,3
 243 304 243 304 243 297 c 0,4,5
 243 280 243 280 232 268 c 128,-1,6
 221 256 221 256 204 256 c 0,7,8
 196 256 196 256 166.5 260 c 128,-1,9
 137 264 137 264 122 264 c 0,10,11
 61 264 61 264 13 256 c 1,12,13
 12 260 12 260 12 267 c 0,14,15
 12 308 12 308 51 308 c 0,16,17
 53 308 53 308 84.5 304.5 c 128,-1,18
 116 301 116 301 140 301 c 0,0,1
103 573 m 1,19,20
 76 580 76 580 76 595 c 0,21,22
 76 617 76 617 107.5 630 c 128,-1,23
 139 643 139 643 175 643 c 0,24,25
 218 643 218 643 239 628.5 c 128,-1,26
 260 614 260 614 260 577 c 0,27,28
 260 560 260 560 251 498.5 c 128,-1,29
 242 437 242 437 242 413 c 0,30,31
 242 402 242 402 244 384 c 1,32,33
 236 380 236 380 220 380 c 0,34,35
 196 380 196 380 196 404 c 1,36,37
 160 376 160 376 123 376 c 0,38,39
 48 376 48 376 48 438 c 0,40,41
 48 499 48 499 107 516 c 0,42,43
 150 528 150 528 212 530 c 1,44,45
 215 550 215 550 215 563 c 0,46,47
 215 588 215 588 203 598.5 c 128,-1,48
 191 609 191 609 162 609 c 0,49,50
 122 609 122 609 103 573 c 1,19,20
208 503 m 1,51,52
 201 502 201 502 187.5 500.5 c 128,-1,53
 174 499 174 499 167.5 498 c 128,-1,54
 161 497 161 497 150 495 c 128,-1,55
 139 493 139 493 134 491.5 c 128,-1,56
 129 490 129 490 121.5 487 c 128,-1,57
 114 484 114 484 110.5 480 c 128,-1,58
 107 476 107 476 103 471.5 c 128,-1,59
 99 467 99 467 97.5 460.5 c 128,-1,60
 96 454 96 454 96 446 c 0,61,62
 96 409 96 409 135 409 c 0,63,64
 169 409 169 409 196 434 c 1,65,-1
 200 459 l 2,66,67
 206 496 206 496 208 503 c 1,51,52
EndSplineSet
EndChar

StartChar: guillemotleft
Encoding: 171 171 107
Width: 472
GlyphClass: 2
Flags: W
LayerCount: 2
Fore
SplineSet
328 235 m 1,0,1
 356 192 356 192 383.5 141 c 128,-1,2
 411 90 411 90 411 74 c 0,3,4
 411 59 411 59 387 44 c 1,5,6
 324 103 324 103 249 235 c 1,7,8
 366 371 366 371 440 426 c 1,9,10
 457 413 457 413 457 403 c 0,11,12
 457 375 457 375 328 235 c 1,0,1
139 235 m 1,13,14
 167 192 167 192 194.5 141 c 128,-1,15
 222 90 222 90 222 74 c 0,16,17
 222 59 222 59 198 44 c 1,18,19
 135 103 135 103 60 235 c 1,20,21
 177 371 177 371 251 426 c 1,22,23
 268 413 268 413 268 403 c 0,24,25
 268 375 268 375 139 235 c 1,13,14
EndSplineSet
EndChar

StartChar: logicalnot
Encoding: 172 172 108
Width: 574
GlyphClass: 2
Flags: W
LayerCount: 2
Fore
SplineSet
473 324 m 1,0,-1
 475 102 l 2,1,2
 475 74 475 74 466 62.5 c 128,-1,3
 457 51 457 51 431 51 c 0,4,5
 413 51 413 51 397 59 c 1,6,7
 414 115 414 115 414 236 c 2,8,-1
 414 272 l 1,9,-1
 183 272 l 2,10,11
 127 272 127 272 83 257 c 1,12,13
 76 274 76 274 76 287 c 0,14,15
 76 324 76 324 118 324 c 2,16,-1
 473 324 l 1,0,-1
EndSplineSet
EndChar

StartChar: registered
Encoding: 174 174 109
Width: 607
GlyphClass: 2
Flags: W
LayerCount: 2
Fore
SplineSet
498 440 m 128,-1,1
 498 522 498 522 449 572.5 c 128,-1,2
 400 623 400 623 329 623 c 0,3,4
 257 623 257 623 208 572.5 c 128,-1,5
 159 522 159 522 159 440 c 128,-1,6
 159 358 159 358 208 307.5 c 128,-1,7
 257 257 257 257 329 257 c 0,8,9
 400 257 400 257 449 307.5 c 128,-1,0
 498 358 498 358 498 440 c 128,-1,1
557 440 m 128,-1,11
 557 341 557 341 490.5 274 c 128,-1,12
 424 207 424 207 329 207 c 0,13,14
 232 207 232 207 166 274 c 128,-1,15
 100 341 100 341 100 440 c 0,16,17
 100 540 100 540 166 606.5 c 128,-1,18
 232 673 232 673 329 673 c 0,19,20
 424 673 424 673 490.5 606 c 128,-1,10
 557 539 557 539 557 440 c 128,-1,11
410 360 m 0,21,22
 418 352 418 352 432 352 c 1,23,24
 434 348 434 348 434 341 c 0,25,26
 434 323 434 323 410 323 c 0,27,28
 383 323 383 323 366 348 c 0,29,30
 363 353 363 353 342.5 380.5 c 128,-1,31
 322 408 322 408 315 420 c 1,32,33
 303 420 303 420 293 423 c 1,34,-1
 293 397 l 2,35,36
 293 353 293 353 301 330 c 1,37,38
 292 325 292 325 271 325 c 0,39,40
 240 325 240 325 240 348 c 0,41,42
 240 351 240 351 241 374 c 128,-1,43
 242 397 242 397 242 408 c 2,44,-1
 242 477 l 2,45,46
 242 529 242 529 238 558 c 1,47,48
 300 563 300 563 319 563 c 0,49,50
 427 563 427 563 427 491 c 0,51,52
 427 437 427 437 363 424 c 1,53,54
 383 390 383 390 410 360 c 0,21,22
320 445 m 0,55,56
 344 445 344 445 360.5 456 c 128,-1,57
 377 467 377 467 377 491 c 0,58,59
 377 531 377 531 315 531 c 0,60,61
 308 531 308 531 292 529 c 1,62,63
 293 519 293 519 293 449 c 1,64,65
 313 445 313 445 320 445 c 0,55,56
EndSplineSet
EndChar

StartChar: macron
Encoding: 175 175 110
Width: 350
GlyphClass: 2
Flags: W
LayerCount: 2
Fore
SplineSet
226 609 m 2,0,-1
 247 609 l 2,1,2
 309 609 309 609 357 615 c 1,3,4
 357 551 357 551 322 551 c 0,5,6
 319 551 319 551 303 552.5 c 128,-1,7
 287 554 287 554 262.5 555.5 c 128,-1,8
 238 557 238 557 216 557 c 2,9,-1
 195 557 l 2,10,11
 139 557 139 557 97 551 c 1,12,13
 97 615 97 615 131 615 c 0,14,15
 134 615 134 615 171 612 c 128,-1,16
 208 609 208 609 226 609 c 2,0,-1
EndSplineSet
EndChar

StartChar: degree
Encoding: 176 176 111
Width: 356
GlyphClass: 2
Flags: W
LayerCount: 2
Fore
SplineSet
217 655 m 0,0,1
 171 655 171 655 141.5 615.5 c 128,-1,2
 112 576 112 576 112 525 c 0,3,4
 112 488 112 488 130.5 465.5 c 128,-1,5
 149 443 149 443 184 443 c 0,6,7
 229 443 229 443 258 482.5 c 128,-1,8
 287 522 287 522 287 573 c 0,9,10
 287 610 287 610 269 632.5 c 128,-1,11
 251 655 251 655 217 655 c 0,0,1
226 711 m 0,12,13
 283 711 283 711 318 674 c 128,-1,14
 353 637 353 637 353 579 c 0,15,16
 353 499 353 499 301 443 c 128,-1,17
 249 387 249 387 176 387 c 0,18,19
 117 387 117 387 82 424 c 128,-1,20
 47 461 47 461 47 520 c 0,21,22
 47 598 47 598 99 654.5 c 128,-1,23
 151 711 151 711 226 711 c 0,12,13
EndSplineSet
EndChar

StartChar: plusminus
Encoding: 177 177 112
Width: 574
GlyphClass: 2
Flags: W
LayerCount: 2
Fore
SplineSet
476 48 m 0,0,1
 476 30 476 30 466 18 c 128,-1,2
 456 6 456 6 440 6 c 128,-1,3
 424 6 424 6 368.5 10 c 128,-1,4
 313 14 313 14 284 14 c 0,5,6
 170 14 170 14 82 6 c 1,7,8
 79 21 79 21 79 36 c 0,9,10
 79 52 79 52 88 65 c 128,-1,11
 97 78 97 78 115 78 c 0,12,13
 118 78 118 78 178 74.5 c 128,-1,14
 238 71 238 71 282 71 c 0,15,16
 412 71 412 71 473 78 c 1,17,18
 476 69 476 69 476 48 c 0,0,1
316 320 m 1,19,20
 424 320 424 320 493 328 c 1,21,22
 496 319 496 319 496 298 c 0,23,24
 496 280 496 280 486 268 c 128,-1,25
 476 256 476 256 460 256 c 0,26,27
 443 256 443 256 391.5 259.5 c 128,-1,28
 340 263 340 263 315 263 c 1,29,30
 315 204 315 204 323 116 c 1,31,32
 308 113 308 113 293 113 c 0,33,34
 276 113 276 113 263.5 122.5 c 128,-1,35
 251 132 251 132 251 149 c 0,36,37
 251 155 251 155 254 187 c 128,-1,38
 257 219 257 219 258 264 c 1,39,40
 171 263 171 263 82 256 c 1,41,42
 79 271 79 271 79 286 c 0,43,44
 79 302 79 302 88 315 c 128,-1,45
 97 328 97 328 115 328 c 0,46,47
 122 328 122 328 169.5 325 c 128,-1,48
 217 322 217 322 259 321 c 1,49,50
 259 409 259 409 251 478 c 1,51,52
 260 481 260 481 281 481 c 0,53,54
 299 481 299 481 311 471 c 128,-1,55
 323 461 323 461 323 445 c 0,56,57
 323 428 323 428 319.5 386.5 c 128,-1,58
 316 345 316 345 316 320 c 1,19,20
EndSplineSet
EndChar

StartChar: twosuperior
Encoding: 178 178 113
Width: 399
GlyphClass: 2
Flags: W
LayerCount: 2
Fore
SplineSet
127 549 m 1,0,1
 99 552 99 552 99 573 c 0,2,3
 99 605 99 605 147.5 639 c 128,-1,4
 196 673 196 673 250 673 c 0,5,6
 303 673 303 673 333.5 644.5 c 128,-1,7
 364 616 364 616 364 570 c 0,8,9
 364 504 364 504 295 422.5 c 128,-1,10
 226 341 226 341 107 275 c 1,11,12
 134 274 134 274 189 274 c 0,13,14
 292 274 292 274 346 298 c 1,15,16
 354 284 354 284 354 266 c 0,17,18
 354 241 354 241 328 232 c 0,19,20
 296 220 296 220 199 220 c 0,21,22
 126 220 126 220 79 222 c 1,23,24
 45 222 45 222 45 254 c 0,25,26
 45 272 45 272 48 279 c 1,27,28
 162 345 162 345 230 421 c 128,-1,29
 298 497 298 497 298 557 c 0,30,31
 298 586 298 586 280 604 c 128,-1,32
 262 622 262 622 231 622 c 0,33,34
 207 622 207 622 177.5 601.5 c 128,-1,35
 148 581 148 581 127 549 c 1,0,1
EndSplineSet
EndChar

StartChar: threesuperior
Encoding: 179 179 114
Width: 373
GlyphClass: 2
Flags: W
LayerCount: 2
Fore
SplineSet
154 471 m 1,0,1
 182 472 182 472 201.5 475.5 c 128,-1,2
 221 479 221 479 243.5 488.5 c 128,-1,3
 266 498 266 498 278 519 c 128,-1,4
 290 540 290 540 290 572 c 0,5,6
 290 622 290 622 227 622 c 0,7,8
 177 622 177 622 130 569 c 1,9,10
 102 575 102 575 102 597 c 0,11,12
 102 628 102 628 149 650.5 c 128,-1,13
 196 673 196 673 238 673 c 0,14,15
 297 673 297 673 326.5 649 c 128,-1,16
 356 625 356 625 356 584 c 0,17,18
 356 488 356 488 260 458 c 1,19,20
 335 432 335 432 335 358 c 0,21,22
 335 293 335 293 281.5 250.5 c 128,-1,23
 228 208 228 208 153 208 c 0,24,25
 110 208 110 208 77.5 223 c 128,-1,26
 45 238 45 238 45 264 c 0,27,28
 45 288 45 288 77 300 c 1,29,30
 109 259 109 259 165 259 c 0,31,32
 211 259 211 259 241 286 c 128,-1,33
 271 313 271 313 271 360 c 0,34,35
 271 434 271 434 171 434 c 0,36,37
 151 434 151 434 151 455 c 0,38,39
 151 462 151 462 154 471 c 1,0,1
EndSplineSet
EndChar

StartChar: acute
Encoding: 180 180 115
Width: 201
GlyphClass: 2
Flags: W
LayerCount: 2
Fore
SplineSet
172 604 m 0,0,1
 150 592 150 592 89 564 c 128,-1,2
 28 536 28 536 13 525 c 1,3,4
 0 538 0 538 0 554 c 0,5,6
 0 574 0 574 21 584 c 1,7,8
 126 644 126 644 171 688 c 1,9,10
 201 666 201 666 201 643 c 0,11,12
 201 621 201 621 172 604 c 0,0,1
EndSplineSet
EndChar

StartChar: mu
Encoding: 181 181 116
Width: 473
GlyphClass: 2
Flags: W
LayerCount: 2
Fore
SplineSet
312 88 m 1,0,1
 289 51 289 51 246 20.5 c 128,-1,2
 203 -10 203 -10 164 -10 c 0,3,4
 124 -10 124 -10 100 26 c 1,5,6
 76 -56 76 -56 76 -120 c 0,7,8
 76 -192 76 -192 110 -208 c 1,9,10
 96 -254 96 -254 59 -254 c 0,11,12
 9 -254 9 -254 9 -163 c 0,13,14
 9 -117 9 -117 48 104 c 128,-1,15
 87 325 87 325 87 370 c 0,16,17
 87 419 87 419 67 424 c 1,18,19
 69 438 69 438 85 456.5 c 128,-1,20
 101 475 101 475 120 475 c 0,21,22
 163 475 163 475 163 414 c 0,23,24
 163 398 163 398 143 271.5 c 128,-1,25
 123 145 123 145 123 117 c 0,26,27
 123 82 123 82 136.5 61.5 c 128,-1,28
 150 41 150 41 174 41 c 0,29,30
 213 41 213 41 260 86.5 c 128,-1,31
 307 132 307 132 327 191 c 1,32,33
 357 390 357 390 361 464 c 1,34,35
 379 469 379 469 394 469 c 0,36,37
 433 469 433 469 433 437 c 0,38,39
 433 431 433 431 431 418 c 128,-1,40
 429 405 429 405 424 379 c 128,-1,41
 419 353 419 353 416 331 c 0,42,43
 383 127 383 127 383 93 c 0,44,45
 383 46 383 46 403 41 c 1,46,47
 401 27 401 27 385 8.5 c 128,-1,48
 369 -10 369 -10 350 -10 c 0,49,50
 309 -10 309 -10 309 52 c 0,51,52
 309 70 309 70 312 88 c 1,0,1
EndSplineSet
EndChar

StartChar: paragraph
Encoding: 182 182 117
Width: 472
GlyphClass: 2
Flags: W
LayerCount: 2
Fore
SplineSet
243 235 m 0,0,1
 241 218 241 218 196 218 c 0,2,3
 138 218 138 218 99 257.5 c 128,-1,4
 60 297 60 297 60 362 c 0,5,6
 60 455 60 455 121.5 515 c 128,-1,7
 183 575 183 575 268 575 c 0,8,9
 274 575 274 575 329.5 573 c 128,-1,10
 385 571 385 571 413 571 c 0,11,12
 469 571 469 571 500 572 c 1,13,14
 502 558 502 558 502 554 c 0,15,16
 502 514 502 514 439 514 c 2,17,-1
 417 514 l 1,18,19
 368 282 368 282 349 115 c 0,20,21
 322 -119 322 -119 185 -119 c 0,22,23
 158 -119 158 -119 140.5 -107 c 128,-1,24
 123 -95 123 -95 123 -75 c 0,25,26
 123 -60 123 -60 132 -42 c 1,27,28
 160 -54 160 -54 185 -54 c 0,29,30
 212 -54 212 -54 231 -41 c 128,-1,31
 250 -28 250 -28 259.5 -8.5 c 128,-1,32
 269 11 269 11 275 40 c 128,-1,33
 281 69 281 69 283 93 c 128,-1,34
 285 117 285 117 287.5 148.5 c 128,-1,35
 290 180 290 180 292 196 c 0,36,37
 318 380 318 380 347 514 c 1,38,39
 301 514 301 514 292 516 c 1,40,41
 271 433 271 433 243 235 c 0,0,1
EndSplineSet
EndChar

StartChar: periodcentered
Encoding: 183 183 118
Width: 175
GlyphClass: 2
Flags: W
LayerCount: 2
Fore
SplineSet
85 197 m 0,0,1
 64 197 64 197 49.5 211.5 c 128,-1,2
 35 226 35 226 35 250 c 0,3,4
 35 279 35 279 55 301.5 c 128,-1,5
 75 324 75 324 101 324 c 0,6,7
 122 324 122 324 136 308.5 c 128,-1,8
 150 293 150 293 150 270 c 0,9,10
 150 240 150 240 131 218.5 c 128,-1,11
 112 197 112 197 85 197 c 0,0,1
EndSplineSet
EndChar

StartChar: cedilla
Encoding: 184 184 119
Width: 350
GlyphClass: 2
Flags: W
LayerCount: 2
Fore
SplineSet
142 32 m 1,0,-1
 179 27 l 1,1,2
 178 24 178 24 170 9 c 128,-1,3
 162 -6 162 -6 157.5 -17 c 128,-1,4
 153 -28 153 -28 153 -33 c 0,5,6
 153 -44 153 -44 175 -60 c 1,7,8
 213 -83 213 -83 213 -122 c 0,9,10
 213 -164 213 -164 174.5 -198 c 128,-1,11
 136 -232 136 -232 82 -232 c 0,12,13
 51 -232 51 -232 51 -209 c 0,14,15
 51 -195 51 -195 70 -178 c 1,16,17
 83 -187 83 -187 97 -187 c 0,18,19
 122 -187 122 -187 140.5 -175 c 128,-1,20
 159 -163 159 -163 159 -142 c 0,21,22
 159 -122 159 -122 130.5 -99 c 128,-1,23
 102 -76 102 -76 102 -59 c 0,24,25
 102 -29 102 -29 142 32 c 1,0,-1
EndSplineSet
EndChar

StartChar: onesuperior
Encoding: 185 185 120
Width: 344
GlyphClass: 2
Flags: W
LayerCount: 2
Fore
SplineSet
206 277 m 2,0,-1
 206 268 l 1,1,2
 242 268 242 268 278 272 c 1,3,4
 279 268 279 268 279 259 c 0,5,6
 279 219 279 219 242 219 c 0,7,8
 236 219 236 219 199 220 c 128,-1,9
 162 221 162 221 125 221 c 0,10,11
 78 221 78 221 52 220 c 1,12,13
 50 232 50 232 50 236 c 0,14,15
 50 272 50 272 102 272 c 2,16,-1
 141 272 l 1,17,18
 166 446 166 446 168 462 c 0,19,20
 180 549 180 549 186 617 c 1,21,22
 136 612 136 612 98 598 c 1,23,24
 95 607 95 607 95 615 c 0,25,26
 95 650 95 650 133 659 c 0,27,28
 195 673 195 673 226 673 c 128,-1,29
 257 673 257 673 257 646 c 0,30,31
 257 642 257 642 251 611.5 c 128,-1,32
 245 581 245 581 236.5 530.5 c 128,-1,33
 228 480 228 480 222 437 c 0,34,35
 206 314 206 314 206 277 c 2,0,-1
EndSplineSet
EndChar

StartChar: ordmasculine
Encoding: 186 186 121
Width: 343
GlyphClass: 2
Flags: W
LayerCount: 2
Fore
SplineSet
148 301 m 0,0,1
 217 301 217 301 250 308 c 1,2,3
 251 304 251 304 251 297 c 0,4,5
 251 280 251 280 240 268 c 128,-1,6
 229 256 229 256 212 256 c 0,7,8
 204 256 204 256 174.5 260 c 128,-1,9
 145 264 145 264 130 264 c 0,10,11
 69 264 69 264 21 256 c 1,12,13
 20 260 20 260 20 267 c 0,14,15
 20 308 20 308 59 308 c 0,16,17
 61 308 61 308 92.5 304.5 c 128,-1,18
 124 301 124 301 148 301 c 0,0,1
147 376 m 0,19,20
 99 376 99 376 71 405 c 128,-1,21
 43 434 43 434 43 484 c 0,22,23
 43 549 43 549 80.5 596 c 128,-1,24
 118 643 118 643 182 643 c 0,25,26
 231 643 231 643 259 613.5 c 128,-1,27
 287 584 287 584 287 533 c 0,28,29
 287 469 287 469 248.5 422.5 c 128,-1,30
 210 376 210 376 147 376 c 0,19,20
151 411 m 0,31,32
 192 411 192 411 217 442.5 c 128,-1,33
 242 474 242 474 242 523 c 0,34,35
 242 561 242 561 225.5 584.5 c 128,-1,36
 209 608 209 608 178 608 c 0,37,38
 137 608 137 608 113 576 c 128,-1,39
 89 544 89 544 89 495 c 0,40,41
 89 457 89 457 105 434 c 128,-1,42
 121 411 121 411 151 411 c 0,31,32
EndSplineSet
EndChar

StartChar: guillemotright
Encoding: 187 187 122
Width: 473
GlyphClass: 2
Flags: W
LayerCount: 2
Fore
SplineSet
334 235 m 1,0,1
 306 276 306 276 278 327.5 c 128,-1,2
 250 379 250 379 250 396 c 0,3,4
 250 408 250 408 274 426 c 1,5,6
 333 370 333 370 413 235 c 1,7,8
 290 95 290 95 221 44 c 1,9,10
 204 57 204 57 204 67 c 0,11,12
 204 97 204 97 334 235 c 1,0,1
145 235 m 1,13,14
 117 276 117 276 89 327.5 c 128,-1,15
 61 379 61 379 61 396 c 0,16,17
 61 408 61 408 85 426 c 1,18,19
 144 370 144 370 224 235 c 1,20,21
 101 95 101 95 32 44 c 1,22,23
 15 57 15 57 15 67 c 0,24,25
 15 97 15 97 145 235 c 1,13,14
EndSplineSet
EndChar

StartChar: onequarter
Encoding: 188 188 123
Width: 838
GlyphClass: 2
Flags: W
LayerCount: 2
Fore
SplineSet
512 185 m 1,0,1
 543 183 543 183 652 183 c 1,2,3
 659 236 659 236 667 293 c 128,-1,4
 675 350 675 350 678 372 c 1,5,6
 667 361 667 361 640 334.5 c 128,-1,7
 613 308 613 308 600 294 c 128,-1,8
 587 280 587 280 562 250.5 c 128,-1,9
 537 221 537 221 512 185 c 1,0,1
684 441 m 0,10,11
 696 452 696 452 729 452 c 0,12,13
 735 452 735 452 751 450 c 1,14,15
 751 448 751 448 744.5 413.5 c 128,-1,16
 738 379 738 379 728 317.5 c 128,-1,17
 718 256 718 256 709 188 c 1,18,19
 754 191 754 191 774 200 c 1,20,21
 778 186 778 186 778 175 c 0,22,23
 778 162 778 162 773.5 153.5 c 128,-1,24
 769 145 769 145 764 140.5 c 128,-1,25
 759 136 759 136 746.5 133.5 c 128,-1,26
 734 131 734 131 726.5 130.5 c 128,-1,27
 719 130 719 130 701 130 c 1,28,29
 695 80 695 80 695 50 c 0,30,31
 695 19 695 19 699 -2 c 1,32,33
 683 -10 683 -10 668 -10 c 0,34,35
 630 -10 630 -10 630 25 c 0,36,37
 630 43 630 43 636 77.5 c 128,-1,38
 642 112 642 112 644 129 c 1,39,-1
 607 129 l 2,40,41
 523 129 523 129 469 136 c 0,42,43
 455 137 455 137 455 160 c 0,44,45
 455 177 455 177 460 195 c 1,46,47
 500 253 500 253 569 328 c 128,-1,48
 638 403 638 403 684 441 c 0,10,11
206 277 m 2,49,-1
 206 268 l 1,50,51
 242 268 242 268 278 272 c 1,52,53
 279 268 279 268 279 259 c 0,54,55
 279 219 279 219 242 219 c 0,56,57
 236 219 236 219 199 220 c 128,-1,58
 162 221 162 221 125 221 c 0,59,60
 78 221 78 221 52 220 c 1,61,62
 50 232 50 232 50 236 c 0,63,64
 50 272 50 272 102 272 c 2,65,-1
 141 272 l 1,66,67
 166 446 166 446 168 462 c 0,68,69
 180 549 180 549 186 617 c 1,70,71
 136 612 136 612 98 598 c 1,72,73
 95 607 95 607 95 615 c 0,74,75
 95 650 95 650 133 659 c 0,76,77
 195 673 195 673 226 673 c 128,-1,78
 257 673 257 673 257 646 c 0,79,80
 257 642 257 642 251 611.5 c 128,-1,81
 245 581 245 581 236.5 530.5 c 128,-1,82
 228 480 228 480 222 437 c 0,83,84
 206 314 206 314 206 277 c 2,49,-1
158 -57 m 2,85,-1
 510 528 l 2,86,87
 590 661 590 661 631 740 c 1,88,89
 648 740 648 740 662 733 c 128,-1,90
 676 726 676 726 676 713 c 0,91,92
 676 701 676 701 668 690 c 1,93,-1
 316 105 l 2,94,95
 231 -36 231 -36 195 -107 c 1,96,97
 150 -105 150 -105 150 -78 c 0,98,99
 150 -70 150 -70 158 -57 c 2,85,-1
EndSplineSet
EndChar

StartChar: onehalf
Encoding: 189 189 124
Width: 892
GlyphClass: 2
Flags: W
LayerCount: 2
Fore
SplineSet
570 328 m 1,0,1
 542 331 542 331 542 352 c 0,2,3
 542 384 542 384 590.5 418 c 128,-1,4
 639 452 639 452 693 452 c 0,5,6
 746 452 746 452 776.5 423.5 c 128,-1,7
 807 395 807 395 807 349 c 0,8,9
 807 283 807 283 738 201.5 c 128,-1,10
 669 120 669 120 550 54 c 1,11,12
 577 53 577 53 632 53 c 0,13,14
 735 53 735 53 789 77 c 1,15,16
 797 63 797 63 797 45 c 0,17,18
 797 20 797 20 771 11 c 0,19,20
 739 -1 739 -1 642 -1 c 0,21,22
 569 -1 569 -1 522 1 c 1,23,24
 488 1 488 1 488 33 c 0,25,26
 488 51 488 51 491 58 c 1,27,28
 605 124 605 124 673 200 c 128,-1,29
 741 276 741 276 741 336 c 0,30,31
 741 365 741 365 723 383 c 128,-1,32
 705 401 705 401 674 401 c 0,33,34
 650 401 650 401 620.5 380.5 c 128,-1,35
 591 360 591 360 570 328 c 1,0,1
206 277 m 2,36,-1
 206 268 l 1,37,38
 242 268 242 268 278 272 c 1,39,40
 279 268 279 268 279 259 c 0,41,42
 279 219 279 219 242 219 c 0,43,44
 236 219 236 219 199 220 c 128,-1,45
 162 221 162 221 125 221 c 0,46,47
 78 221 78 221 52 220 c 1,48,49
 50 232 50 232 50 236 c 0,50,51
 50 272 50 272 102 272 c 2,52,-1
 141 272 l 1,53,54
 166 446 166 446 168 462 c 0,55,56
 180 549 180 549 186 617 c 1,57,58
 136 612 136 612 98 598 c 1,59,60
 95 607 95 607 95 615 c 0,61,62
 95 650 95 650 133 659 c 0,63,64
 195 673 195 673 226 673 c 128,-1,65
 257 673 257 673 257 646 c 0,66,67
 257 642 257 642 251 611.5 c 128,-1,68
 245 581 245 581 236.5 530.5 c 128,-1,69
 228 480 228 480 222 437 c 0,70,71
 206 314 206 314 206 277 c 2,36,-1
158 -57 m 2,72,-1
 510 528 l 2,73,74
 590 661 590 661 631 740 c 1,75,76
 648 740 648 740 662 733 c 128,-1,77
 676 726 676 726 676 713 c 0,78,79
 676 701 676 701 668 690 c 1,80,-1
 316 105 l 2,81,82
 231 -36 231 -36 195 -107 c 1,83,84
 150 -105 150 -105 150 -78 c 0,85,86
 150 -70 150 -70 158 -57 c 2,72,-1
EndSplineSet
EndChar

StartChar: threequarters
Encoding: 190 190 125
Width: 852
GlyphClass: 2
Flags: W
LayerCount: 2
Fore
SplineSet
182 -57 m 2,0,-1
 534 528 l 2,1,2
 614 661 614 661 655 740 c 1,3,4
 672 740 672 740 686 733 c 128,-1,5
 700 726 700 726 700 713 c 0,6,7
 700 701 700 701 692 690 c 1,8,-1
 340 105 l 2,9,10
 255 -36 255 -36 219 -107 c 1,11,12
 174 -105 174 -105 174 -78 c 0,13,14
 174 -70 174 -70 182 -57 c 2,0,-1
151 433 m 1,15,-1
 151 471 l 1,16,-1
 156 471 l 2,17,18
 291 471 291 471 291 569 c 0,19,20
 291 622 291 622 227 622 c 0,21,22
 179 622 179 622 130 569 c 1,23,24
 102 575 102 575 102 597 c 0,25,26
 102 628 102 628 149 650.5 c 128,-1,27
 196 673 196 673 241 673 c 0,28,29
 358 673 358 673 358 585 c 0,30,31
 358 489 358 489 261 458 c 1,32,33
 335 433 335 433 335 362 c 0,34,35
 335 301 335 301 287 254.5 c 128,-1,36
 239 208 239 208 155 208 c 0,37,38
 110 208 110 208 77.5 223 c 128,-1,39
 45 238 45 238 45 264 c 128,-1,40
 45 290 45 290 77 300 c 1,41,42
 107 259 107 259 165 259 c 0,43,44
 212 259 212 259 241 287 c 128,-1,45
 270 315 270 315 270 362 c 0,46,47
 270 434 270 434 177 434 c 0,48,49
 160 434 160 434 151 433 c 1,15,-1
526 185 m 1,50,51
 557 183 557 183 666 183 c 1,52,53
 673 236 673 236 681 293 c 128,-1,54
 689 350 689 350 692 372 c 1,55,56
 681 361 681 361 654 334.5 c 128,-1,57
 627 308 627 308 614 294 c 128,-1,58
 601 280 601 280 576 250.5 c 128,-1,59
 551 221 551 221 526 185 c 1,50,51
698 441 m 0,60,61
 710 452 710 452 743 452 c 0,62,63
 749 452 749 452 765 450 c 1,64,65
 765 448 765 448 758.5 413.5 c 128,-1,66
 752 379 752 379 742 317.5 c 128,-1,67
 732 256 732 256 723 188 c 1,68,69
 768 191 768 191 788 200 c 1,70,71
 792 186 792 186 792 175 c 0,72,73
 792 162 792 162 787.5 153.5 c 128,-1,74
 783 145 783 145 778 140.5 c 128,-1,75
 773 136 773 136 760.5 133.5 c 128,-1,76
 748 131 748 131 740.5 130.5 c 128,-1,77
 733 130 733 130 715 130 c 1,78,79
 709 80 709 80 709 50 c 0,80,81
 709 19 709 19 713 -2 c 1,82,83
 697 -10 697 -10 682 -10 c 0,84,85
 644 -10 644 -10 644 25 c 0,86,87
 644 43 644 43 650 77.5 c 128,-1,88
 656 112 656 112 658 129 c 1,89,-1
 621 129 l 2,90,91
 537 129 537 129 483 136 c 0,92,93
 469 137 469 137 469 160 c 0,94,95
 469 177 469 177 474 195 c 1,96,97
 514 253 514 253 583 328 c 128,-1,98
 652 403 652 403 698 441 c 0,60,61
EndSplineSet
EndChar

StartChar: questiondown
Encoding: 191 191 126
Width: 362
GlyphClass: 2
Flags: W
LayerCount: 2
Fore
SplineSet
221 348 m 0,0,1
 200 348 200 348 185.5 362.5 c 128,-1,2
 171 377 171 377 171 401 c 0,3,4
 171 430 171 430 191 452.5 c 128,-1,5
 211 475 211 475 237 475 c 0,6,7
 258 475 258 475 272 459.5 c 128,-1,8
 286 444 286 444 286 421 c 0,9,10
 286 391 286 391 267 369.5 c 128,-1,11
 248 348 248 348 221 348 c 0,0,1
184 266 m 1,12,13
 207 276 207 276 224 276 c 0,14,15
 261 276 261 276 261 227 c 0,16,17
 261 193 261 193 245 160.5 c 128,-1,18
 229 128 229 128 209.5 106.5 c 128,-1,19
 190 85 190 85 160 54.5 c 128,-1,20
 130 24 130 24 115 4 c 0,21,22
 73 -51 73 -51 73 -101 c 0,23,24
 73 -132 73 -132 92 -147.5 c 128,-1,25
 111 -163 111 -163 142 -163 c 0,26,27
 180 -163 180 -163 215.5 -142 c 128,-1,28
 251 -121 251 -121 262 -88 c 1,29,30
 302 -95 302 -95 302 -125 c 0,31,32
 302 -166 302 -166 255.5 -192.5 c 128,-1,33
 209 -219 209 -219 149 -219 c 0,34,35
 87 -219 87 -219 43.5 -188 c 128,-1,36
 0 -157 0 -157 0 -95 c 0,37,38
 0 -24 0 -24 59 40 c 0,39,40
 72 54 72 54 101 80 c 128,-1,41
 130 106 130 106 145.5 122.5 c 128,-1,42
 161 139 161 139 174.5 167.5 c 128,-1,43
 188 196 188 196 188 228 c 0,44,45
 188 247 188 247 184 266 c 1,12,13
EndSplineSet
EndChar

StartChar: Agrave
Encoding: 192 192 127
Width: 528
GlyphClass: 2
Flags: W
LayerCount: 2
Fore
SplineSet
192 810 m 0,0,1
 167 826 167 826 167 846 c 0,2,3
 167 873 167 873 202 892 c 1,4,5
 214 877 214 877 235 858 c 128,-1,6
 256 839 256 839 274 825 c 128,-1,7
 292 811 292 811 313 795 c 128,-1,8
 334 779 334 779 338 776 c 0,9,10
 357 762 357 762 357 748 c 0,11,12
 357 732 357 732 341 716 c 1,13,14
 328 727 328 727 272 760.5 c 128,-1,15
 216 794 216 794 192 810 c 0,0,1
313 569 m 1,16,17
 302 545 302 545 277.5 488 c 128,-1,18
 253 431 253 431 228 375.5 c 128,-1,19
 203 320 203 320 178 268 c 1,20,21
 250 266 250 266 288 266 c 0,22,23
 344 266 344 266 371 268 c 1,24,25
 353 349 353 349 313 569 c 1,16,17
264 207 m 0,26,27
 242 207 242 207 150 209 c 1,28,29
 139 185 139 185 116 134 c 128,-1,30
 93 83 93 83 77 47.5 c 128,-1,31
 61 12 61 12 53 -13 c 1,32,33
 31 -12 31 -12 10.5 -1.5 c 128,-1,34
 -10 9 -10 9 -10 28 c 0,35,36
 -10 37 -10 37 10.5 79 c 128,-1,37
 31 121 31 121 72 202 c 128,-1,38
 113 283 113 283 139 336 c 0,39,40
 255 577 255 577 278 659 c 1,41,42
 314 663 314 663 323 663 c 0,43,44
 347 663 347 663 358 652 c 128,-1,45
 369 641 369 641 375 610 c 0,46,47
 378 597 378 597 390.5 525 c 128,-1,48
 403 453 403 453 415 393.5 c 128,-1,49
 427 334 427 334 440 280 c 0,50,51
 484 87 484 87 511 10 c 1,52,53
 483 -10 483 -10 462 -10 c 0,54,55
 431 -10 431 -10 425 17 c 0,56,57
 411 80 411 80 384 209 c 1,58,59
 284 207 284 207 264 207 c 0,26,27
EndSplineSet
EndChar

StartChar: Aacute
Encoding: 193 193 128
Width: 528
GlyphClass: 2
Flags: W
LayerCount: 2
Fore
SplineSet
404 795 m 0,0,1
 382 783 382 783 321 755 c 128,-1,2
 260 727 260 727 245 716 c 1,3,4
 232 729 232 729 232 745 c 0,5,6
 232 765 232 765 253 775 c 1,7,8
 358 835 358 835 403 879 c 1,9,10
 433 857 433 857 433 834 c 0,11,12
 433 812 433 812 404 795 c 0,0,1
313 569 m 1,13,14
 302 545 302 545 277.5 488 c 128,-1,15
 253 431 253 431 228 375.5 c 128,-1,16
 203 320 203 320 178 268 c 1,17,18
 250 266 250 266 288 266 c 0,19,20
 344 266 344 266 371 268 c 1,21,22
 353 349 353 349 313 569 c 1,13,14
264 207 m 0,23,24
 242 207 242 207 150 209 c 1,25,26
 139 185 139 185 116 134 c 128,-1,27
 93 83 93 83 77 47.5 c 128,-1,28
 61 12 61 12 53 -13 c 1,29,30
 31 -12 31 -12 10.5 -1.5 c 128,-1,31
 -10 9 -10 9 -10 28 c 0,32,33
 -10 37 -10 37 10.5 79 c 128,-1,34
 31 121 31 121 72 202 c 128,-1,35
 113 283 113 283 139 336 c 0,36,37
 255 577 255 577 278 659 c 1,38,39
 314 663 314 663 323 663 c 0,40,41
 347 663 347 663 358 652 c 128,-1,42
 369 641 369 641 375 610 c 0,43,44
 378 597 378 597 390.5 525 c 128,-1,45
 403 453 403 453 415 393.5 c 128,-1,46
 427 334 427 334 440 280 c 0,47,48
 484 87 484 87 511 10 c 1,49,50
 483 -10 483 -10 462 -10 c 0,51,52
 431 -10 431 -10 425 17 c 0,53,54
 411 80 411 80 384 209 c 1,55,56
 284 207 284 207 264 207 c 0,23,24
EndSplineSet
EndChar

StartChar: Acircumflex
Encoding: 194 194 129
Width: 528
GlyphClass: 2
Flags: W
LayerCount: 2
Fore
SplineSet
339 870 m 1,0,1
 445 790 445 790 445 743 c 0,2,3
 445 721 445 721 418 710 c 1,4,5
 404 734 404 734 381 756 c 128,-1,6
 358 778 358 778 342 788 c 1,7,-1
 327 799 l 1,8,9
 224 718 224 718 209 718 c 0,10,11
 197 718 197 718 187 736 c 1,12,13
 255 811 255 811 339 870 c 1,0,1
313 569 m 1,14,15
 302 545 302 545 277.5 488 c 128,-1,16
 253 431 253 431 228 375.5 c 128,-1,17
 203 320 203 320 178 268 c 1,18,19
 250 266 250 266 288 266 c 0,20,21
 344 266 344 266 371 268 c 1,22,23
 353 349 353 349 313 569 c 1,14,15
264 207 m 0,24,25
 242 207 242 207 150 209 c 1,26,27
 139 185 139 185 116 134 c 128,-1,28
 93 83 93 83 77 47.5 c 128,-1,29
 61 12 61 12 53 -13 c 1,30,31
 31 -12 31 -12 10.5 -1.5 c 128,-1,32
 -10 9 -10 9 -10 28 c 0,33,34
 -10 37 -10 37 10.5 79 c 128,-1,35
 31 121 31 121 72 202 c 128,-1,36
 113 283 113 283 139 336 c 0,37,38
 255 577 255 577 278 659 c 1,39,40
 314 663 314 663 323 663 c 0,41,42
 347 663 347 663 358 652 c 128,-1,43
 369 641 369 641 375 610 c 0,44,45
 378 597 378 597 390.5 525 c 128,-1,46
 403 453 403 453 415 393.5 c 128,-1,47
 427 334 427 334 440 280 c 0,48,49
 484 87 484 87 511 10 c 1,50,51
 483 -10 483 -10 462 -10 c 0,52,53
 431 -10 431 -10 425 17 c 0,54,55
 411 80 411 80 384 209 c 1,56,57
 284 207 284 207 264 207 c 0,24,25
EndSplineSet
EndChar

StartChar: Atilde
Encoding: 195 195 130
Width: 528
GlyphClass: 2
Flags: W
LayerCount: 2
Fore
SplineSet
313 569 m 1,0,1
 302 545 302 545 277.5 488 c 128,-1,2
 253 431 253 431 228 375.5 c 128,-1,3
 203 320 203 320 178 268 c 1,4,5
 250 266 250 266 288 266 c 0,6,7
 344 266 344 266 371 268 c 1,8,9
 353 349 353 349 313 569 c 1,0,1
264 207 m 0,10,11
 242 207 242 207 150 209 c 1,12,13
 139 185 139 185 116 134 c 128,-1,14
 93 83 93 83 77 47.5 c 128,-1,15
 61 12 61 12 53 -13 c 1,16,17
 31 -12 31 -12 10.5 -1.5 c 128,-1,18
 -10 9 -10 9 -10 28 c 0,19,20
 -10 37 -10 37 10.5 79 c 128,-1,21
 31 121 31 121 72 202 c 128,-1,22
 113 283 113 283 139 336 c 0,23,24
 255 577 255 577 278 659 c 1,25,26
 314 663 314 663 323 663 c 0,27,28
 347 663 347 663 358 652 c 128,-1,29
 369 641 369 641 375 610 c 0,30,31
 378 597 378 597 390.5 525 c 128,-1,32
 403 453 403 453 415 393.5 c 128,-1,33
 427 334 427 334 440 280 c 0,34,35
 484 87 484 87 511 10 c 1,36,37
 483 -10 483 -10 462 -10 c 0,38,39
 431 -10 431 -10 425 17 c 0,40,41
 411 80 411 80 384 209 c 1,42,43
 284 207 284 207 264 207 c 0,10,11
393 780 m 0,44,45
 404 780 404 780 423.5 793 c 128,-1,46
 443 806 443 806 458 822 c 1,47,48
 471 817 471 817 471 805 c 0,49,50
 471 777 471 777 435 749 c 128,-1,51
 399 721 399 721 363 721 c 0,52,53
 342 721 342 721 308 743.5 c 128,-1,54
 274 766 274 766 256 766 c 0,55,56
 237 766 237 766 191 724 c 1,57,58
 178 730 178 730 178 741 c 0,59,60
 178 769 178 769 214 797 c 128,-1,61
 250 825 250 825 287 825 c 0,62,63
 305 825 305 825 340.5 802.5 c 128,-1,64
 376 780 376 780 393 780 c 0,44,45
EndSplineSet
EndChar

StartChar: Adieresis
Encoding: 196 196 131
Width: 528
GlyphClass: 2
Flags: W
LayerCount: 2
Fore
SplineSet
313 569 m 1,0,1
 302 545 302 545 277.5 488 c 128,-1,2
 253 431 253 431 228 375.5 c 128,-1,3
 203 320 203 320 178 268 c 1,4,5
 250 266 250 266 288 266 c 0,6,7
 344 266 344 266 371 268 c 1,8,9
 353 349 353 349 313 569 c 1,0,1
264 207 m 0,10,11
 242 207 242 207 150 209 c 1,12,13
 139 185 139 185 116 134 c 128,-1,14
 93 83 93 83 77 47.5 c 128,-1,15
 61 12 61 12 53 -13 c 1,16,17
 31 -12 31 -12 10.5 -1.5 c 128,-1,18
 -10 9 -10 9 -10 28 c 0,19,20
 -10 37 -10 37 10.5 79 c 128,-1,21
 31 121 31 121 72 202 c 128,-1,22
 113 283 113 283 139 336 c 0,23,24
 255 577 255 577 278 659 c 1,25,26
 314 663 314 663 323 663 c 0,27,28
 347 663 347 663 358 652 c 128,-1,29
 369 641 369 641 375 610 c 0,30,31
 378 597 378 597 390.5 525 c 128,-1,32
 403 453 403 453 415 393.5 c 128,-1,33
 427 334 427 334 440 280 c 0,34,35
 484 87 484 87 511 10 c 1,36,37
 483 -10 483 -10 462 -10 c 0,38,39
 431 -10 431 -10 425 17 c 0,40,41
 411 80 411 80 384 209 c 1,42,43
 284 207 284 207 264 207 c 0,10,11
235 712 m 0,44,45
 216 712 216 712 204 725 c 128,-1,46
 192 738 192 738 192 759 c 0,47,48
 192 784 192 784 209 801.5 c 128,-1,49
 226 819 226 819 248 819 c 0,50,51
 266 819 266 819 278.5 805 c 128,-1,52
 291 791 291 791 291 770 c 0,53,54
 291 746 291 746 273 729 c 128,-1,55
 255 712 255 712 235 712 c 0,44,45
402 712 m 0,56,57
 383 712 383 712 371 725 c 128,-1,58
 359 738 359 738 359 759 c 0,59,60
 359 784 359 784 376 801.5 c 128,-1,61
 393 819 393 819 415 819 c 0,62,63
 433 819 433 819 445.5 805 c 128,-1,64
 458 791 458 791 458 770 c 0,65,66
 458 746 458 746 440 729 c 128,-1,67
 422 712 422 712 402 712 c 0,56,57
EndSplineSet
EndChar

StartChar: Aring
Encoding: 197 197 132
Width: 528
GlyphClass: 2
Flags: W
LayerCount: 2
Fore
SplineSet
319 711 m 0,0,1
 284 711 284 711 264 731 c 128,-1,2
 244 751 244 751 244 786 c 0,3,4
 244 830 244 830 272.5 859.5 c 128,-1,5
 301 889 301 889 342 889 c 0,6,7
 376 889 376 889 396 869 c 128,-1,8
 416 849 416 849 416 814 c 0,9,10
 416 770 416 770 388 740.5 c 128,-1,11
 360 711 360 711 319 711 c 0,0,1
338 856 m 0,12,13
 313 856 313 856 299.5 837.5 c 128,-1,14
 286 819 286 819 286 790 c 0,15,16
 286 769 286 769 295.5 756.5 c 128,-1,17
 305 744 305 744 323 744 c 0,18,19
 347 744 347 744 360 762.5 c 128,-1,20
 373 781 373 781 373 809 c 0,21,22
 373 830 373 830 363.5 843 c 128,-1,23
 354 856 354 856 338 856 c 0,12,13
313 569 m 1,24,25
 302 545 302 545 277.5 488 c 128,-1,26
 253 431 253 431 228 375.5 c 128,-1,27
 203 320 203 320 178 268 c 1,28,29
 250 266 250 266 288 266 c 0,30,31
 344 266 344 266 371 268 c 1,32,33
 353 349 353 349 313 569 c 1,24,25
264 207 m 0,34,35
 242 207 242 207 150 209 c 1,36,37
 139 185 139 185 116 134 c 128,-1,38
 93 83 93 83 77 47.5 c 128,-1,39
 61 12 61 12 53 -13 c 1,40,41
 31 -12 31 -12 10.5 -1.5 c 128,-1,42
 -10 9 -10 9 -10 28 c 0,43,44
 -10 37 -10 37 10.5 79 c 128,-1,45
 31 121 31 121 72 202 c 128,-1,46
 113 283 113 283 139 336 c 0,47,48
 255 577 255 577 278 659 c 1,49,50
 314 663 314 663 323 663 c 0,51,52
 347 663 347 663 358 652 c 128,-1,53
 369 641 369 641 375 610 c 0,54,55
 378 597 378 597 390.5 525 c 128,-1,56
 403 453 403 453 415 393.5 c 128,-1,57
 427 334 427 334 440 280 c 0,58,59
 484 87 484 87 511 10 c 1,60,61
 483 -10 483 -10 462 -10 c 0,62,63
 431 -10 431 -10 425 17 c 0,64,65
 411 80 411 80 384 209 c 1,66,67
 284 207 284 207 264 207 c 0,34,35
EndSplineSet
EndChar

StartChar: AE
Encoding: 198 198 133
Width: 716
GlyphClass: 2
Flags: W
LayerCount: 2
Fore
SplineSet
299 266 m 2,0,-1
 346 266 l 1,1,2
 374 470 374 470 382 565 c 1,3,4
 368 543 368 543 302.5 439 c 128,-1,5
 237 335 237 335 192 268 c 1,6,7
 260 266 260 266 299 266 c 2,0,-1
717 580 m 1,8,9
 669 601 669 601 553 601 c 0,10,11
 514 601 514 601 463 598 c 1,12,13
 461 551 461 551 439 386 c 1,14,15
 576 386 576 386 609 390 c 1,16,17
 611 374 611 374 611 368 c 0,18,19
 611 327 611 327 566 324 c 0,20,21
 542 323 542 323 430 323 c 1,22,23
 403 112 403 112 403 61 c 1,24,25
 431 59 431 59 453 59 c 0,26,27
 507 59 507 59 562.5 66 c 128,-1,28
 618 73 618 73 636 82 c 1,29,30
 644 55 644 55 644 40 c 0,31,32
 644 11 644 11 612.5 4 c 128,-1,33
 581 -3 581 -3 492 -3 c 0,34,35
 380 -3 380 -3 354 -1 c 0,36,37
 334 0 334 0 326 8 c 128,-1,38
 318 16 318 16 318 34 c 0,39,40
 318 68 318 68 337 208 c 1,41,42
 310 207 310 207 264 207 c 0,43,44
 244 207 244 207 152 209 c 1,45,46
 38 38 38 38 14 -10 c 1,47,48
 -40 -1 -40 -1 -40 26 c 0,49,50
 -40 37 -40 37 2 99 c 0,51,52
 20 125 20 125 67 192 c 128,-1,53
 114 259 114 259 140 298 c 0,54,55
 283 508 283 508 362 654 c 1,56,57
 467 665 467 665 582 665 c 0,58,59
 711 665 711 665 726 650 c 0,60,61
 731 644 731 644 731 631 c 0,62,63
 731 605 731 605 717 580 c 1,8,9
EndSplineSet
EndChar

StartChar: Ccedilla
Encoding: 199 199 134
Width: 517
GlyphClass: 2
Flags: W
LayerCount: 2
Fore
SplineSet
427 134 m 1,0,1
 470 116 470 116 470 87 c 0,2,3
 470 50 470 50 416 20.5 c 128,-1,4
 362 -9 362 -9 288 -10 c 1,5,6
 281 -26 281 -26 281 -33 c 0,7,8
 281 -44 281 -44 303 -60 c 1,9,10
 341 -83 341 -83 341 -122 c 0,11,12
 341 -164 341 -164 302.5 -198 c 128,-1,13
 264 -232 264 -232 210 -232 c 0,14,15
 179 -232 179 -232 179 -209 c 0,16,17
 179 -195 179 -195 198 -178 c 1,18,19
 211 -187 211 -187 225 -187 c 0,20,21
 250 -187 250 -187 268.5 -175 c 128,-1,22
 287 -163 287 -163 287 -142 c 0,23,24
 287 -122 287 -122 258.5 -99 c 128,-1,25
 230 -76 230 -76 230 -59 c 128,-1,26
 230 -42 230 -42 246 -7 c 1,27,28
 153 5 153 5 100.5 77.5 c 128,-1,29
 48 150 48 150 48 264 c 0,30,31
 48 445 48 445 140 559 c 128,-1,32
 232 673 232 673 378 673 c 0,33,34
 444 673 444 673 488 644.5 c 128,-1,35
 532 616 532 616 532 574 c 0,36,37
 532 549 532 549 515.5 533.5 c 128,-1,38
 499 518 499 518 473 514 c 1,39,40
 462 563 462 563 429 587.5 c 128,-1,41
 396 612 396 612 355 612 c 0,42,43
 257 612 257 612 194 514 c 128,-1,44
 131 416 131 416 131 287 c 0,45,46
 131 183 131 183 172.5 117 c 128,-1,47
 214 51 214 51 294 51 c 0,48,49
 376 51 376 51 427 134 c 1,0,1
EndSplineSet
EndChar

StartChar: Egrave
Encoding: 200 200 135
Width: 458
GlyphClass: 2
Flags: W
LayerCount: 2
Fore
SplineSet
459 580 m 1,0,1
 411 601 411 601 295 601 c 0,2,3
 256 601 256 601 205 598 c 1,4,5
 203 551 203 551 181 386 c 1,6,7
 318 386 318 386 351 390 c 1,8,9
 353 374 353 374 353 368 c 0,10,11
 353 327 353 327 308 324 c 0,12,13
 284 323 284 323 172 323 c 1,14,15
 145 112 145 112 145 61 c 1,16,17
 173 59 173 59 195 59 c 0,18,19
 249 59 249 59 304.5 66 c 128,-1,20
 360 73 360 73 378 82 c 1,21,22
 386 55 386 55 386 40 c 0,23,24
 386 11 386 11 354.5 4 c 128,-1,25
 323 -3 323 -3 234 -3 c 0,26,27
 122 -3 122 -3 96 -1 c 0,28,29
 76 0 76 0 68 8 c 128,-1,30
 60 16 60 16 60 34 c 0,31,32
 60 62 60 62 93.5 306 c 128,-1,33
 127 550 127 550 127 631 c 0,34,35
 127 649 127 649 126 656 c 1,36,37
 224 665 224 665 324 665 c 0,38,39
 453 665 453 665 468 650 c 0,40,41
 473 644 473 644 473 631 c 0,42,43
 473 605 473 605 459 580 c 1,0,1
188 810 m 0,44,45
 163 826 163 826 163 846 c 0,46,47
 163 873 163 873 198 892 c 1,48,49
 210 877 210 877 231 858 c 128,-1,50
 252 839 252 839 270 825 c 128,-1,51
 288 811 288 811 309 795 c 128,-1,52
 330 779 330 779 334 776 c 0,53,54
 353 762 353 762 353 748 c 0,55,56
 353 732 353 732 337 716 c 1,57,58
 324 727 324 727 268 760.5 c 128,-1,59
 212 794 212 794 188 810 c 0,44,45
EndSplineSet
EndChar

StartChar: Eacute
Encoding: 201 201 136
Width: 458
GlyphClass: 2
Flags: W
LayerCount: 2
Fore
SplineSet
459 580 m 1,0,1
 411 601 411 601 295 601 c 0,2,3
 256 601 256 601 205 598 c 1,4,5
 203 551 203 551 181 386 c 1,6,7
 318 386 318 386 351 390 c 1,8,9
 353 374 353 374 353 368 c 0,10,11
 353 327 353 327 308 324 c 0,12,13
 284 323 284 323 172 323 c 1,14,15
 145 112 145 112 145 61 c 1,16,17
 173 59 173 59 195 59 c 0,18,19
 249 59 249 59 304.5 66 c 128,-1,20
 360 73 360 73 378 82 c 1,21,22
 386 55 386 55 386 40 c 0,23,24
 386 11 386 11 354.5 4 c 128,-1,25
 323 -3 323 -3 234 -3 c 0,26,27
 122 -3 122 -3 96 -1 c 0,28,29
 76 0 76 0 68 8 c 128,-1,30
 60 16 60 16 60 34 c 0,31,32
 60 62 60 62 93.5 306 c 128,-1,33
 127 550 127 550 127 631 c 0,34,35
 127 649 127 649 126 656 c 1,36,37
 224 665 224 665 324 665 c 0,38,39
 453 665 453 665 468 650 c 0,40,41
 473 644 473 644 473 631 c 0,42,43
 473 605 473 605 459 580 c 1,0,1
420 794 m 0,44,45
 398 782 398 782 337 754 c 128,-1,46
 276 726 276 726 261 715 c 1,47,48
 248 728 248 728 248 744 c 0,49,50
 248 764 248 764 269 774 c 1,51,52
 374 834 374 834 419 878 c 1,53,54
 449 856 449 856 449 833 c 0,55,56
 449 811 449 811 420 794 c 0,44,45
EndSplineSet
EndChar

StartChar: Ecircumflex
Encoding: 202 202 137
Width: 458
GlyphClass: 2
Flags: W
LayerCount: 2
Fore
SplineSet
329 870 m 1,0,1
 435 790 435 790 435 743 c 0,2,3
 435 721 435 721 408 710 c 1,4,5
 394 734 394 734 371 756 c 128,-1,6
 348 778 348 778 332 788 c 1,7,-1
 317 799 l 1,8,9
 311 794 311 794 297.5 783.5 c 128,-1,10
 284 773 284 773 276.5 767 c 128,-1,11
 269 761 269 761 257.5 752 c 128,-1,12
 246 743 246 743 238.5 738 c 128,-1,13
 231 733 231 733 222.5 728 c 128,-1,14
 214 723 214 723 208.5 720.5 c 128,-1,15
 203 718 203 718 199 718 c 0,16,17
 187 718 187 718 177 736 c 1,18,19
 245 811 245 811 329 870 c 1,0,1
459 580 m 1,20,21
 411 601 411 601 295 601 c 0,22,23
 256 601 256 601 205 598 c 1,24,25
 203 551 203 551 181 386 c 1,26,27
 318 386 318 386 351 390 c 1,28,29
 353 374 353 374 353 368 c 0,30,31
 353 327 353 327 308 324 c 0,32,33
 284 323 284 323 172 323 c 1,34,35
 145 112 145 112 145 61 c 1,36,37
 173 59 173 59 195 59 c 0,38,39
 249 59 249 59 304.5 66 c 128,-1,40
 360 73 360 73 378 82 c 1,41,42
 386 55 386 55 386 40 c 0,43,44
 386 11 386 11 354.5 4 c 128,-1,45
 323 -3 323 -3 234 -3 c 0,46,47
 122 -3 122 -3 96 -1 c 0,48,49
 76 0 76 0 68 8 c 128,-1,50
 60 16 60 16 60 34 c 0,51,52
 60 62 60 62 93.5 306 c 128,-1,53
 127 550 127 550 127 631 c 0,54,55
 127 649 127 649 126 656 c 1,56,57
 224 665 224 665 324 665 c 0,58,59
 453 665 453 665 468 650 c 0,60,61
 473 644 473 644 473 631 c 0,62,63
 473 605 473 605 459 580 c 1,20,21
EndSplineSet
EndChar

StartChar: Edieresis
Encoding: 203 203 138
Width: 453
GlyphClass: 2
Flags: W
LayerCount: 2
Fore
SplineSet
454 580 m 1,0,1
 406 601 406 601 290 601 c 0,2,3
 256 601 256 601 205 598 c 1,4,5
 203 551 203 551 181 386 c 1,6,7
 318 386 318 386 351 390 c 1,8,9
 353 374 353 374 353 368 c 0,10,11
 353 327 353 327 308 324 c 0,12,13
 284 323 284 323 172 323 c 1,14,15
 145 112 145 112 145 61 c 1,16,17
 173 59 173 59 209 59 c 0,18,19
 263 59 263 59 318.5 66 c 128,-1,20
 374 73 374 73 392 82 c 1,21,22
 400 55 400 55 400 40 c 0,23,24
 400 11 400 11 368.5 4 c 128,-1,25
 337 -3 337 -3 248 -3 c 0,26,27
 122 -3 122 -3 96 -1 c 0,28,29
 76 0 76 0 68 8 c 128,-1,30
 60 16 60 16 60 34 c 0,31,32
 60 62 60 62 93.5 306 c 128,-1,33
 127 550 127 550 127 631 c 0,34,35
 127 649 127 649 126 656 c 1,36,37
 224 665 224 665 319 665 c 0,38,39
 448 665 448 665 463 650 c 0,40,41
 468 644 468 644 468 631 c 0,42,43
 468 605 468 605 454 580 c 1,0,1
218 712 m 0,44,45
 199 712 199 712 187 725 c 128,-1,46
 175 738 175 738 175 759 c 0,47,48
 175 784 175 784 192 801.5 c 128,-1,49
 209 819 209 819 231 819 c 0,50,51
 249 819 249 819 261.5 805 c 128,-1,52
 274 791 274 791 274 770 c 0,53,54
 274 746 274 746 256 729 c 128,-1,55
 238 712 238 712 218 712 c 0,44,45
385 712 m 0,56,57
 366 712 366 712 354 725 c 128,-1,58
 342 738 342 738 342 759 c 0,59,60
 342 784 342 784 359 801.5 c 128,-1,61
 376 819 376 819 398 819 c 0,62,63
 416 819 416 819 428.5 805 c 128,-1,64
 441 791 441 791 441 770 c 0,65,66
 441 746 441 746 423 729 c 128,-1,67
 405 712 405 712 385 712 c 0,56,57
EndSplineSet
EndChar

StartChar: Igrave
Encoding: 204 204 139
Width: 236
GlyphClass: 2
Flags: W
LayerCount: 2
Fore
SplineSet
175 666 m 0,0,1
 219 666 219 666 219 633 c 0,2,3
 219 628 219 628 214 600.5 c 128,-1,4
 209 573 209 573 200 517.5 c 128,-1,5
 191 462 191 462 184 404 c 2,6,-1
 158 203 l 2,7,8
 146 115 146 115 146 66 c 0,9,10
 146 32 146 32 150 5 c 1,11,12
 132 -3 132 -3 102 -3 c 0,13,14
 60 -3 60 -3 60 39 c 0,15,16
 60 46 60 46 65 82.5 c 128,-1,17
 70 119 70 119 83.5 218.5 c 128,-1,18
 97 318 97 318 111 431 c 0,19,20
 130 581 130 581 134 663 c 1,21,22
 150 666 150 666 175 666 c 0,0,1
71 810 m 0,23,24
 46 826 46 826 46 846 c 0,25,26
 46 873 46 873 81 892 c 1,27,28
 93 877 93 877 114 858 c 128,-1,29
 135 839 135 839 153 825 c 128,-1,30
 171 811 171 811 192 795 c 128,-1,31
 213 779 213 779 217 776 c 0,32,33
 236 762 236 762 236 748 c 0,34,35
 236 732 236 732 220 716 c 1,36,37
 207 727 207 727 151 760.5 c 128,-1,38
 95 794 95 794 71 810 c 0,23,24
EndSplineSet
EndChar

StartChar: Iacute
Encoding: 205 205 140
Width: 236
GlyphClass: 2
Flags: W
LayerCount: 2
Fore
SplineSet
175 666 m 0,0,1
 219 666 219 666 219 633 c 0,2,3
 219 628 219 628 214 600.5 c 128,-1,4
 209 573 209 573 200 517.5 c 128,-1,5
 191 462 191 462 184 404 c 2,6,-1
 158 203 l 2,7,8
 146 115 146 115 146 66 c 0,9,10
 146 32 146 32 150 5 c 1,11,12
 132 -3 132 -3 102 -3 c 0,13,14
 60 -3 60 -3 60 39 c 0,15,16
 60 46 60 46 65 82.5 c 128,-1,17
 70 119 70 119 83.5 218.5 c 128,-1,18
 97 318 97 318 111 431 c 0,19,20
 130 581 130 581 134 663 c 1,21,22
 150 666 150 666 175 666 c 0,0,1
283 795 m 0,23,24
 261 783 261 783 200 755 c 128,-1,25
 139 727 139 727 124 716 c 1,26,27
 111 729 111 729 111 745 c 0,28,29
 111 765 111 765 132 775 c 1,30,31
 237 835 237 835 282 879 c 1,32,33
 312 857 312 857 312 834 c 0,34,35
 312 812 312 812 283 795 c 0,23,24
EndSplineSet
EndChar

StartChar: Icircumflex
Encoding: 206 206 141
Width: 236
GlyphClass: 2
Flags: W
LayerCount: 2
Fore
SplineSet
202 870 m 1,0,1
 308 790 308 790 308 743 c 0,2,3
 308 721 308 721 281 710 c 1,4,5
 267 734 267 734 244 756 c 128,-1,6
 221 778 221 778 206 788 c 2,7,-1
 190 799 l 1,8,9
 184 794 184 794 170.5 783.5 c 128,-1,10
 157 773 157 773 149.5 767 c 128,-1,11
 142 761 142 761 130.5 752 c 128,-1,12
 119 743 119 743 111.5 738 c 128,-1,13
 104 733 104 733 95.5 728 c 128,-1,14
 87 723 87 723 81.5 720.5 c 128,-1,15
 76 718 76 718 72 718 c 0,16,17
 60 718 60 718 50 736 c 1,18,19
 118 811 118 811 202 870 c 1,0,1
175 666 m 0,20,21
 219 666 219 666 219 633 c 0,22,23
 219 628 219 628 214 600.5 c 128,-1,24
 209 573 209 573 200 517.5 c 128,-1,25
 191 462 191 462 184 404 c 2,26,-1
 158 203 l 2,27,28
 146 115 146 115 146 66 c 0,29,30
 146 32 146 32 150 5 c 1,31,32
 132 -3 132 -3 102 -3 c 0,33,34
 60 -3 60 -3 60 39 c 0,35,36
 60 46 60 46 65 82.5 c 128,-1,37
 70 119 70 119 83.5 218.5 c 128,-1,38
 97 318 97 318 111 431 c 0,39,40
 130 581 130 581 134 663 c 1,41,42
 150 666 150 666 175 666 c 0,20,21
EndSplineSet
EndChar

StartChar: Idieresis
Encoding: 207 207 142
Width: 236
GlyphClass: 2
Flags: W
LayerCount: 2
Fore
SplineSet
175 666 m 0,0,1
 219 666 219 666 219 633 c 0,2,3
 219 628 219 628 214 600.5 c 128,-1,4
 209 573 209 573 200 517.5 c 128,-1,5
 191 462 191 462 184 404 c 2,6,-1
 158 203 l 2,7,8
 146 115 146 115 146 66 c 0,9,10
 146 32 146 32 150 5 c 1,11,12
 132 -3 132 -3 102 -3 c 0,13,14
 60 -3 60 -3 60 39 c 0,15,16
 60 46 60 46 65 82.5 c 128,-1,17
 70 119 70 119 83.5 218.5 c 128,-1,18
 97 318 97 318 111 431 c 0,19,20
 130 581 130 581 134 663 c 1,21,22
 150 666 150 666 175 666 c 0,0,1
97 712 m 0,23,24
 78 712 78 712 66 725 c 128,-1,25
 54 738 54 738 54 759 c 0,26,27
 54 784 54 784 71 801.5 c 128,-1,28
 88 819 88 819 110 819 c 0,29,30
 128 819 128 819 140.5 805 c 128,-1,31
 153 791 153 791 153 770 c 0,32,33
 153 746 153 746 135 729 c 128,-1,34
 117 712 117 712 97 712 c 0,23,24
264 712 m 0,35,36
 245 712 245 712 233 725 c 128,-1,37
 221 738 221 738 221 759 c 0,38,39
 221 784 221 784 238 801.5 c 128,-1,40
 255 819 255 819 277 819 c 0,41,42
 295 819 295 819 307.5 805 c 128,-1,43
 320 791 320 791 320 770 c 0,44,45
 320 746 320 746 302 729 c 128,-1,46
 284 712 284 712 264 712 c 0,35,36
EndSplineSet
EndChar

StartChar: Eth
Encoding: 208 208 143
Width: 605
GlyphClass: 2
Flags: W
LayerCount: 2
Fore
SplineSet
231 608 m 1,0,1
 222 497 222 497 207 386 c 1,2,3
 345 386 345 386 377 390 c 1,4,5
 379 374 379 374 379 368 c 0,6,7
 379 327 379 327 334 324 c 0,8,9
 313 323 313 323 198 323 c 1,10,11
 179 196 179 196 157 87 c 1,12,13
 201 51 201 51 269 51 c 0,14,15
 332 51 332 51 380 83.5 c 128,-1,16
 428 116 428 116 453 167.5 c 128,-1,17
 478 219 478 219 490 273.5 c 128,-1,18
 502 328 502 328 502 382 c 0,19,20
 502 497 502 497 446.5 554.5 c 128,-1,21
 391 612 391 612 287 612 c 0,22,23
 269 612 269 612 231 608 c 1,0,1
74 53 m 1,24,25
 103 187 103 187 122 323 c 1,26,27
 69 323 69 323 42 319 c 1,28,29
 40 335 40 335 40 341 c 0,30,31
 40 386 40 386 86 386 c 2,32,-1
 131 386 l 1,33,34
 151 550 151 550 154 661 c 1,35,36
 208 673 208 673 296 673 c 0,37,38
 586 673 586 673 586 404 c 0,39,40
 586 296 586 296 549 203.5 c 128,-1,41
 512 111 512 111 435.5 50.5 c 128,-1,42
 359 -10 359 -10 258 -10 c 0,43,44
 134 -10 134 -10 74 53 c 1,24,25
EndSplineSet
EndChar

StartChar: Ntilde
Encoding: 209 209 144
Width: 580
GlyphClass: 2
Flags: W
LayerCount: 2
Fore
SplineSet
483 1 m 1,0,1
 468 -3 468 -3 450 -3 c 0,2,3
 418 -3 418 -3 406 24 c 0,4,5
 380 83 380 83 311 253.5 c 128,-1,6
 242 424 242 424 192 534 c 1,7,8
 185 482 185 482 173 392 c 128,-1,9
 161 302 161 302 154 250.5 c 128,-1,10
 147 199 147 199 141.5 143 c 128,-1,11
 136 87 136 87 136 59 c 0,12,13
 136 39 136 39 140 5 c 1,14,15
 122 -3 122 -3 102 -3 c 0,16,17
 78 -3 78 -3 69 6 c 128,-1,18
 60 15 60 15 60 35 c 0,19,20
 60 44 60 44 64.5 76 c 128,-1,21
 69 108 69 108 75.5 155 c 128,-1,22
 82 202 82 202 86 231 c 0,23,24
 93 286 93 286 102 355 c 128,-1,25
 111 424 111 424 115.5 459 c 128,-1,26
 120 494 120 494 123.5 533.5 c 128,-1,27
 127 573 127 573 127 604 c 0,28,29
 127 636 127 636 123 659 c 1,30,31
 142 667 142 667 170 667 c 128,-1,32
 198 667 198 667 218 638 c 0,33,34
 294 523 294 523 432 157 c 1,35,-1
 466 431 l 2,36,37
 483 562 483 562 489 663 c 1,38,39
 504 666 504 666 521 666 c 0,40,41
 563 666 563 666 563 632 c 0,42,43
 563 625 563 625 557 592.5 c 128,-1,44
 551 560 551 560 542.5 505.5 c 128,-1,45
 534 451 534 451 528 404 c 0,46,47
 522 355 522 355 510 262.5 c 128,-1,48
 498 170 498 170 492 111.5 c 128,-1,49
 486 53 486 53 483 1 c 1,0,1
430 780 m 0,50,51
 441 780 441 780 460.5 793 c 128,-1,52
 480 806 480 806 495 822 c 1,53,54
 508 817 508 817 508 805 c 0,55,56
 508 777 508 777 472 749 c 128,-1,57
 436 721 436 721 400 721 c 0,58,59
 379 721 379 721 345 743.5 c 128,-1,60
 311 766 311 766 293 766 c 0,61,62
 274 766 274 766 228 724 c 1,63,64
 215 730 215 730 215 741 c 0,65,66
 215 769 215 769 251 797 c 128,-1,67
 287 825 287 825 324 825 c 0,68,69
 342 825 342 825 377.5 802.5 c 128,-1,70
 413 780 413 780 430 780 c 0,50,51
EndSplineSet
EndChar

StartChar: Ograve
Encoding: 210 210 145
Width: 628
GlyphClass: 2
Flags: W
LayerCount: 2
Fore
SplineSet
284 -10 m 0,0,1
 173 -10 173 -10 110.5 63.5 c 128,-1,2
 48 137 48 137 48 263 c 0,3,4
 48 438 48 438 137.5 556 c 128,-1,5
 227 674 227 674 370 674 c 0,6,7
 482 674 482 674 545.5 601.5 c 128,-1,8
 609 529 609 529 609 402 c 0,9,10
 609 230 609 230 519 110 c 128,-1,11
 429 -10 429 -10 284 -10 c 0,0,1
362 612 m 0,12,13
 256 612 256 612 193.5 518 c 128,-1,14
 131 424 131 424 131 288 c 0,15,16
 131 185 131 185 170.5 117.5 c 128,-1,17
 210 50 210 50 293 50 c 0,18,19
 367 50 367 50 421 98.5 c 128,-1,20
 475 147 475 147 500 220.5 c 128,-1,21
 525 294 525 294 525 381 c 0,22,23
 525 480 525 480 485.5 546 c 128,-1,24
 446 612 446 612 362 612 c 0,12,13
250 810 m 0,25,26
 225 826 225 826 225 846 c 0,27,28
 225 873 225 873 260 892 c 1,29,30
 272 877 272 877 293 858 c 128,-1,31
 314 839 314 839 332 825 c 128,-1,32
 350 811 350 811 371 795 c 128,-1,33
 392 779 392 779 396 776 c 0,34,35
 415 762 415 762 415 748 c 0,36,37
 415 732 415 732 399 716 c 1,38,39
 386 727 386 727 330 760.5 c 128,-1,40
 274 794 274 794 250 810 c 0,25,26
EndSplineSet
EndChar

StartChar: Oacute
Encoding: 211 211 146
Width: 628
GlyphClass: 2
Flags: W
LayerCount: 2
Fore
SplineSet
284 -10 m 0,0,1
 173 -10 173 -10 110.5 63.5 c 128,-1,2
 48 137 48 137 48 263 c 0,3,4
 48 438 48 438 137.5 556 c 128,-1,5
 227 674 227 674 370 674 c 0,6,7
 482 674 482 674 545.5 601.5 c 128,-1,8
 609 529 609 529 609 402 c 0,9,10
 609 230 609 230 519 110 c 128,-1,11
 429 -10 429 -10 284 -10 c 0,0,1
362 612 m 0,12,13
 256 612 256 612 193.5 518 c 128,-1,14
 131 424 131 424 131 288 c 0,15,16
 131 185 131 185 170.5 117.5 c 128,-1,17
 210 50 210 50 293 50 c 0,18,19
 367 50 367 50 421 98.5 c 128,-1,20
 475 147 475 147 500 220.5 c 128,-1,21
 525 294 525 294 525 381 c 0,22,23
 525 480 525 480 485.5 546 c 128,-1,24
 446 612 446 612 362 612 c 0,12,13
482 795 m 0,25,26
 460 783 460 783 399 755 c 128,-1,27
 338 727 338 727 323 716 c 1,28,29
 310 729 310 729 310 745 c 0,30,31
 310 765 310 765 331 775 c 1,32,33
 436 835 436 835 481 879 c 1,34,35
 511 857 511 857 511 834 c 0,36,37
 511 812 511 812 482 795 c 0,25,26
EndSplineSet
EndChar

StartChar: Ocircumflex
Encoding: 212 212 147
Width: 628
GlyphClass: 2
Flags: W
LayerCount: 2
Fore
SplineSet
391 870 m 1,0,1
 497 790 497 790 497 743 c 0,2,3
 497 721 497 721 470 710 c 1,4,5
 456 734 456 734 433 756 c 128,-1,6
 410 778 410 778 394 788 c 1,7,-1
 379 799 l 1,8,9
 276 718 276 718 261 718 c 0,10,11
 249 718 249 718 239 736 c 1,12,13
 307 811 307 811 391 870 c 1,0,1
284 -10 m 0,14,15
 173 -10 173 -10 110.5 63.5 c 128,-1,16
 48 137 48 137 48 263 c 0,17,18
 48 438 48 438 137.5 556 c 128,-1,19
 227 674 227 674 370 674 c 0,20,21
 482 674 482 674 545.5 601.5 c 128,-1,22
 609 529 609 529 609 402 c 0,23,24
 609 230 609 230 519 110 c 128,-1,25
 429 -10 429 -10 284 -10 c 0,14,15
362 612 m 0,26,27
 256 612 256 612 193.5 518 c 128,-1,28
 131 424 131 424 131 288 c 0,29,30
 131 185 131 185 170.5 117.5 c 128,-1,31
 210 50 210 50 293 50 c 0,32,33
 367 50 367 50 421 98.5 c 128,-1,34
 475 147 475 147 500 220.5 c 128,-1,35
 525 294 525 294 525 381 c 0,36,37
 525 480 525 480 485.5 546 c 128,-1,38
 446 612 446 612 362 612 c 0,26,27
EndSplineSet
EndChar

StartChar: Otilde
Encoding: 213 213 148
Width: 628
GlyphClass: 2
Flags: W
LayerCount: 2
Fore
SplineSet
284 -10 m 0,0,1
 173 -10 173 -10 110.5 63.5 c 128,-1,2
 48 137 48 137 48 263 c 0,3,4
 48 438 48 438 137.5 556 c 128,-1,5
 227 674 227 674 370 674 c 0,6,7
 482 674 482 674 545.5 601.5 c 128,-1,8
 609 529 609 529 609 402 c 0,9,10
 609 230 609 230 519 110 c 128,-1,11
 429 -10 429 -10 284 -10 c 0,0,1
362 612 m 0,12,13
 256 612 256 612 193.5 518 c 128,-1,14
 131 424 131 424 131 288 c 0,15,16
 131 185 131 185 170.5 117.5 c 128,-1,17
 210 50 210 50 293 50 c 0,18,19
 367 50 367 50 421 98.5 c 128,-1,20
 475 147 475 147 500 220.5 c 128,-1,21
 525 294 525 294 525 381 c 0,22,23
 525 480 525 480 485.5 546 c 128,-1,24
 446 612 446 612 362 612 c 0,12,13
455 780 m 0,25,26
 466 780 466 780 485.5 793 c 128,-1,27
 505 806 505 806 520 822 c 1,28,29
 533 817 533 817 533 805 c 0,30,31
 533 777 533 777 497 749 c 128,-1,32
 461 721 461 721 425 721 c 0,33,34
 404 721 404 721 370 743.5 c 128,-1,35
 336 766 336 766 318 766 c 0,36,37
 299 766 299 766 253 724 c 1,38,39
 240 730 240 730 240 741 c 0,40,41
 240 769 240 769 276 797 c 128,-1,42
 312 825 312 825 349 825 c 0,43,44
 367 825 367 825 402.5 802.5 c 128,-1,45
 438 780 438 780 455 780 c 0,25,26
EndSplineSet
EndChar

StartChar: Odieresis
Encoding: 214 214 149
Width: 628
GlyphClass: 2
Flags: W
LayerCount: 2
Fore
SplineSet
284 -10 m 0,0,1
 173 -10 173 -10 110.5 63.5 c 128,-1,2
 48 137 48 137 48 263 c 0,3,4
 48 438 48 438 137.5 556 c 128,-1,5
 227 674 227 674 370 674 c 0,6,7
 482 674 482 674 545.5 601.5 c 128,-1,8
 609 529 609 529 609 402 c 0,9,10
 609 230 609 230 519 110 c 128,-1,11
 429 -10 429 -10 284 -10 c 0,0,1
362 612 m 0,12,13
 256 612 256 612 193.5 518 c 128,-1,14
 131 424 131 424 131 288 c 0,15,16
 131 185 131 185 170.5 117.5 c 128,-1,17
 210 50 210 50 293 50 c 0,18,19
 367 50 367 50 421 98.5 c 128,-1,20
 475 147 475 147 500 220.5 c 128,-1,21
 525 294 525 294 525 381 c 0,22,23
 525 480 525 480 485.5 546 c 128,-1,24
 446 612 446 612 362 612 c 0,12,13
288 712 m 0,25,26
 269 712 269 712 257 725 c 128,-1,27
 245 738 245 738 245 759 c 0,28,29
 245 784 245 784 262 801.5 c 128,-1,30
 279 819 279 819 301 819 c 0,31,32
 319 819 319 819 331.5 805 c 128,-1,33
 344 791 344 791 344 770 c 0,34,35
 344 746 344 746 326 729 c 128,-1,36
 308 712 308 712 288 712 c 0,25,26
455 712 m 0,37,38
 436 712 436 712 424 725 c 128,-1,39
 412 738 412 738 412 759 c 0,40,41
 412 784 412 784 429 801.5 c 128,-1,42
 446 819 446 819 468 819 c 0,43,44
 486 819 486 819 498.5 805 c 128,-1,45
 511 791 511 791 511 770 c 0,46,47
 511 746 511 746 493 729 c 128,-1,48
 475 712 475 712 455 712 c 0,37,38
EndSplineSet
EndChar

StartChar: multiply
Encoding: 215 215 150
Width: 574
GlyphClass: 2
Flags: W
LayerCount: 2
Fore
SplineSet
327 252 m 1,0,1
 437 142 437 142 493 97 c 1,2,3
 471 60 471 60 442 60 c 0,4,5
 429 60 429 60 419 70 c 0,6,7
 406 83 406 83 354 139.5 c 128,-1,8
 302 196 302 196 286 212 c 1,9,10
 187 115 187 115 131 46 c 1,11,12
 93 72 93 72 93 97 c 0,13,14
 93 110 93 110 103 120 c 0,15,16
 104 120 104 120 246 253 c 1,17,18
 121 373 121 373 81 408 c 1,19,20
 105 446 105 446 131 446 c 0,21,22
 144 446 144 446 155 435 c 0,23,24
 161 429 161 429 182.5 405.5 c 128,-1,25
 204 382 204 382 235 349 c 128,-1,26
 266 316 266 316 287 293 c 1,27,28
 397 403 397 403 442 459 c 1,29,30
 456 451 456 451 467.5 437 c 128,-1,31
 479 423 479 423 479 408 c 0,32,33
 479 395 479 395 469 385 c 0,34,35
 456 372 456 372 399.5 320 c 128,-1,36
 343 268 343 268 327 252 c 1,0,1
EndSplineSet
EndChar

StartChar: Oslash
Encoding: 216 216 151
Width: 632
GlyphClass: 2
Flags: W
LayerCount: 2
Fore
SplineSet
293 50 m 0,0,1
 367 50 367 50 421 98.5 c 128,-1,2
 475 147 475 147 500 220.5 c 128,-1,3
 525 294 525 294 525 381 c 0,4,5
 525 467 525 467 496 526 c 1,6,-1
 205 78 l 1,7,8
 241 50 241 50 293 50 c 0,0,1
362 612 m 0,9,10
 256 612 256 612 193.5 518 c 128,-1,11
 131 424 131 424 131 288 c 0,12,13
 131 179 131 179 171 116 c 1,14,-1
 467 570 l 1,15,16
 427 612 427 612 362 612 c 0,9,10
284 -10 m 0,17,18
 217 -10 217 -10 166 18 c 1,19,20
 147 -12 147 -12 105 -84 c 1,21,22
 88 -83 88 -83 77 -75 c 128,-1,23
 66 -67 66 -67 66 -55 c 0,24,25
 66 -46 66 -46 74 -33 c 2,26,-1
 126 47 l 1,27,28
 48 119 48 119 48 263 c 0,29,30
 48 438 48 438 137.5 556 c 128,-1,31
 227 674 227 674 370 674 c 0,32,33
 451 674 451 674 508 634 c 1,34,35
 542 688 542 688 574 744 c 1,36,37
 613 742 613 742 613 715 c 0,38,39
 613 704 613 704 605 693 c 2,40,-1
 545 602 l 1,41,42
 609 530 609 530 609 402 c 0,43,44
 609 230 609 230 519 110 c 128,-1,45
 429 -10 429 -10 284 -10 c 0,17,18
EndSplineSet
EndChar

StartChar: Ugrave
Encoding: 217 217 152
Width: 596
GlyphClass: 2
Flags: W
LayerCount: 2
Fore
SplineSet
450 274 m 1,0,1
 490 579 490 579 494 663 c 1,2,3
 510 666 510 666 535 666 c 0,4,5
 579 666 579 666 579 633 c 0,6,7
 579 628 579 628 574 600.5 c 128,-1,8
 569 573 569 573 560 517.5 c 128,-1,9
 551 462 551 462 544 404 c 2,10,-1
 518 203 l 2,11,12
 506 115 506 115 506 66 c 0,13,14
 506 32 506 32 510 5 c 1,15,16
 492 -3 492 -3 462 -3 c 0,17,18
 420 -3 420 -3 420 39 c 0,19,20
 420 48 420 48 432 132 c 1,21,22
 389 64 389 64 331.5 27 c 128,-1,23
 274 -10 274 -10 219 -10 c 0,24,25
 152 -10 152 -10 115.5 38 c 128,-1,26
 79 86 79 86 79 157 c 0,27,28
 79 182 79 182 104 371.5 c 128,-1,29
 129 561 129 561 134 663 c 1,30,31
 150 666 150 666 175 666 c 0,32,33
 219 666 219 666 219 633 c 0,34,35
 219 630 219 630 214.5 603 c 128,-1,36
 210 576 210 576 201.5 523.5 c 128,-1,37
 193 471 193 471 186 421 c 0,38,39
 156 200 156 200 156 164 c 0,40,41
 156 122 156 122 174.5 92 c 128,-1,42
 193 62 193 62 232 62 c 0,43,44
 287 62 287 62 352 122.5 c 128,-1,45
 417 183 417 183 450 274 c 1,0,1
251 810 m 0,46,47
 226 826 226 826 226 846 c 0,48,49
 226 873 226 873 261 892 c 1,50,51
 273 877 273 877 294 858 c 128,-1,52
 315 839 315 839 333 825 c 128,-1,53
 351 811 351 811 372 795 c 128,-1,54
 393 779 393 779 397 776 c 0,55,56
 416 762 416 762 416 748 c 0,57,58
 416 732 416 732 400 716 c 1,59,60
 387 727 387 727 331 760.5 c 128,-1,61
 275 794 275 794 251 810 c 0,46,47
EndSplineSet
EndChar

StartChar: Uacute
Encoding: 218 218 153
Width: 596
GlyphClass: 2
Flags: W
LayerCount: 2
Fore
SplineSet
450 274 m 1,0,1
 490 579 490 579 494 663 c 1,2,3
 510 666 510 666 535 666 c 0,4,5
 579 666 579 666 579 633 c 0,6,7
 579 628 579 628 574 600.5 c 128,-1,8
 569 573 569 573 560 517.5 c 128,-1,9
 551 462 551 462 544 404 c 2,10,-1
 518 203 l 2,11,12
 506 115 506 115 506 66 c 0,13,14
 506 32 506 32 510 5 c 1,15,16
 492 -3 492 -3 462 -3 c 0,17,18
 420 -3 420 -3 420 39 c 0,19,20
 420 48 420 48 432 132 c 1,21,22
 389 64 389 64 331.5 27 c 128,-1,23
 274 -10 274 -10 219 -10 c 0,24,25
 152 -10 152 -10 115.5 38 c 128,-1,26
 79 86 79 86 79 157 c 0,27,28
 79 182 79 182 104 371.5 c 128,-1,29
 129 561 129 561 134 663 c 1,30,31
 150 666 150 666 175 666 c 0,32,33
 219 666 219 666 219 633 c 0,34,35
 219 630 219 630 214.5 603 c 128,-1,36
 210 576 210 576 201.5 523.5 c 128,-1,37
 193 471 193 471 186 421 c 0,38,39
 156 200 156 200 156 164 c 0,40,41
 156 122 156 122 174.5 92 c 128,-1,42
 193 62 193 62 232 62 c 0,43,44
 287 62 287 62 352 122.5 c 128,-1,45
 417 183 417 183 450 274 c 1,0,1
483 795 m 0,46,47
 461 783 461 783 400 755 c 128,-1,48
 339 727 339 727 324 716 c 1,49,50
 311 729 311 729 311 745 c 0,51,52
 311 765 311 765 332 775 c 1,53,54
 437 835 437 835 482 879 c 1,55,56
 512 857 512 857 512 834 c 0,57,58
 512 812 512 812 483 795 c 0,46,47
EndSplineSet
EndChar

StartChar: Ucircumflex
Encoding: 219 219 154
Width: 596
GlyphClass: 2
Flags: W
LayerCount: 2
Fore
SplineSet
388 870 m 1,0,1
 494 790 494 790 494 743 c 0,2,3
 494 721 494 721 467 710 c 1,4,5
 453 734 453 734 430 756 c 128,-1,6
 407 778 407 778 392 788 c 2,7,-1
 376 799 l 1,8,9
 370 794 370 794 356.5 783.5 c 128,-1,10
 343 773 343 773 335.5 767 c 128,-1,11
 328 761 328 761 316.5 752 c 128,-1,12
 305 743 305 743 297.5 738 c 128,-1,13
 290 733 290 733 281.5 728 c 128,-1,14
 273 723 273 723 267.5 720.5 c 128,-1,15
 262 718 262 718 258 718 c 0,16,17
 246 718 246 718 236 736 c 1,18,19
 304 811 304 811 388 870 c 1,0,1
450 274 m 1,20,21
 490 579 490 579 494 663 c 1,22,23
 510 666 510 666 535 666 c 0,24,25
 579 666 579 666 579 633 c 0,26,27
 579 628 579 628 574 600.5 c 128,-1,28
 569 573 569 573 560 517.5 c 128,-1,29
 551 462 551 462 544 404 c 2,30,-1
 518 203 l 2,31,32
 506 115 506 115 506 66 c 0,33,34
 506 32 506 32 510 5 c 1,35,36
 492 -3 492 -3 462 -3 c 0,37,38
 420 -3 420 -3 420 39 c 0,39,40
 420 48 420 48 432 132 c 1,41,42
 389 64 389 64 331.5 27 c 128,-1,43
 274 -10 274 -10 219 -10 c 0,44,45
 152 -10 152 -10 115.5 38 c 128,-1,46
 79 86 79 86 79 157 c 0,47,48
 79 182 79 182 104 371.5 c 128,-1,49
 129 561 129 561 134 663 c 1,50,51
 150 666 150 666 175 666 c 0,52,53
 219 666 219 666 219 633 c 0,54,55
 219 630 219 630 214.5 603 c 128,-1,56
 210 576 210 576 201.5 523.5 c 128,-1,57
 193 471 193 471 186 421 c 0,58,59
 156 200 156 200 156 164 c 0,60,61
 156 122 156 122 174.5 92 c 128,-1,62
 193 62 193 62 232 62 c 0,63,64
 287 62 287 62 352 122.5 c 128,-1,65
 417 183 417 183 450 274 c 1,20,21
EndSplineSet
EndChar

StartChar: Udieresis
Encoding: 220 220 155
Width: 596
GlyphClass: 2
Flags: W
LayerCount: 2
Fore
SplineSet
450 274 m 1,0,1
 490 579 490 579 494 663 c 1,2,3
 510 666 510 666 535 666 c 0,4,5
 579 666 579 666 579 633 c 0,6,7
 579 628 579 628 574 600.5 c 128,-1,8
 569 573 569 573 560 517.5 c 128,-1,9
 551 462 551 462 544 404 c 2,10,-1
 518 203 l 2,11,12
 506 115 506 115 506 66 c 0,13,14
 506 32 506 32 510 5 c 1,15,16
 492 -3 492 -3 462 -3 c 0,17,18
 420 -3 420 -3 420 39 c 0,19,20
 420 48 420 48 432 132 c 1,21,22
 389 64 389 64 331.5 27 c 128,-1,23
 274 -10 274 -10 219 -10 c 0,24,25
 152 -10 152 -10 115.5 38 c 128,-1,26
 79 86 79 86 79 157 c 0,27,28
 79 182 79 182 104 371.5 c 128,-1,29
 129 561 129 561 134 663 c 1,30,31
 150 666 150 666 175 666 c 0,32,33
 219 666 219 666 219 633 c 0,34,35
 219 630 219 630 214.5 603 c 128,-1,36
 210 576 210 576 201.5 523.5 c 128,-1,37
 193 471 193 471 186 421 c 0,38,39
 156 200 156 200 156 164 c 0,40,41
 156 122 156 122 174.5 92 c 128,-1,42
 193 62 193 62 232 62 c 0,43,44
 287 62 287 62 352 122.5 c 128,-1,45
 417 183 417 183 450 274 c 1,0,1
289 712 m 0,46,47
 270 712 270 712 258 725 c 128,-1,48
 246 738 246 738 246 759 c 0,49,50
 246 784 246 784 263 801.5 c 128,-1,51
 280 819 280 819 302 819 c 0,52,53
 320 819 320 819 332.5 805 c 128,-1,54
 345 791 345 791 345 770 c 0,55,56
 345 746 345 746 327 729 c 128,-1,57
 309 712 309 712 289 712 c 0,46,47
456 712 m 0,58,59
 437 712 437 712 425 725 c 128,-1,60
 413 738 413 738 413 759 c 0,61,62
 413 784 413 784 430 801.5 c 128,-1,63
 447 819 447 819 469 819 c 0,64,65
 487 819 487 819 499.5 805 c 128,-1,66
 512 791 512 791 512 770 c 0,67,68
 512 746 512 746 494 729 c 128,-1,69
 476 712 476 712 456 712 c 0,58,59
EndSplineSet
EndChar

StartChar: Yacute
Encoding: 221 221 156
Width: 461
GlyphClass: 2
Flags: W
LayerCount: 2
Fore
SplineSet
50 619 m 1,0,1
 54 623 54 623 63.5 634 c 128,-1,2
 73 645 73 645 76.5 648 c 128,-1,3
 80 651 80 651 87 657 c 128,-1,4
 94 663 94 663 100 665 c 128,-1,5
 106 667 106 667 113 667 c 0,6,7
 140 667 140 667 154 633 c 1,8,9
 196 551 196 551 261 369 c 1,10,11
 312 433 312 433 371 534 c 128,-1,12
 430 635 430 635 437 672 c 1,13,14
 511 672 511 672 511 631 c 0,15,16
 511 606 511 606 430 493.5 c 128,-1,17
 349 381 349 381 282 302 c 1,18,-1
 269 203 l 2,19,20
 257 115 257 115 257 66 c 0,21,22
 257 32 257 32 261 5 c 1,23,24
 243 -3 243 -3 213 -3 c 0,25,26
 171 -3 171 -3 171 39 c 0,27,28
 171 45 171 45 174.5 70 c 128,-1,29
 178 95 178 95 187.5 163 c 128,-1,30
 197 231 197 231 206 302 c 1,31,32
 112 567 112 567 50 619 c 1,0,1
404 795 m 0,33,34
 382 783 382 783 321 755 c 128,-1,35
 260 727 260 727 245 716 c 1,36,37
 232 729 232 729 232 745 c 0,38,39
 232 765 232 765 253 775 c 1,40,41
 358 835 358 835 403 879 c 1,42,43
 433 857 433 857 433 834 c 0,44,45
 433 812 433 812 404 795 c 0,33,34
EndSplineSet
EndChar

StartChar: Thorn
Encoding: 222 222 157
Width: 473
GlyphClass: 2
Flags: W
LayerCount: 2
Fore
SplineSet
231 188 m 0,0,1
 304 188 304 188 342.5 241.5 c 128,-1,2
 381 295 381 295 381 378 c 0,3,4
 381 445 381 445 346 470.5 c 128,-1,5
 311 496 311 496 246 496 c 0,6,7
 217 496 217 496 187 493 c 1,8,9
 181 453 181 453 150 213 c 1,10,11
 186 188 186 188 231 188 c 0,0,1
166 666 m 0,12,13
 210 666 210 666 210 633 c 0,14,15
 210 620 210 620 197 555 c 1,16,17
 233 557 233 557 244 557 c 0,18,19
 463 557 463 557 463 380 c 0,20,21
 463 263 463 263 396 195 c 128,-1,22
 329 127 329 127 243 127 c 0,23,24
 183 127 183 127 143 159 c 1,25,26
 137 112 137 112 137 66 c 0,27,28
 137 32 137 32 141 5 c 1,29,30
 123 -3 123 -3 93 -3 c 0,31,32
 51 -3 51 -3 51 39 c 0,33,34
 51 47 51 47 62 129.5 c 128,-1,35
 73 212 73 212 86 309.5 c 128,-1,36
 99 407 99 407 102 431 c 0,37,38
 121 581 121 581 125 663 c 1,39,40
 141 666 141 666 166 666 c 0,12,13
EndSplineSet
EndChar

StartChar: germandbls
Encoding: 223 223 158
Width: 487
GlyphClass: 2
Flags: W
LayerCount: 2
Fore
SplineSet
234 112 m 1,0,1
 235 80 235 80 256 63 c 128,-1,2
 277 46 277 46 304 46 c 0,3,4
 334 46 334 46 354.5 68.5 c 128,-1,5
 375 91 375 91 375 124 c 0,6,7
 375 152 375 152 358.5 176 c 128,-1,8
 342 200 342 200 319 217.5 c 128,-1,9
 296 235 296 235 272.5 253 c 128,-1,10
 249 271 249 271 232.5 295.5 c 128,-1,11
 216 320 216 320 216 349 c 0,12,13
 216 380 216 380 238.5 406.5 c 128,-1,14
 261 433 261 433 288 449.5 c 128,-1,15
 315 466 315 466 337.5 494.5 c 128,-1,16
 360 523 360 523 360 557 c 0,17,18
 360 586 360 586 342.5 601.5 c 128,-1,19
 325 617 325 617 296 617 c 0,20,21
 251 617 251 617 210.5 586.5 c 128,-1,22
 170 556 170 556 163 493 c 0,23,24
 113 39 113 39 92 -34 c 0,25,26
 66 -128 66 -128 19 -128 c 0,27,28
 -14 -128 -14 -128 -27 -79 c 1,29,30
 9 -70 9 -70 36 48 c 128,-1,31
 63 166 63 166 94 465 c 0,32,33
 105 567 105 567 170 620 c 128,-1,34
 235 673 235 673 309 673 c 0,35,36
 362 673 362 673 397.5 648 c 128,-1,37
 433 623 433 623 433 578 c 0,38,39
 433 538 433 538 417 507.5 c 128,-1,40
 401 477 401 477 378.5 459.5 c 128,-1,41
 356 442 356 442 333 427.5 c 128,-1,42
 310 413 310 413 294 397 c 128,-1,43
 278 381 278 381 278 362 c 0,44,45
 278 344 278 344 295.5 325.5 c 128,-1,46
 313 307 313 307 337.5 289 c 128,-1,47
 362 271 362 271 387 251 c 128,-1,48
 412 231 412 231 429.5 202.5 c 128,-1,49
 447 174 447 174 447 141 c 0,50,51
 447 81 447 81 399 35.5 c 128,-1,52
 351 -10 351 -10 288 -10 c 0,53,54
 246 -10 246 -10 214 10.5 c 128,-1,55
 182 31 182 31 182 62 c 0,56,57
 182 99 182 99 234 112 c 1,0,1
EndSplineSet
EndChar

StartChar: agrave
Encoding: 224 224 159
Width: 487
GlyphClass: 2
Flags: W
LayerCount: 2
Fore
SplineSet
330 104 m 1,0,1
 301 49 301 49 259 19.5 c 128,-1,2
 217 -10 217 -10 172 -10 c 0,3,4
 113 -10 113 -10 76 35.5 c 128,-1,5
 39 81 39 81 39 166 c 0,6,7
 39 292 39 292 103.5 383 c 128,-1,8
 168 474 168 474 262 474 c 0,9,10
 364 474 364 474 441 417 c 1,11,12
 395 193 395 193 395 99 c 0,13,14
 395 58 395 58 427 36 c 1,15,16
 413 -10 413 -10 376 -10 c 0,17,18
 329 -10 329 -10 329 71 c 0,19,20
 329 93 329 93 330 104 c 1,0,1
337 189 m 1,21,22
 350 279 350 279 366 379 c 1,23,24
 315 424 315 424 263 424 c 0,25,26
 200 424 200 424 158.5 357 c 128,-1,27
 117 290 117 290 117 183 c 0,28,29
 117 123 117 123 136.5 81.5 c 128,-1,30
 156 40 156 40 192 40 c 0,31,32
 225 40 225 40 267 81.5 c 128,-1,33
 309 123 309 123 337 189 c 1,21,22
162 619 m 0,34,35
 137 635 137 635 137 655 c 0,36,37
 137 682 137 682 172 701 c 1,38,39
 184 686 184 686 205 667 c 128,-1,40
 226 648 226 648 244 634 c 128,-1,41
 262 620 262 620 283 604 c 128,-1,42
 304 588 304 588 308 585 c 0,43,44
 327 571 327 571 327 557 c 0,45,46
 327 541 327 541 311 525 c 1,47,48
 298 536 298 536 242 569.5 c 128,-1,49
 186 603 186 603 162 619 c 0,34,35
EndSplineSet
EndChar

StartChar: aacute
Encoding: 225 225 160
Width: 487
GlyphClass: 2
Flags: W
LayerCount: 2
Fore
SplineSet
330 104 m 1,0,1
 301 49 301 49 259 19.5 c 128,-1,2
 217 -10 217 -10 172 -10 c 0,3,4
 113 -10 113 -10 76 35.5 c 128,-1,5
 39 81 39 81 39 166 c 0,6,7
 39 292 39 292 103.5 383 c 128,-1,8
 168 474 168 474 262 474 c 0,9,10
 364 474 364 474 441 417 c 1,11,12
 395 193 395 193 395 99 c 0,13,14
 395 58 395 58 427 36 c 1,15,16
 413 -10 413 -10 376 -10 c 0,17,18
 329 -10 329 -10 329 71 c 0,19,20
 329 93 329 93 330 104 c 1,0,1
337 189 m 1,21,22
 350 279 350 279 366 379 c 1,23,24
 315 424 315 424 263 424 c 0,25,26
 200 424 200 424 158.5 357 c 128,-1,27
 117 290 117 290 117 183 c 0,28,29
 117 123 117 123 136.5 81.5 c 128,-1,30
 156 40 156 40 192 40 c 0,31,32
 225 40 225 40 267 81.5 c 128,-1,33
 309 123 309 123 337 189 c 1,21,22
394 604 m 0,34,35
 372 592 372 592 311 564 c 128,-1,36
 250 536 250 536 235 525 c 1,37,38
 222 538 222 538 222 554 c 0,39,40
 222 574 222 574 243 584 c 1,41,42
 348 644 348 644 393 688 c 1,43,44
 423 666 423 666 423 643 c 0,45,46
 423 621 423 621 394 604 c 0,34,35
EndSplineSet
EndChar

StartChar: acircumflex
Encoding: 226 226 161
Width: 487
GlyphClass: 2
Flags: W
LayerCount: 2
Fore
SplineSet
303 679 m 1,0,1
 409 599 409 599 409 552 c 0,2,3
 409 530 409 530 382 519 c 1,4,5
 368 543 368 543 345 565 c 128,-1,6
 322 587 322 587 306 598 c 2,7,-1
 291 608 l 1,8,9
 188 527 188 527 173 527 c 0,10,11
 161 527 161 527 151 545 c 1,12,13
 219 620 219 620 303 679 c 1,0,1
330 104 m 1,14,15
 301 49 301 49 259 19.5 c 128,-1,16
 217 -10 217 -10 172 -10 c 0,17,18
 113 -10 113 -10 76 35.5 c 128,-1,19
 39 81 39 81 39 166 c 0,20,21
 39 292 39 292 103.5 383 c 128,-1,22
 168 474 168 474 262 474 c 0,23,24
 364 474 364 474 441 417 c 1,25,26
 395 193 395 193 395 99 c 0,27,28
 395 58 395 58 427 36 c 1,29,30
 413 -10 413 -10 376 -10 c 0,31,32
 329 -10 329 -10 329 71 c 0,33,34
 329 93 329 93 330 104 c 1,14,15
337 189 m 1,35,36
 350 279 350 279 366 379 c 1,37,38
 315 424 315 424 263 424 c 0,39,40
 200 424 200 424 158.5 357 c 128,-1,41
 117 290 117 290 117 183 c 0,42,43
 117 123 117 123 136.5 81.5 c 128,-1,44
 156 40 156 40 192 40 c 0,45,46
 225 40 225 40 267 81.5 c 128,-1,47
 309 123 309 123 337 189 c 1,35,36
EndSplineSet
EndChar

StartChar: atilde
Encoding: 227 227 162
Width: 487
GlyphClass: 2
Flags: W
LayerCount: 2
Fore
SplineSet
330 104 m 1,0,1
 301 49 301 49 259 19.5 c 128,-1,2
 217 -10 217 -10 172 -10 c 0,3,4
 113 -10 113 -10 76 35.5 c 128,-1,5
 39 81 39 81 39 166 c 0,6,7
 39 292 39 292 103.5 383 c 128,-1,8
 168 474 168 474 262 474 c 0,9,10
 364 474 364 474 441 417 c 1,11,12
 395 193 395 193 395 99 c 0,13,14
 395 58 395 58 427 36 c 1,15,16
 413 -10 413 -10 376 -10 c 0,17,18
 329 -10 329 -10 329 71 c 0,19,20
 329 93 329 93 330 104 c 1,0,1
337 189 m 1,21,22
 350 279 350 279 366 379 c 1,23,24
 315 424 315 424 263 424 c 0,25,26
 200 424 200 424 158.5 357 c 128,-1,27
 117 290 117 290 117 183 c 0,28,29
 117 123 117 123 136.5 81.5 c 128,-1,30
 156 40 156 40 192 40 c 0,31,32
 225 40 225 40 267 81.5 c 128,-1,33
 309 123 309 123 337 189 c 1,21,22
359 589 m 0,34,35
 370 589 370 589 389.5 602 c 128,-1,36
 409 615 409 615 424 631 c 1,37,38
 437 626 437 626 437 614 c 0,39,40
 437 586 437 586 401 558 c 128,-1,41
 365 530 365 530 329 530 c 0,42,43
 308 530 308 530 274 552.5 c 128,-1,44
 240 575 240 575 222 575 c 0,45,46
 203 575 203 575 157 533 c 1,47,48
 144 540 144 540 144 550 c 0,49,50
 144 578 144 578 180 606 c 128,-1,51
 216 634 216 634 253 634 c 0,52,53
 271 634 271 634 306.5 611.5 c 128,-1,54
 342 589 342 589 359 589 c 0,34,35
EndSplineSet
EndChar

StartChar: adieresis
Encoding: 228 228 163
Width: 487
GlyphClass: 2
Flags: W
LayerCount: 2
Fore
SplineSet
330 104 m 1,0,1
 301 49 301 49 259 19.5 c 128,-1,2
 217 -10 217 -10 172 -10 c 0,3,4
 113 -10 113 -10 76 35.5 c 128,-1,5
 39 81 39 81 39 166 c 0,6,7
 39 292 39 292 103.5 383 c 128,-1,8
 168 474 168 474 262 474 c 0,9,10
 364 474 364 474 441 417 c 1,11,12
 395 193 395 193 395 99 c 0,13,14
 395 58 395 58 427 36 c 1,15,16
 413 -10 413 -10 376 -10 c 0,17,18
 329 -10 329 -10 329 71 c 0,19,20
 329 93 329 93 330 104 c 1,0,1
337 189 m 1,21,22
 350 279 350 279 366 379 c 1,23,24
 315 424 315 424 263 424 c 0,25,26
 200 424 200 424 158.5 357 c 128,-1,27
 117 290 117 290 117 183 c 0,28,29
 117 123 117 123 136.5 81.5 c 128,-1,30
 156 40 156 40 192 40 c 0,31,32
 225 40 225 40 267 81.5 c 128,-1,33
 309 123 309 123 337 189 c 1,21,22
204 521 m 0,34,35
 185 521 185 521 173 534 c 128,-1,36
 161 547 161 547 161 568 c 0,37,38
 161 593 161 593 178 610.5 c 128,-1,39
 195 628 195 628 217 628 c 0,40,41
 235 628 235 628 247.5 614 c 128,-1,42
 260 600 260 600 260 579 c 0,43,44
 260 555 260 555 242 538 c 128,-1,45
 224 521 224 521 204 521 c 0,34,35
371 521 m 0,46,47
 352 521 352 521 340 534 c 128,-1,48
 328 547 328 547 328 568 c 0,49,50
 328 593 328 593 345 610.5 c 128,-1,51
 362 628 362 628 384 628 c 0,52,53
 402 628 402 628 414.5 614 c 128,-1,54
 427 600 427 600 427 579 c 0,55,56
 427 555 427 555 409 538 c 128,-1,57
 391 521 391 521 371 521 c 0,46,47
EndSplineSet
EndChar

StartChar: aring
Encoding: 229 229 164
Width: 487
GlyphClass: 2
Flags: W
LayerCount: 2
Fore
SplineSet
299 520 m 0,0,1
 264 520 264 520 244 540 c 128,-1,2
 224 560 224 560 224 595 c 0,3,4
 224 639 224 639 252.5 668.5 c 128,-1,5
 281 698 281 698 322 698 c 0,6,7
 356 698 356 698 376 678 c 128,-1,8
 396 658 396 658 396 623 c 0,9,10
 396 579 396 579 368 549.5 c 128,-1,11
 340 520 340 520 299 520 c 0,0,1
318 665 m 0,12,13
 293 665 293 665 279.5 646.5 c 128,-1,14
 266 628 266 628 266 599 c 0,15,16
 266 578 266 578 275.5 565.5 c 128,-1,17
 285 553 285 553 303 553 c 0,18,19
 327 553 327 553 340 571.5 c 128,-1,20
 353 590 353 590 353 618 c 0,21,22
 353 639 353 639 343.5 652 c 128,-1,23
 334 665 334 665 318 665 c 0,12,13
330 104 m 1,24,25
 301 49 301 49 259 19.5 c 128,-1,26
 217 -10 217 -10 172 -10 c 0,27,28
 113 -10 113 -10 76 35.5 c 128,-1,29
 39 81 39 81 39 166 c 0,30,31
 39 292 39 292 103.5 383 c 128,-1,32
 168 474 168 474 262 474 c 0,33,34
 364 474 364 474 441 417 c 1,35,36
 395 193 395 193 395 99 c 0,37,38
 395 58 395 58 427 36 c 1,39,40
 413 -10 413 -10 376 -10 c 0,41,42
 329 -10 329 -10 329 71 c 0,43,44
 329 93 329 93 330 104 c 1,24,25
337 189 m 1,45,46
 350 279 350 279 366 379 c 1,47,48
 315 424 315 424 263 424 c 0,49,50
 200 424 200 424 158.5 357 c 128,-1,51
 117 290 117 290 117 183 c 0,52,53
 117 123 117 123 136.5 81.5 c 128,-1,54
 156 40 156 40 192 40 c 0,55,56
 225 40 225 40 267 81.5 c 128,-1,57
 309 123 309 123 337 189 c 1,45,46
EndSplineSet
EndChar

StartChar: ae
Encoding: 230 230 165
Width: 708
GlyphClass: 2
Flags: W
LayerCount: 2
Fore
SplineSet
600 359 m 0,0,1
 600 387 600 387 583.5 406 c 128,-1,2
 567 425 567 425 537 425 c 0,3,4
 484 425 484 425 443.5 369.5 c 128,-1,5
 403 314 403 314 396 228 c 1,6,7
 424 228 424 228 443.5 229.5 c 128,-1,8
 463 231 463 231 495.5 238.5 c 128,-1,9
 528 246 528 246 548 258.5 c 128,-1,10
 568 271 568 271 584 297 c 128,-1,11
 600 323 600 323 600 359 c 0,0,1
192 40 m 0,12,13
 219 40 219 40 254 69.5 c 128,-1,14
 289 99 289 99 317 149 c 1,15,16
 316 159 316 159 316 180 c 0,17,18
 316 299 316 299 376 379 c 1,19,20
 316 424 316 424 263 424 c 0,21,22
 200 424 200 424 158.5 357 c 128,-1,23
 117 290 117 290 117 183 c 0,24,25
 117 123 117 123 136.5 81.5 c 128,-1,26
 156 40 156 40 192 40 c 0,12,13
607 102 m 1,27,28
 638 83 638 83 638 60 c 0,29,30
 638 30 638 30 596 10 c 128,-1,31
 554 -10 554 -10 499 -10 c 0,32,33
 366 -10 366 -10 328 104 c 1,34,35
 267 -10 267 -10 172 -10 c 0,36,37
 113 -10 113 -10 76 35.5 c 128,-1,38
 39 81 39 81 39 166 c 0,39,40
 39 292 39 292 103.5 383 c 128,-1,41
 168 474 168 474 262 474 c 0,42,43
 350 474 350 474 420 424 c 1,44,45
 479 474 479 474 554 474 c 0,46,47
 614 474 614 474 646 444.5 c 128,-1,48
 678 415 678 415 678 370 c 0,49,50
 678 321 678 321 658 285 c 128,-1,51
 638 249 638 249 610.5 230.5 c 128,-1,52
 583 212 583 212 545 201 c 128,-1,53
 507 190 507 190 481 187.5 c 128,-1,54
 455 185 455 185 428 185 c 0,55,56
 415 185 415 185 395 187 c 1,57,58
 399 112 399 112 428 76 c 128,-1,59
 457 40 457 40 502 40 c 0,60,61
 567 40 567 40 607 102 c 1,27,28
EndSplineSet
EndChar

StartChar: ccedilla
Encoding: 231 231 166
Width: 413
GlyphClass: 2
Flags: W
LayerCount: 2
Fore
SplineSet
355 354 m 1,0,1
 346 387 346 387 318 403 c 128,-1,2
 290 419 290 419 263 419 c 0,3,4
 197 419 197 419 157.5 353 c 128,-1,5
 118 287 118 287 118 195 c 0,6,7
 118 117 118 117 148.5 78.5 c 128,-1,8
 179 40 179 40 225 40 c 0,9,10
 290 40 290 40 330 102 c 1,11,12
 361 83 361 83 361 60 c 0,13,14
 361 30 361 30 318.5 10 c 128,-1,15
 276 -10 276 -10 219 -10 c 1,16,17
 212 -29 212 -29 212 -33 c 0,18,19
 212 -44 212 -44 234 -60 c 1,20,21
 272 -83 272 -83 272 -122 c 0,22,23
 272 -164 272 -164 233 -198 c 128,-1,24
 194 -232 194 -232 141 -232 c 0,25,26
 110 -232 110 -232 110 -209 c 0,27,28
 110 -195 110 -195 129 -178 c 1,29,30
 142 -187 142 -187 156 -187 c 0,31,32
 181 -187 181 -187 199.5 -175 c 128,-1,33
 218 -163 218 -163 218 -142 c 0,34,35
 218 -122 218 -122 189.5 -99 c 128,-1,36
 161 -76 161 -76 161 -59 c 0,37,38
 161 -40 161 -40 178 -6 c 1,39,40
 110 5 110 5 74.5 52.5 c 128,-1,41
 39 100 39 100 39 180 c 0,42,43
 39 319 39 319 113 396.5 c 128,-1,44
 187 474 187 474 280 474 c 0,45,46
 324 474 324 474 363.5 456 c 128,-1,47
 403 438 403 438 403 403 c 0,48,49
 403 362 403 362 355 354 c 1,0,1
EndSplineSet
EndChar

StartChar: egrave
Encoding: 232 232 167
Width: 421
GlyphClass: 2
Flags: W
LayerCount: 2
Fore
SplineSet
320 102 m 1,0,1
 351 83 351 83 351 60 c 0,2,3
 351 30 351 30 309 10 c 128,-1,4
 267 -10 267 -10 212 -10 c 0,5,6
 124 -10 124 -10 76.5 39 c 128,-1,7
 29 88 29 88 29 180 c 0,8,9
 29 318 29 318 103.5 396 c 128,-1,10
 178 474 178 474 267 474 c 0,11,12
 327 474 327 474 359 444.5 c 128,-1,13
 391 415 391 415 391 370 c 0,14,15
 391 321 391 321 371 285 c 128,-1,16
 351 249 351 249 323.5 230.5 c 128,-1,17
 296 212 296 212 258 201 c 128,-1,18
 220 190 220 190 194 187.5 c 128,-1,19
 168 185 168 185 141 185 c 0,20,21
 128 185 128 185 108 187 c 1,22,23
 112 112 112 112 141 76 c 128,-1,24
 170 40 170 40 215 40 c 0,25,26
 280 40 280 40 320 102 c 1,0,1
313 359 m 0,27,28
 313 387 313 387 296.5 406 c 128,-1,29
 280 425 280 425 250 425 c 0,30,31
 197 425 197 425 156.5 369.5 c 128,-1,32
 116 314 116 314 109 228 c 1,33,34
 137 228 137 228 156.5 229.5 c 128,-1,35
 176 231 176 231 208.5 238.5 c 128,-1,36
 241 246 241 246 261 258.5 c 128,-1,37
 281 271 281 271 297 297 c 128,-1,38
 313 323 313 323 313 359 c 0,27,28
132 619 m 0,39,40
 107 635 107 635 107 655 c 0,41,42
 107 682 107 682 142 701 c 1,43,44
 154 686 154 686 175 667 c 128,-1,45
 196 648 196 648 214 634 c 128,-1,46
 232 620 232 620 253 604 c 128,-1,47
 274 588 274 588 278 585 c 0,48,49
 297 571 297 571 297 557 c 0,50,51
 297 541 297 541 281 525 c 1,52,53
 268 536 268 536 212 569.5 c 128,-1,54
 156 603 156 603 132 619 c 0,39,40
EndSplineSet
EndChar

StartChar: eacute
Encoding: 233 233 168
Width: 424
GlyphClass: 2
Flags: W
LayerCount: 2
Fore
SplineSet
320 102 m 1,0,1
 351 83 351 83 351 60 c 0,2,3
 351 30 351 30 309 10 c 128,-1,4
 267 -10 267 -10 212 -10 c 0,5,6
 124 -10 124 -10 76.5 39 c 128,-1,7
 29 88 29 88 29 180 c 0,8,9
 29 318 29 318 103.5 396 c 128,-1,10
 178 474 178 474 267 474 c 0,11,12
 327 474 327 474 359 444.5 c 128,-1,13
 391 415 391 415 391 370 c 0,14,15
 391 321 391 321 371 285 c 128,-1,16
 351 249 351 249 323.5 230.5 c 128,-1,17
 296 212 296 212 258 201 c 128,-1,18
 220 190 220 190 194 187.5 c 128,-1,19
 168 185 168 185 141 185 c 0,20,21
 128 185 128 185 108 187 c 1,22,23
 112 112 112 112 141 76 c 128,-1,24
 170 40 170 40 215 40 c 0,25,26
 280 40 280 40 320 102 c 1,0,1
313 359 m 0,27,28
 313 387 313 387 296.5 406 c 128,-1,29
 280 425 280 425 250 425 c 0,30,31
 197 425 197 425 156.5 369.5 c 128,-1,32
 116 314 116 314 109 228 c 1,33,34
 137 228 137 228 156.5 229.5 c 128,-1,35
 176 231 176 231 208.5 238.5 c 128,-1,36
 241 246 241 246 261 258.5 c 128,-1,37
 281 271 281 271 297 297 c 128,-1,38
 313 323 313 323 313 359 c 0,27,28
364 604 m 0,39,40
 342 592 342 592 281 564 c 128,-1,41
 220 536 220 536 205 525 c 1,42,43
 192 538 192 538 192 554 c 0,44,45
 192 574 192 574 213 584 c 1,46,47
 318 644 318 644 363 688 c 1,48,49
 393 666 393 666 393 643 c 0,50,51
 393 621 393 621 364 604 c 0,39,40
EndSplineSet
EndChar

StartChar: ecircumflex
Encoding: 234 234 169
Width: 421
GlyphClass: 2
Flags: W
LayerCount: 2
Fore
SplineSet
273 679 m 1,0,1
 379 599 379 599 379 552 c 0,2,3
 379 530 379 530 352 519 c 1,4,5
 338 543 338 543 315 565 c 128,-1,6
 292 587 292 587 276 598 c 2,7,-1
 261 608 l 1,8,9
 255 603 255 603 241.5 592.5 c 128,-1,10
 228 582 228 582 220.5 576 c 128,-1,11
 213 570 213 570 201.5 561 c 128,-1,12
 190 552 190 552 182.5 547 c 128,-1,13
 175 542 175 542 166.5 537 c 128,-1,14
 158 532 158 532 152.5 529.5 c 128,-1,15
 147 527 147 527 143 527 c 0,16,17
 131 527 131 527 121 545 c 1,18,19
 189 620 189 620 273 679 c 1,0,1
320 102 m 1,20,21
 351 83 351 83 351 60 c 0,22,23
 351 30 351 30 309 10 c 128,-1,24
 267 -10 267 -10 212 -10 c 0,25,26
 124 -10 124 -10 76.5 39 c 128,-1,27
 29 88 29 88 29 180 c 0,28,29
 29 318 29 318 103.5 396 c 128,-1,30
 178 474 178 474 267 474 c 0,31,32
 327 474 327 474 359 444.5 c 128,-1,33
 391 415 391 415 391 370 c 0,34,35
 391 321 391 321 371 285 c 128,-1,36
 351 249 351 249 323.5 230.5 c 128,-1,37
 296 212 296 212 258 201 c 128,-1,38
 220 190 220 190 194 187.5 c 128,-1,39
 168 185 168 185 141 185 c 0,40,41
 128 185 128 185 108 187 c 1,42,43
 112 112 112 112 141 76 c 128,-1,44
 170 40 170 40 215 40 c 0,45,46
 280 40 280 40 320 102 c 1,20,21
313 359 m 0,47,48
 313 387 313 387 296.5 406 c 128,-1,49
 280 425 280 425 250 425 c 0,50,51
 197 425 197 425 156.5 369.5 c 128,-1,52
 116 314 116 314 109 228 c 1,53,54
 137 228 137 228 156.5 229.5 c 128,-1,55
 176 231 176 231 208.5 238.5 c 128,-1,56
 241 246 241 246 261 258.5 c 128,-1,57
 281 271 281 271 297 297 c 128,-1,58
 313 323 313 323 313 359 c 0,47,48
EndSplineSet
EndChar

StartChar: edieresis
Encoding: 235 235 170
Width: 421
GlyphClass: 2
Flags: W
LayerCount: 2
Fore
SplineSet
320 102 m 1,0,1
 351 83 351 83 351 60 c 0,2,3
 351 30 351 30 309 10 c 128,-1,4
 267 -10 267 -10 212 -10 c 0,5,6
 124 -10 124 -10 76.5 39 c 128,-1,7
 29 88 29 88 29 180 c 0,8,9
 29 318 29 318 103.5 396 c 128,-1,10
 178 474 178 474 267 474 c 0,11,12
 327 474 327 474 359 444.5 c 128,-1,13
 391 415 391 415 391 370 c 0,14,15
 391 321 391 321 371 285 c 128,-1,16
 351 249 351 249 323.5 230.5 c 128,-1,17
 296 212 296 212 258 201 c 128,-1,18
 220 190 220 190 194 187.5 c 128,-1,19
 168 185 168 185 141 185 c 0,20,21
 128 185 128 185 108 187 c 1,22,23
 112 112 112 112 141 76 c 128,-1,24
 170 40 170 40 215 40 c 0,25,26
 280 40 280 40 320 102 c 1,0,1
313 359 m 0,27,28
 313 387 313 387 296.5 406 c 128,-1,29
 280 425 280 425 250 425 c 0,30,31
 197 425 197 425 156.5 369.5 c 128,-1,32
 116 314 116 314 109 228 c 1,33,34
 137 228 137 228 156.5 229.5 c 128,-1,35
 176 231 176 231 208.5 238.5 c 128,-1,36
 241 246 241 246 261 258.5 c 128,-1,37
 281 271 281 271 297 297 c 128,-1,38
 313 323 313 323 313 359 c 0,27,28
168 521 m 0,39,40
 149 521 149 521 137 534 c 128,-1,41
 125 547 125 547 125 568 c 0,42,43
 125 593 125 593 142 610.5 c 128,-1,44
 159 628 159 628 181 628 c 0,45,46
 199 628 199 628 211.5 614 c 128,-1,47
 224 600 224 600 224 579 c 0,48,49
 224 555 224 555 206 538 c 128,-1,50
 188 521 188 521 168 521 c 0,39,40
335 521 m 0,51,52
 316 521 316 521 304 534 c 128,-1,53
 292 547 292 547 292 568 c 0,54,55
 292 593 292 593 309 610.5 c 128,-1,56
 326 628 326 628 348 628 c 0,57,58
 366 628 366 628 378.5 614 c 128,-1,59
 391 600 391 600 391 579 c 0,60,61
 391 555 391 555 373 538 c 128,-1,62
 355 521 355 521 335 521 c 0,51,52
EndSplineSet
EndChar

StartChar: igrave
Encoding: 236 236 171
Width: 200
GlyphClass: 2
Flags: W
LayerCount: 2
Fore
SplineSet
116 474 m 0,0,1
 159 474 159 474 159 411 c 0,2,3
 159 374 159 374 137 248 c 128,-1,4
 115 122 115 122 115 99 c 0,5,6
 115 58 115 58 147 36 c 1,7,8
 133 -10 133 -10 96 -10 c 0,9,10
 46 -10 46 -10 46 81 c 0,11,12
 46 128 46 128 64.5 228.5 c 128,-1,13
 83 329 83 329 83 371 c 0,14,15
 83 418 83 418 63 423 c 1,16,17
 65 437 65 437 81 455.5 c 128,-1,18
 97 474 97 474 116 474 c 0,0,1
24 619 m 0,19,20
 -1 635 -1 635 -1 655 c 0,21,22
 -1 682 -1 682 34 701 c 1,23,24
 46 686 46 686 67 667 c 128,-1,25
 88 648 88 648 106 634 c 128,-1,26
 124 620 124 620 145 604 c 128,-1,27
 166 588 166 588 170 585 c 0,28,29
 189 571 189 571 189 557 c 0,30,31
 189 541 189 541 173 525 c 1,32,33
 160 536 160 536 104 569.5 c 128,-1,34
 48 603 48 603 24 619 c 0,19,20
EndSplineSet
EndChar

StartChar: iacute
Encoding: 237 237 172
Width: 200
GlyphClass: 2
Flags: W
LayerCount: 2
Fore
SplineSet
116 474 m 0,0,1
 159 474 159 474 159 411 c 0,2,3
 159 374 159 374 137 248 c 128,-1,4
 115 122 115 122 115 99 c 0,5,6
 115 58 115 58 147 36 c 1,7,8
 133 -10 133 -10 96 -10 c 0,9,10
 46 -10 46 -10 46 81 c 0,11,12
 46 128 46 128 64.5 228.5 c 128,-1,13
 83 329 83 329 83 371 c 0,14,15
 83 418 83 418 63 423 c 1,16,17
 65 437 65 437 81 455.5 c 128,-1,18
 97 474 97 474 116 474 c 0,0,1
205 604 m 0,19,20
 183 592 183 592 122 564 c 128,-1,21
 61 536 61 536 46 525 c 1,22,23
 33 538 33 538 33 554 c 0,24,25
 33 574 33 574 54 584 c 1,26,27
 159 644 159 644 204 688 c 1,28,29
 234 666 234 666 234 643 c 0,30,31
 234 621 234 621 205 604 c 0,19,20
EndSplineSet
EndChar

StartChar: icircumflex
Encoding: 238 238 173
Width: 200
GlyphClass: 2
Flags: W
LayerCount: 2
Fore
SplineSet
139 679 m 1,0,1
 245 599 245 599 245 552 c 0,2,3
 245 530 245 530 218 519 c 1,4,5
 204 543 204 543 181 565 c 128,-1,6
 158 587 158 587 142 598 c 2,7,-1
 127 608 l 1,8,9
 24 527 24 527 9 527 c 0,10,11
 -3 527 -3 527 -13 545 c 1,12,13
 55 620 55 620 139 679 c 1,0,1
116 474 m 0,14,15
 159 474 159 474 159 411 c 0,16,17
 159 374 159 374 137 248 c 128,-1,18
 115 122 115 122 115 99 c 0,19,20
 115 58 115 58 147 36 c 1,21,22
 133 -10 133 -10 96 -10 c 0,23,24
 46 -10 46 -10 46 81 c 0,25,26
 46 128 46 128 64.5 228.5 c 128,-1,27
 83 329 83 329 83 371 c 0,28,29
 83 418 83 418 63 423 c 1,30,31
 65 437 65 437 81 455.5 c 128,-1,32
 97 474 97 474 116 474 c 0,14,15
EndSplineSet
EndChar

StartChar: idieresis
Encoding: 239 239 174
Width: 201
GlyphClass: 2
Flags: W
LayerCount: 2
Fore
SplineSet
120 474 m 0,0,1
 163 474 163 474 163 411 c 0,2,3
 163 374 163 374 137 248 c 128,-1,4
 111 122 111 122 111 99 c 0,5,6
 111 58 111 58 143 36 c 1,7,8
 129 -10 129 -10 92 -10 c 0,9,10
 42 -10 42 -10 42 81 c 0,11,12
 42 128 42 128 64.5 228.5 c 128,-1,13
 87 329 87 329 87 371 c 0,14,15
 87 418 87 418 67 423 c 1,16,17
 69 437 69 437 85 455.5 c 128,-1,18
 101 474 101 474 120 474 c 0,0,1
35 521 m 0,19,20
 16 521 16 521 4 534 c 128,-1,21
 -8 547 -8 547 -8 568 c 0,22,23
 -8 593 -8 593 9 610.5 c 128,-1,24
 26 628 26 628 48 628 c 0,25,26
 66 628 66 628 78.5 614 c 128,-1,27
 91 600 91 600 91 579 c 0,28,29
 91 555 91 555 73 538 c 128,-1,30
 55 521 55 521 35 521 c 0,19,20
202 521 m 0,31,32
 183 521 183 521 171 534 c 128,-1,33
 159 547 159 547 159 568 c 0,34,35
 159 593 159 593 176 610.5 c 128,-1,36
 193 628 193 628 215 628 c 0,37,38
 233 628 233 628 245.5 614 c 128,-1,39
 258 600 258 600 258 579 c 0,40,41
 258 555 258 555 240 538 c 128,-1,42
 222 521 222 521 202 521 c 0,31,32
EndSplineSet
EndChar

StartChar: eth
Encoding: 240 240 175
Width: 529
GlyphClass: 2
Flags: W
LayerCount: 2
Fore
SplineSet
269 419 m 0,0,1
 192 419 192 419 148 355.5 c 128,-1,2
 104 292 104 292 104 201 c 0,3,4
 104 131 104 131 133.5 88.5 c 128,-1,5
 163 46 163 46 219 46 c 0,6,7
 297 46 297 46 340 109.5 c 128,-1,8
 383 173 383 173 383 264 c 0,9,10
 383 333 383 333 353 376 c 128,-1,11
 323 419 323 419 269 419 c 0,0,1
197 570 m 0,12,13
 227 589 227 589 267 616 c 1,14,15
 217 648 217 648 148 661 c 1,16,17
 147 665 147 665 147 669 c 0,18,19
 147 698 147 698 174 698 c 0,20,21
 198 698 198 698 240.5 684 c 128,-1,22
 283 670 283 670 316 649 c 1,23,24
 392 700 392 700 430 731 c 1,25,26
 445 714 445 714 445 696 c 0,27,28
 445 680 445 680 426 667 c 2,29,-1
 354 619 l 1,30,31
 457 523 457 523 457 352 c 0,32,33
 457 283 457 283 443.5 221.5 c 128,-1,34
 430 160 430 160 402.5 106.5 c 128,-1,35
 375 53 375 53 325.5 21.5 c 128,-1,36
 276 -10 276 -10 211 -10 c 0,37,38
 130 -10 130 -10 83 42 c 128,-1,39
 36 94 36 94 36 185 c 0,40,41
 36 315 36 315 106 394.5 c 128,-1,42
 176 474 176 474 264 474 c 0,43,44
 347 474 347 474 394 404 c 1,45,46
 373 520 373 520 306 586 c 1,47,48
 278 567 278 567 242.5 541 c 128,-1,49
 207 515 207 515 198 509 c 1,50,51
 178 525 178 525 178 541 c 128,-1,52
 178 557 178 557 197 570 c 0,12,13
EndSplineSet
EndChar

StartChar: ntilde
Encoding: 241 241 176
Width: 475
GlyphClass: 2
Flags: W
LayerCount: 2
Fore
SplineSet
145 273 m 1,0,1
 124 112 124 112 124 60 c 0,2,3
 124 30 124 30 127 5 c 1,4,5
 109 -3 109 -3 85 -3 c 0,6,7
 46 -3 46 -3 46 31 c 0,8,9
 46 45 46 45 68 194.5 c 128,-1,10
 90 344 90 344 90 368 c 0,11,12
 90 414 90 414 69 423 c 1,13,14
 71 437 71 437 87 455.5 c 128,-1,15
 103 474 103 474 122 474 c 0,16,17
 163 474 163 474 163 412 c 0,18,19
 163 394 163 394 160 376 c 1,20,21
 190 423 190 423 232.5 448.5 c 128,-1,22
 275 474 275 474 314 474 c 0,23,24
 364 474 364 474 391.5 440 c 128,-1,25
 419 406 419 406 419 351 c 0,26,27
 419 332 419 332 400 227.5 c 128,-1,28
 381 123 381 123 381 99 c 0,29,30
 381 58 381 58 413 36 c 1,31,32
 399 -10 399 -10 362 -10 c 0,33,34
 312 -10 312 -10 312 81 c 0,35,36
 312 124 312 124 330.5 225.5 c 128,-1,37
 349 327 349 327 349 347 c 0,38,39
 349 382 349 382 335.5 402.5 c 128,-1,40
 322 423 322 423 298 423 c 0,41,42
 259 423 259 423 212 377.5 c 128,-1,43
 165 332 165 332 145 273 c 1,0,1
351 589 m 0,44,45
 362 589 362 589 381.5 602 c 128,-1,46
 401 615 401 615 416 631 c 1,47,48
 429 626 429 626 429 614 c 0,49,50
 429 586 429 586 393 558 c 128,-1,51
 357 530 357 530 321 530 c 0,52,53
 300 530 300 530 266 552.5 c 128,-1,54
 232 575 232 575 214 575 c 0,55,56
 195 575 195 575 149 533 c 1,57,58
 136 540 136 540 136 550 c 0,59,60
 136 578 136 578 172 606 c 128,-1,61
 208 634 208 634 245 634 c 0,62,63
 263 634 263 634 298.5 611.5 c 128,-1,64
 334 589 334 589 351 589 c 0,44,45
EndSplineSet
EndChar

StartChar: ograve
Encoding: 242 242 177
Width: 475
GlyphClass: 2
Flags: W
LayerCount: 2
Fore
SplineSet
203 -10 m 0,0,1
 121 -10 121 -10 75 41 c 128,-1,2
 29 92 29 92 29 181 c 0,3,4
 29 304 29 304 96.5 389 c 128,-1,5
 164 474 164 474 268 474 c 0,6,7
 351 474 351 474 398.5 422.5 c 128,-1,8
 446 371 446 371 446 281 c 0,9,10
 446 159 446 159 376.5 74.5 c 128,-1,11
 307 -10 307 -10 203 -10 c 0,0,1
262 424 m 0,12,13
 190 424 190 424 148.5 354.5 c 128,-1,14
 107 285 107 285 107 194 c 0,15,16
 107 127 107 127 134.5 83.5 c 128,-1,17
 162 40 162 40 213 40 c 0,18,19
 285 40 285 40 326 108 c 128,-1,20
 367 176 367 176 367 266 c 0,21,22
 367 335 367 335 340 379.5 c 128,-1,23
 313 424 313 424 262 424 c 0,12,13
159 619 m 0,24,25
 134 635 134 635 134 655 c 0,26,27
 134 682 134 682 169 701 c 1,28,29
 181 686 181 686 202 667 c 128,-1,30
 223 648 223 648 241 634 c 128,-1,31
 259 620 259 620 280 604 c 128,-1,32
 301 588 301 588 305 585 c 0,33,34
 324 571 324 571 324 557 c 0,35,36
 324 541 324 541 308 525 c 1,37,38
 295 536 295 536 239 569.5 c 128,-1,39
 183 603 183 603 159 619 c 0,24,25
EndSplineSet
EndChar

StartChar: oacute
Encoding: 243 243 178
Width: 475
GlyphClass: 2
Flags: W
LayerCount: 2
Fore
SplineSet
203 -10 m 0,0,1
 121 -10 121 -10 75 41 c 128,-1,2
 29 92 29 92 29 181 c 0,3,4
 29 304 29 304 96.5 389 c 128,-1,5
 164 474 164 474 268 474 c 0,6,7
 351 474 351 474 398.5 422.5 c 128,-1,8
 446 371 446 371 446 281 c 0,9,10
 446 159 446 159 376.5 74.5 c 128,-1,11
 307 -10 307 -10 203 -10 c 0,0,1
262 424 m 0,12,13
 190 424 190 424 148.5 354.5 c 128,-1,14
 107 285 107 285 107 194 c 0,15,16
 107 127 107 127 134.5 83.5 c 128,-1,17
 162 40 162 40 213 40 c 0,18,19
 285 40 285 40 326 108 c 128,-1,20
 367 176 367 176 367 266 c 0,21,22
 367 335 367 335 340 379.5 c 128,-1,23
 313 424 313 424 262 424 c 0,12,13
391 604 m 0,24,25
 369 592 369 592 308 564 c 128,-1,26
 247 536 247 536 232 525 c 1,27,28
 219 538 219 538 219 554 c 0,29,30
 219 574 219 574 240 584 c 1,31,32
 345 644 345 644 390 688 c 1,33,34
 420 666 420 666 420 643 c 0,35,36
 420 621 420 621 391 604 c 0,24,25
EndSplineSet
EndChar

StartChar: ocircumflex
Encoding: 244 244 179
Width: 475
GlyphClass: 2
Flags: W
LayerCount: 2
Fore
SplineSet
300 679 m 1,0,1
 406 599 406 599 406 552 c 0,2,3
 406 530 406 530 379 519 c 1,4,5
 365 543 365 543 342 565 c 128,-1,6
 319 587 319 587 304 598 c 1,7,-1
 288 608 l 1,8,9
 185 527 185 527 170 527 c 0,10,11
 158 527 158 527 148 545 c 1,12,13
 216 620 216 620 300 679 c 1,0,1
203 -10 m 0,14,15
 121 -10 121 -10 75 41 c 128,-1,16
 29 92 29 92 29 181 c 0,17,18
 29 304 29 304 96.5 389 c 128,-1,19
 164 474 164 474 268 474 c 0,20,21
 351 474 351 474 398.5 422.5 c 128,-1,22
 446 371 446 371 446 281 c 0,23,24
 446 159 446 159 376.5 74.5 c 128,-1,25
 307 -10 307 -10 203 -10 c 0,14,15
262 424 m 0,26,27
 190 424 190 424 148.5 354.5 c 128,-1,28
 107 285 107 285 107 194 c 0,29,30
 107 127 107 127 134.5 83.5 c 128,-1,31
 162 40 162 40 213 40 c 0,32,33
 285 40 285 40 326 108 c 128,-1,34
 367 176 367 176 367 266 c 0,35,36
 367 335 367 335 340 379.5 c 128,-1,37
 313 424 313 424 262 424 c 0,26,27
EndSplineSet
EndChar

StartChar: otilde
Encoding: 245 245 180
Width: 475
GlyphClass: 2
Flags: W
LayerCount: 2
Fore
SplineSet
203 -10 m 0,0,1
 121 -10 121 -10 75 41 c 128,-1,2
 29 92 29 92 29 181 c 0,3,4
 29 304 29 304 96.5 389 c 128,-1,5
 164 474 164 474 268 474 c 0,6,7
 351 474 351 474 398.5 422.5 c 128,-1,8
 446 371 446 371 446 281 c 0,9,10
 446 159 446 159 376.5 74.5 c 128,-1,11
 307 -10 307 -10 203 -10 c 0,0,1
262 424 m 0,12,13
 190 424 190 424 148.5 354.5 c 128,-1,14
 107 285 107 285 107 194 c 0,15,16
 107 127 107 127 134.5 83.5 c 128,-1,17
 162 40 162 40 213 40 c 0,18,19
 285 40 285 40 326 108 c 128,-1,20
 367 176 367 176 367 266 c 0,21,22
 367 335 367 335 340 379.5 c 128,-1,23
 313 424 313 424 262 424 c 0,12,13
356 589 m 0,24,25
 367 589 367 589 386.5 602 c 128,-1,26
 406 615 406 615 421 631 c 1,27,28
 434 626 434 626 434 614 c 0,29,30
 434 586 434 586 398 558 c 128,-1,31
 362 530 362 530 326 530 c 0,32,33
 305 530 305 530 271 552.5 c 128,-1,34
 237 575 237 575 219 575 c 0,35,36
 200 575 200 575 154 533 c 1,37,38
 141 540 141 540 141 550 c 0,39,40
 141 578 141 578 177 606 c 128,-1,41
 213 634 213 634 250 634 c 0,42,43
 268 634 268 634 303.5 611.5 c 128,-1,44
 339 589 339 589 356 589 c 0,24,25
EndSplineSet
EndChar

StartChar: odieresis
Encoding: 246 246 181
Width: 475
GlyphClass: 2
Flags: W
LayerCount: 2
Fore
SplineSet
203 -10 m 0,0,1
 121 -10 121 -10 75 41 c 128,-1,2
 29 92 29 92 29 181 c 0,3,4
 29 304 29 304 96.5 389 c 128,-1,5
 164 474 164 474 268 474 c 0,6,7
 351 474 351 474 398.5 422.5 c 128,-1,8
 446 371 446 371 446 281 c 0,9,10
 446 159 446 159 376.5 74.5 c 128,-1,11
 307 -10 307 -10 203 -10 c 0,0,1
262 424 m 0,12,13
 190 424 190 424 148.5 354.5 c 128,-1,14
 107 285 107 285 107 194 c 0,15,16
 107 127 107 127 134.5 83.5 c 128,-1,17
 162 40 162 40 213 40 c 0,18,19
 285 40 285 40 326 108 c 128,-1,20
 367 176 367 176 367 266 c 0,21,22
 367 335 367 335 340 379.5 c 128,-1,23
 313 424 313 424 262 424 c 0,12,13
194 521 m 0,24,25
 175 521 175 521 163 534 c 128,-1,26
 151 547 151 547 151 568 c 0,27,28
 151 593 151 593 168 610.5 c 128,-1,29
 185 628 185 628 207 628 c 0,30,31
 225 628 225 628 237.5 614 c 128,-1,32
 250 600 250 600 250 579 c 0,33,34
 250 555 250 555 232 538 c 128,-1,35
 214 521 214 521 194 521 c 0,24,25
361 521 m 0,36,37
 342 521 342 521 330 534 c 128,-1,38
 318 547 318 547 318 568 c 0,39,40
 318 593 318 593 335 610.5 c 128,-1,41
 352 628 352 628 374 628 c 0,42,43
 392 628 392 628 404.5 614 c 128,-1,44
 417 600 417 600 417 579 c 0,45,46
 417 555 417 555 399 538 c 128,-1,47
 381 521 381 521 361 521 c 0,36,37
EndSplineSet
EndChar

StartChar: divide
Encoding: 247 247 182
Width: 574
GlyphClass: 2
Flags: W
LayerCount: 2
Fore
SplineSet
486 258 m 0,0,1
 486 240 486 240 476 228 c 128,-1,2
 466 216 466 216 450 216 c 128,-1,3
 434 216 434 216 378.5 220 c 128,-1,4
 323 224 323 224 294 224 c 0,5,6
 180 224 180 224 92 216 c 1,7,8
 89 231 89 231 89 246 c 0,9,10
 89 262 89 262 98 275 c 128,-1,11
 107 288 107 288 125 288 c 0,12,13
 128 288 128 288 188 284.5 c 128,-1,14
 248 281 248 281 292 281 c 0,15,16
 422 281 422 281 483 288 c 1,17,18
 486 279 486 279 486 258 c 0,0,1
291 367 m 128,-1,20
 268 367 268 367 252 383 c 128,-1,21
 236 399 236 399 236 424 c 0,22,23
 236 448 236 448 252 464.5 c 128,-1,24
 268 481 268 481 291 481 c 128,-1,25
 314 481 314 481 329.5 464.5 c 128,-1,26
 345 448 345 448 345 424 c 0,27,28
 345 399 345 399 329.5 383 c 128,-1,19
 314 367 314 367 291 367 c 128,-1,20
291 23 m 128,-1,30
 268 23 268 23 252 39 c 128,-1,31
 236 55 236 55 236 80 c 0,32,33
 236 104 236 104 252 120.5 c 128,-1,34
 268 137 268 137 291 137 c 128,-1,35
 314 137 314 137 329.5 120.5 c 128,-1,36
 345 104 345 104 345 80 c 0,37,38
 345 55 345 55 329.5 39 c 128,-1,29
 314 23 314 23 291 23 c 128,-1,30
EndSplineSet
EndChar

StartChar: oslash
Encoding: 248 248 183
Width: 485
GlyphClass: 2
Flags: W
LayerCount: 2
Fore
SplineSet
351 356 m 1,0,-1
 157 59 l 1,1,2
 181 40 181 40 213 40 c 0,3,4
 285 40 285 40 326 108 c 128,-1,5
 367 176 367 176 367 266 c 0,6,7
 367 312 367 312 351 356 c 1,0,-1
262 424 m 0,8,9
 190 424 190 424 148.5 354.5 c 128,-1,10
 107 285 107 285 107 194 c 0,11,12
 107 140 107 140 125 102 c 1,13,-1
 323 399 l 1,14,15
 298 424 298 424 262 424 c 0,8,9
203 -10 m 0,16,17
 161 -10 161 -10 124 6 c 1,18,-1
 65 -85 l 1,19,20
 29 -83 29 -83 29 -57 c 0,21,22
 29 -48 29 -48 37 -35 c 2,23,-1
 83 34 l 1,24,25
 29 88 29 88 29 181 c 0,26,27
 29 304 29 304 96.5 389 c 128,-1,28
 164 474 164 474 268 474 c 0,29,30
 318 474 318 474 358 454 c 1,31,32
 391 508 391 508 420 557 c 1,33,34
 456 555 456 555 456 529 c 0,35,36
 456 518 456 518 448 507 c 2,37,-1
 395 424 l 1,38,39
 446 370 446 370 446 281 c 0,40,41
 446 159 446 159 376.5 74.5 c 128,-1,42
 307 -10 307 -10 203 -10 c 0,16,17
EndSplineSet
EndChar

StartChar: ugrave
Encoding: 249 249 184
Width: 473
GlyphClass: 2
Flags: W
LayerCount: 2
Fore
SplineSet
318 104 m 1,0,1
 293 56 293 56 250.5 23 c 128,-1,2
 208 -10 208 -10 158 -10 c 128,-1,3
 108 -10 108 -10 80.5 24 c 128,-1,4
 53 58 53 58 53 113 c 0,5,6
 53 132 53 132 72 236.5 c 128,-1,7
 91 341 91 341 91 365 c 0,8,9
 91 415 91 415 70 423 c 1,10,11
 74 440 74 440 89 457 c 128,-1,12
 104 474 104 474 123 474 c 0,13,14
 148 474 148 474 155.5 454.5 c 128,-1,15
 163 435 163 435 163 394 c 0,16,17
 163 351 163 351 143 249.5 c 128,-1,18
 123 148 123 148 123 117 c 0,19,20
 123 82 123 82 136.5 61.5 c 128,-1,21
 150 41 150 41 174 41 c 0,22,23
 213 41 213 41 260 86.5 c 128,-1,24
 307 132 307 132 327 191 c 1,25,26
 357 390 357 390 361 464 c 1,27,28
 379 469 379 469 394 469 c 0,29,30
 433 469 433 469 433 437 c 0,31,32
 433 427 433 427 408 277 c 128,-1,33
 383 127 383 127 383 93 c 0,34,35
 383 56 383 56 415 36 c 1,36,37
 410 19 410 19 397.5 4.5 c 128,-1,38
 385 -10 385 -10 365 -10 c 0,39,40
 317 -10 317 -10 317 70 c 0,41,42
 317 93 317 93 318 104 c 1,0,1
165 619 m 0,43,44
 140 635 140 635 140 655 c 0,45,46
 140 682 140 682 175 701 c 1,47,48
 187 686 187 686 208 667 c 128,-1,49
 229 648 229 648 247 634 c 128,-1,50
 265 620 265 620 286 604 c 128,-1,51
 307 588 307 588 311 585 c 0,52,53
 330 571 330 571 330 557 c 0,54,55
 330 541 330 541 314 525 c 1,56,57
 301 536 301 536 245 569.5 c 128,-1,58
 189 603 189 603 165 619 c 0,43,44
EndSplineSet
EndChar

